if (_typeface_js && _typeface_js.loadFace) _typeface_js.loadFace({"glyphs":{"0":{"ha":836,"x_min":66,"x_max":810,"o":"m 342 -20 q 217 2 269 -20 q 132 66 166 23 q 83 171 100 109 q 66 323 66 233 q 69 394 66 362 q 77 458 72 425 q 89 531 82 498 q 105 601 96 564 q 149 734 124 673 q 203 843 174 795 q 224 876 214 861 q 245 901 235 890 q 292 949 267 928 q 345 985 317 969 q 432 1019 386 1008 q 533 1031 479 1031 q 660 1009 609 1031 q 743 945 711 987 q 794 840 777 903 q 810 694 810 777 q 801 558 810 631 q 772 411 791 485 q 728 278 753 341 q 674 170 703 216 q 645 127 661 149 q 610 86 629 105 q 573 54 593 69 q 532 27 553 39 q 342 -20 450 -20 m 359 112 q 386 114 374 112 q 412 120 399 116 q 435 130 422 123 q 460 144 448 136 q 502 183 481 159 q 538 238 523 208 q 549 259 543 247 q 562 287 555 272 q 573 314 568 300 q 583 340 578 328 q 589 357 587 350 q 594 371 592 364 q 598 384 596 378 q 603 399 600 391 q 611 429 606 410 q 620 465 616 447 q 626 491 623 479 q 631 513 629 503 q 634 533 633 524 q 638 553 636 543 q 645 597 642 577 q 649 637 648 617 q 651 676 650 656 q 652 713 652 696 q 652 735 652 724 q 651 753 652 745 q 650 769 650 762 q 647 787 649 777 q 644 800 646 790 q 641 814 642 809 q 637 826 640 819 q 631 839 634 834 q 627 847 630 842 q 620 857 625 851 q 602 876 612 867 q 579 889 592 884 q 551 897 566 895 q 519 899 535 899 q 465 891 491 899 q 416 867 439 883 q 371 825 391 850 q 337 774 351 800 q 292 672 313 732 q 255 547 270 612 q 231 411 239 477 q 223 294 223 344 q 231 209 223 242 q 257 153 239 175 q 359 112 290 112 m 388 278 q 387 279 387 278 q 386 279 387 279 l 383 279 q 353 368 351 290 l 353 376 q 354 380 353 378 q 355 385 354 382 l 355 394 q 355 397 355 395 q 355 404 355 399 q 359 439 358 426 q 362 461 361 452 q 365 476 363 470 q 367 492 366 483 q 369 504 368 496 q 373 520 371 512 q 376 536 374 529 q 378 545 378 543 q 383 561 381 555 q 386 570 385 567 q 387 574 387 573 q 387 575 387 574 q 393 593 389 581 q 399 614 397 606 q 409 639 404 625 q 418 661 415 653 q 433 688 425 675 q 450 712 441 702 q 468 729 459 723 q 486 735 477 735 l 489 735 q 493 734 490 735 q 526 647 529 724 l 526 646 q 525 638 525 644 l 525 629 q 517 559 524 607 q 511 528 513 543 q 506 506 508 513 q 498 477 503 494 q 488 442 494 460 q 475 405 481 424 q 463 372 469 387 q 445 331 453 348 q 427 302 436 314 q 409 283 418 289 q 390 278 399 278 l 388 278 z "},"1":{"ha":836,"x_min":29,"x_max":692,"o":"m 64 176 l 288 176 l 415 833 l 197 782 l 232 962 l 453 1013 l 644 1013 l 482 176 l 692 176 l 657 0 l 29 0 l 64 176 z "},"2":{"ha":836,"x_min":-20,"x_max":770,"o":"m 9 148 q 17 169 12 161 q 31 186 22 178 l 201 339 q 233 367 220 356 q 255 386 245 377 q 275 404 264 395 q 300 426 285 412 q 425 544 373 492 q 510 638 477 596 q 557 712 543 680 q 572 772 572 745 q 563 813 572 793 q 534 846 553 833 q 489 867 515 860 q 431 873 463 873 q 370 868 402 873 q 303 854 338 863 q 234 830 273 845 q 153 794 195 815 l 187 975 q 262 999 224 989 q 334 1017 299 1010 q 406 1027 370 1024 q 473 1031 442 1031 q 592 1015 537 1031 q 688 967 647 1000 q 748 896 726 937 q 770 804 770 854 q 693 607 770 715 q 462 368 616 498 l 435 345 l 220 176 l 659 176 l 624 0 l -20 0 l 9 148 z "},"3":{"ha":836,"x_min":-21,"x_max":760,"o":"m 286 -20 q 215 -17 251 -20 q 140 -7 180 -14 q 58 10 97 1 q -21 31 20 19 l 16 214 q 84 185 50 197 q 151 166 118 174 q 222 154 186 158 q 292 150 258 150 q 390 162 351 150 q 454 197 428 175 q 494 251 479 218 q 509 323 509 283 q 465 420 509 388 q 413 445 444 437 q 349 453 383 453 l 241 453 l 277 629 l 383 629 q 520 667 467 629 q 560 711 547 687 q 572 762 572 734 q 534 836 572 810 q 489 854 516 847 q 422 861 461 861 q 299 847 366 861 q 229 829 264 840 q 157 806 194 819 l 193 987 q 263 1007 230 999 q 330 1020 297 1015 q 394 1028 362 1025 q 452 1031 425 1031 q 581 1014 524 1031 q 677 966 637 997 q 739 887 719 932 q 760 789 760 842 q 744 705 760 745 q 696 631 729 666 q 618 576 663 597 q 518 546 573 555 q 654 466 610 522 q 687 402 676 437 q 699 319 699 366 q 671 181 699 244 q 588 72 643 118 q 457 3 533 26 q 286 -20 380 -20 z "},"4":{"ha":836,"x_min":12,"x_max":760,"o":"m 415 218 l 12 218 l 52 412 l 550 1013 l 760 1013 l 639 390 l 750 390 l 717 218 l 606 218 l 564 0 l 372 0 l 415 218 m 449 390 l 524 782 l 196 390 l 449 390 z "},"5":{"ha":836,"x_min":4,"x_max":781,"o":"m 262 -20 q 198 -17 231 -20 q 134 -9 166 -14 q 4 24 68 3 l 39 204 q 144 163 85 177 q 204 152 174 155 q 265 149 235 149 q 372 162 326 149 q 451 202 418 176 q 502 266 485 229 q 518 345 518 302 q 470 459 518 418 q 338 500 422 500 q 231 486 288 500 q 121 447 176 473 l 231 1013 l 781 1013 l 746 836 l 358 836 l 322 648 q 369 661 343 657 q 422 665 393 665 q 543 645 489 665 q 635 587 597 624 q 693 494 673 549 q 713 370 713 440 q 683 211 713 283 q 592 86 652 139 q 449 7 532 33 q 262 -20 366 -20 z "},"6":{"ha":836,"x_min":65,"x_max":793,"o":"m 369 -22 q 239 -1 296 -22 q 142 63 182 20 q 84 169 104 106 q 65 326 65 232 q 75 463 65 393 q 106 604 85 533 q 156 735 127 674 q 221 846 184 795 q 293 926 254 891 q 382 984 332 960 q 484 1018 430 1007 q 597 1029 538 1029 q 648 1027 626 1029 q 694 1019 671 1025 q 793 989 741 1009 l 758 807 q 712 835 732 825 q 670 852 692 845 q 623 864 646 860 q 574 868 599 868 q 395 795 467 868 q 333 704 359 758 q 292 579 307 649 q 384 646 333 624 q 496 668 435 668 q 675 593 608 668 q 724 505 707 556 q 741 383 741 454 q 714 223 741 294 q 636 94 687 152 q 520 7 585 37 q 369 -22 455 -22 m 374 140 q 440 158 409 140 q 495 208 471 175 q 532 283 519 240 q 545 373 545 326 q 537 430 545 406 q 514 473 530 454 q 431 507 482 507 q 362 489 393 507 q 309 439 331 470 q 272 362 285 405 q 260 277 260 319 q 267 218 260 243 q 290 176 275 194 q 325 150 304 160 q 374 140 346 140 z "},"7":{"ha":836,"x_min":74,"x_max":831,"o":"m 572 836 l 143 836 l 178 1013 l 831 1013 l 803 871 l 290 0 l 74 0 l 572 836 z "},"8":{"ha":836,"x_min":43,"x_max":771,"o":"m 340 -20 q 214 -2 269 -20 q 121 48 159 16 q 43 239 43 116 q 60 345 43 296 q 110 433 77 394 q 189 500 142 473 q 294 542 235 528 q 233 567 260 551 q 188 608 207 583 q 161 661 170 631 q 151 729 151 690 q 176 844 151 789 q 251 943 200 899 q 359 1007 298 984 q 495 1031 421 1031 q 606 1014 556 1031 q 695 964 656 998 q 751 888 732 932 q 771 787 771 844 q 711 619 771 689 q 549 533 651 551 q 664 456 622 514 q 695 393 684 428 q 705 313 705 359 q 681 181 705 242 q 605 73 656 119 q 492 5 558 30 q 340 -20 426 -20 m 443 612 q 501 623 473 612 q 551 653 530 633 q 595 757 595 694 q 564 841 595 810 q 478 871 532 871 q 372 829 414 871 q 340 784 352 810 q 329 726 329 758 q 336 681 329 702 q 359 644 344 660 q 397 620 376 627 q 443 612 418 612 m 358 142 q 426 155 395 142 q 481 193 457 168 q 516 252 504 218 q 528 321 528 285 q 518 378 528 355 q 492 418 509 402 q 451 444 475 434 q 393 453 427 453 q 269 402 317 453 q 233 344 245 377 q 221 275 221 311 q 230 220 221 245 q 259 176 239 195 q 303 150 278 159 q 358 142 328 142 z "},"9":{"ha":836,"x_min":37,"x_max":765,"o":"m 234 -21 q 183 -19 205 -21 q 136 -11 160 -16 q 91 1 115 -6 q 37 20 66 8 l 72 201 q 114 175 92 187 q 161 156 136 163 q 208 144 184 149 q 257 140 232 140 q 435 214 363 140 q 499 309 474 255 q 539 429 524 363 q 446 363 496 385 q 393 346 420 351 q 335 340 366 340 q 229 361 273 340 q 157 415 186 382 q 107 509 122 456 q 92 623 92 562 q 119 787 92 711 q 194 916 147 863 q 314 1002 245 973 q 465 1031 383 1031 q 595 1008 538 1031 q 688 945 652 986 q 765 684 765 862 q 755 545 765 616 q 724 404 745 474 q 675 273 704 334 q 610 161 646 212 q 536 80 574 113 q 450 24 498 47 q 346 -10 400 1 q 234 -21 292 -21 m 399 501 q 521 569 471 501 q 558 644 545 603 q 571 731 571 686 q 564 788 571 764 q 541 832 557 813 q 458 868 509 868 q 336 800 385 868 q 300 722 312 765 q 288 634 288 680 q 295 575 288 597 q 318 536 302 553 q 351 511 332 520 q 399 501 370 501 z "},"\u0000":{"ha":0,"x_min":0,"x_max":0,"o":""},"\r":{"ha":836,"x_min":0,"x_max":0,"o":""}," ":{"ha":836,"x_min":0,"x_max":0,"o":""},"Ă":{"ha":836,"x_min":-77,"x_max":798,"o":"m 540 1077 q 394 1122 444 1077 q 345 1253 345 1168 l 345 1256 l 441 1256 q 473 1199 447 1219 q 553 1178 500 1178 q 641 1198 606 1178 q 693 1256 676 1218 l 798 1256 q 759 1178 784 1211 q 701 1122 734 1144 q 627 1088 668 1099 q 540 1077 586 1077 m 395 1013 l 639 1013 l 715 0 l 517 0 l 507 250 l 236 250 l 126 0 l -77 0 l 395 1013 m 500 415 l 486 827 l 307 415 l 500 415 z "},"Â":{"ha":836,"x_min":-77,"x_max":772,"o":"m 433 1256 l 669 1256 l 772 1077 l 657 1077 l 546 1186 l 390 1077 l 268 1077 l 433 1256 m 395 1013 l 639 1013 l 715 0 l 517 0 l 507 250 l 236 250 l 126 0 l -77 0 l 395 1013 m 500 415 l 486 827 l 307 415 l 500 415 z "},"Ä":{"ha":836,"x_min":-77,"x_max":767,"o":"m 330 1094 q 312 1110 312 1094 q 313 1116 312 1114 l 338 1242 q 360 1261 342 1261 l 479 1261 q 497 1244 497 1261 q 496 1238 497 1240 l 471 1112 q 450 1094 468 1094 l 330 1094 m 599 1094 q 581 1110 581 1094 q 581 1116 581 1114 l 606 1242 q 628 1261 609 1261 l 747 1261 q 762 1255 757 1261 q 765 1238 767 1249 l 741 1112 q 719 1094 737 1094 l 599 1094 m 395 1013 l 639 1013 l 715 0 l 517 0 l 507 250 l 236 250 l 126 0 l -77 0 l 395 1013 m 500 415 l 486 827 l 307 415 l 500 415 z "},"À":{"ha":836,"x_min":-77,"x_max":715,"o":"m 339 1256 l 518 1256 l 615 1077 l 494 1077 l 339 1256 m 395 1013 l 639 1013 l 715 0 l 517 0 l 507 250 l 236 250 l 126 0 l -77 0 l 395 1013 m 500 415 l 486 827 l 307 415 l 500 415 z "},"Ā":{"ha":836,"x_min":-77,"x_max":780,"o":"m 352 1255 l 780 1255 l 755 1127 l 328 1127 l 352 1255 m 395 1013 l 639 1013 l 715 0 l 517 0 l 507 250 l 236 250 l 126 0 l -77 0 l 395 1013 m 500 415 l 486 827 l 307 415 l 500 415 z "},"Ą":{"ha":836,"x_min":-77,"x_max":715,"o":"m 532 -123 q 549 -158 532 -143 q 600 -172 565 -172 q 646 -168 618 -172 q 706 -151 674 -163 l 685 -257 q 621 -268 652 -264 q 564 -272 589 -272 q 454 -247 494 -272 q 414 -173 414 -221 q 440 -92 414 -136 q 520 0 465 -48 l 517 0 l 507 250 l 236 250 l 126 0 l -77 0 l 395 1013 l 639 1013 l 715 0 l 616 0 q 549 -79 565 -54 q 536 -103 541 -92 q 532 -123 532 -113 m 500 415 l 486 827 l 307 415 l 500 415 z "},"Å":{"ha":836,"x_min":-77,"x_max":715,"o":"m 371 964 q 332 1024 347 988 q 318 1097 318 1059 q 375 1232 318 1175 q 435 1274 402 1259 q 511 1289 468 1289 q 647 1232 590 1289 q 704 1097 704 1175 q 700 1056 704 1076 q 688 1019 696 1036 q 668 984 680 1000 q 643 956 656 968 l 715 0 l 515 0 l 501 250 l 233 250 l 123 0 l -77 0 l 371 964 m 511 1007 q 574 1034 548 1007 q 600 1096 600 1059 q 574 1159 600 1133 q 511 1185 547 1185 q 449 1159 475 1185 q 422 1096 422 1133 q 430 1061 422 1076 q 448 1034 437 1045 q 511 1007 475 1007 m 494 415 l 481 829 l 306 415 l 494 415 z "},"Ã":{"ha":836,"x_min":-77,"x_max":794,"o":"m 286 1078 q 348 1211 304 1165 q 396 1246 370 1234 q 456 1258 423 1258 q 505 1250 482 1258 q 525 1240 514 1246 q 550 1223 536 1234 l 586 1196 q 609 1182 595 1187 q 632 1177 621 1177 q 676 1198 659 1177 q 701 1258 694 1220 l 794 1258 q 732 1124 777 1172 q 625 1078 688 1078 q 600 1080 611 1078 q 578 1085 589 1082 q 557 1094 567 1088 q 530 1112 547 1100 l 497 1137 q 482 1148 488 1145 q 469 1155 476 1152 q 457 1158 462 1158 q 448 1159 452 1159 q 422 1153 433 1159 q 404 1138 412 1147 q 387 1107 393 1125 q 379 1078 381 1089 l 286 1078 m 395 1013 l 639 1013 l 715 0 l 517 0 l 507 250 l 236 250 l 126 0 l -77 0 l 395 1013 m 500 415 l 486 827 l 307 415 l 500 415 z "},"Æ":{"ha":836,"x_min":-102,"x_max":889,"o":"m 340 1013 l 889 1013 l 854 836 l 657 836 l 616 625 l 793 625 l 758 449 l 582 449 l 529 176 l 739 176 l 704 0 l 322 0 l 371 245 l 179 245 l 74 0 l -102 0 l 340 1013 m 401 406 l 486 836 l 432 836 l 248 406 l 401 406 z "},"B":{"ha":836,"x_min":-14,"x_max":799,"o":"m 183 1014 l 510 1014 q 726 958 652 1014 q 799 789 799 901 q 734 614 799 682 q 551 533 670 546 q 634 514 596 530 q 698 472 672 498 q 737 408 724 445 q 750 326 750 370 q 744 259 750 293 q 724 193 737 224 q 694 135 712 162 q 652 86 675 108 q 523 20 602 41 q 313 0 444 0 l -14 0 l 183 1014 m 433 619 q 557 656 516 619 q 588 700 577 674 q 599 762 599 726 q 592 805 599 789 q 570 833 585 822 q 479 854 540 854 l 346 854 l 300 619 l 433 619 m 345 160 q 500 205 451 160 q 538 263 526 229 q 550 340 550 298 q 541 397 550 376 q 514 432 532 418 q 403 460 478 460 l 269 460 l 211 160 l 345 160 z "},"C":{"ha":836,"x_min":71,"x_max":809,"o":"m 406 -20 q 266 3 331 -20 q 157 73 201 25 q 91 193 111 122 q 71 351 71 263 q 83 494 71 420 q 119 643 95 569 q 175 773 143 714 q 249 879 208 832 q 319 944 281 916 q 403 992 357 972 q 595 1031 491 1031 q 650 1028 623 1031 q 704 1019 677 1025 q 753 1004 726 1013 q 809 982 781 996 l 766 760 q 683 829 732 806 q 630 847 658 841 q 578 852 603 852 q 523 845 551 852 q 467 821 494 838 q 417 778 439 803 q 378 728 395 753 q 336 649 355 692 q 303 555 317 606 q 281 453 288 500 q 274 364 274 405 q 284 277 274 316 q 317 209 294 237 q 441 157 359 157 q 549 180 494 157 q 607 210 578 192 q 667 252 636 228 l 624 29 q 570 7 597 16 q 517 -7 543 -2 q 406 -20 463 -20 z "},"Ć":{"ha":836,"x_min":71,"x_max":854,"o":"m 663 1256 l 854 1256 l 637 1077 l 496 1077 l 663 1256 m 406 -20 q 266 3 331 -20 q 157 73 201 25 q 91 193 111 122 q 71 351 71 263 q 83 494 71 420 q 119 643 95 569 q 175 773 143 714 q 249 879 208 832 q 319 944 281 916 q 403 992 357 972 q 496 1021 448 1012 q 596 1031 545 1031 q 651 1028 625 1031 q 704 1019 677 1025 q 753 1004 726 1013 q 809 982 781 996 l 766 760 q 683 829 732 806 q 630 847 658 841 q 578 852 603 852 q 523 845 551 852 q 467 821 494 838 q 417 778 439 803 q 378 728 395 753 q 336 649 355 692 q 303 555 317 606 q 281 453 288 500 q 274 364 274 405 q 284 277 274 316 q 317 209 294 237 q 441 157 359 157 q 549 180 494 157 q 607 210 578 192 q 667 252 636 228 l 624 29 q 570 7 597 16 q 517 -7 543 -2 q 406 -20 463 -20 z "},"Č":{"ha":836,"x_min":71,"x_max":838,"o":"m 344 1257 l 459 1257 l 560 1147 l 715 1257 l 838 1257 l 673 1078 l 437 1078 l 344 1257 m 406 -20 q 266 3 331 -20 q 157 73 201 25 q 91 193 111 122 q 71 351 71 263 q 83 494 71 420 q 119 643 95 569 q 175 773 143 714 q 249 879 208 832 q 319 944 281 916 q 403 992 357 972 q 496 1021 448 1012 q 596 1031 545 1031 q 651 1028 625 1031 q 704 1019 677 1025 q 753 1004 726 1013 q 809 982 781 996 l 766 760 q 683 829 732 806 q 630 847 658 841 q 578 852 603 852 q 523 845 551 852 q 467 821 494 838 q 417 778 439 803 q 378 728 395 753 q 336 649 355 692 q 303 555 317 606 q 281 453 288 500 q 274 364 274 405 q 284 277 274 316 q 317 209 294 237 q 441 157 359 157 q 549 180 494 157 q 607 210 578 192 q 667 252 636 228 l 624 29 q 570 7 597 16 q 517 -7 543 -2 q 406 -20 463 -20 z "},"Ç":{"ha":836,"x_min":71,"x_max":809,"o":"m 704 1019 q 755 1004 728 1013 q 809 982 783 995 l 766 760 q 683 829 732 806 q 630 847 658 841 q 578 852 603 852 q 523 845 551 852 q 467 821 494 838 q 417 778 439 803 q 378 728 395 753 q 336 649 355 692 q 303 555 317 606 q 281 453 288 500 q 274 364 274 405 q 284 277 274 316 q 317 209 294 237 q 441 157 359 157 q 549 180 494 157 q 607 210 578 192 q 667 252 636 228 l 624 29 q 570 7 597 16 q 517 -7 543 -2 q 488 -13 503 -11 q 458 -17 473 -16 q 483 -64 473 -41 q 495 -125 495 -96 q 483 -185 495 -157 q 444 -232 470 -212 q 383 -262 419 -252 q 300 -272 347 -272 q 264 -271 283 -272 q 233 -268 246 -269 q 208 -264 218 -266 q 191 -260 198 -262 q 178 -257 183 -258 q 166 -254 172 -256 l 185 -149 q 214 -158 200 -154 q 242 -166 229 -163 q 294 -172 269 -172 q 335 -168 317 -172 q 365 -154 353 -163 q 389 -102 389 -136 q 380 -61 389 -83 q 372 -42 377 -53 q 360 -18 368 -31 q 247 10 298 -12 q 157 73 195 33 q 91 193 111 122 q 71 351 71 263 q 83 494 71 420 q 119 643 95 569 q 175 773 143 714 q 249 879 208 832 q 319 944 281 916 q 403 992 357 972 q 497 1021 448 1012 q 599 1031 547 1031 q 652 1028 627 1031 q 704 1019 677 1025 z "},"Ċ":{"ha":836,"x_min":72,"x_max":810,"o":"m 517 1090 q 502 1096 507 1090 q 499 1112 497 1102 l 524 1238 q 546 1257 527 1257 l 692 1257 q 707 1251 703 1257 q 710 1234 712 1244 l 685 1108 q 663 1090 682 1090 l 517 1090 m 404 -20 q 157 73 243 -20 q 72 354 72 165 q 84 499 72 426 q 120 642 97 573 q 176 771 143 711 q 250 879 209 832 q 403 992 315 954 q 594 1031 491 1031 q 704 1019 652 1031 q 810 982 757 1006 l 766 760 q 729 800 750 782 q 684 829 708 817 q 634 846 660 840 q 581 852 608 852 q 467 820 517 852 q 379 729 416 787 q 337 649 356 694 q 304 556 318 604 q 282 458 290 507 q 275 363 275 408 q 317 208 275 260 q 442 157 360 157 q 550 179 495 157 q 668 252 604 202 l 625 29 q 518 -7 572 5 q 404 -20 464 -20 z "},"D":{"ha":836,"x_min":-5,"x_max":790,"o":"m 192 1013 l 406 1013 q 573 992 500 1013 q 695 929 646 972 q 766 824 743 888 q 790 675 790 760 q 788 617 790 651 q 781 552 786 584 q 776 520 779 538 q 769 483 773 503 q 762 445 766 464 q 753 409 758 425 q 724 310 740 354 q 692 235 707 266 q 650 165 673 195 q 608 116 628 136 q 539 63 578 86 q 455 27 500 41 q 218 0 369 0 l -5 0 l 192 1013 m 294 180 q 422 210 370 180 q 470 248 451 226 q 504 300 489 271 q 535 377 520 332 q 562 471 551 422 q 578 569 573 522 q 583 651 583 616 q 573 734 583 701 q 541 789 562 767 q 411 832 498 832 l 355 832 l 229 180 l 294 180 z "},"Ð":{"ha":836,"x_min":9,"x_max":810,"o":"m 102 450 l 9 450 l 41 611 l 133 611 l 212 1013 l 426 1013 q 593 992 520 1013 q 715 929 667 972 q 787 824 763 888 q 810 675 810 760 q 808 617 810 651 q 802 552 806 584 q 797 520 800 538 q 790 483 793 503 q 782 445 786 464 q 774 409 778 426 q 744 310 760 354 q 713 235 728 266 q 671 164 692 193 q 629 116 649 136 q 557 62 596 84 q 475 27 518 41 q 371 6 429 13 q 239 0 313 0 l 15 0 l 102 450 m 315 180 q 443 210 391 180 q 490 248 471 226 q 524 300 509 271 q 556 377 541 332 q 582 471 571 422 q 598 569 593 522 q 604 651 604 616 q 593 734 604 701 q 562 789 583 767 q 431 832 519 832 l 376 832 l 333 611 l 476 611 l 446 450 l 302 450 l 250 180 l 315 180 z "},"Ď":{"ha":836,"x_min":-5,"x_max":790,"o":"m 260 1257 l 375 1257 l 476 1147 l 631 1257 l 754 1257 l 589 1078 l 353 1078 l 260 1257 m 192 1013 l 406 1013 q 695 929 600 1013 q 790 674 790 845 q 781 552 790 621 q 753 408 772 484 q 724 309 739 353 q 690 230 708 265 q 652 168 673 195 q 608 117 632 140 q 539 63 576 85 q 456 27 503 41 q 351 6 409 13 q 218 0 292 0 l -5 0 l 192 1013 m 294 180 q 422 210 372 180 q 504 300 473 239 q 534 374 520 331 q 559 466 549 418 q 577 561 570 513 q 583 648 583 608 q 542 788 583 743 q 411 832 501 832 l 355 832 l 229 180 l 294 180 z "},"Đ":{"ha":836,"x_min":-11,"x_max":790,"o":"m 82 450 l -11 450 l 21 611 l 113 611 l 192 1013 l 406 1013 q 695 929 600 1013 q 790 674 790 845 q 781 552 790 621 q 753 408 772 484 q 724 309 739 353 q 690 230 708 265 q 652 168 673 195 q 608 117 632 140 q 539 63 576 85 q 456 27 503 41 q 351 6 409 13 q 218 0 292 0 l -5 0 l 82 450 m 294 180 q 422 210 372 180 q 504 300 473 239 q 534 374 520 331 q 559 466 549 418 q 577 561 570 513 q 583 648 583 608 q 542 788 583 743 q 411 832 501 832 l 355 832 l 313 611 l 456 611 l 425 450 l 282 450 l 229 180 l 294 180 z "},"E":{"ha":836,"x_min":20,"x_max":847,"o":"m 215 1013 l 847 1013 l 812 836 l 382 836 l 339 618 l 729 618 l 696 441 l 306 441 l 254 176 l 685 176 l 650 0 l 20 0 l 215 1013 z "},"É":{"ha":836,"x_min":20,"x_max":847,"o":"m 610 1256 l 800 1256 l 583 1077 l 443 1077 l 610 1256 m 215 1013 l 847 1013 l 812 836 l 382 836 l 339 618 l 729 618 l 696 441 l 306 441 l 254 176 l 685 176 l 650 0 l 20 0 l 215 1013 z "},"Ě":{"ha":836,"x_min":20,"x_max":847,"o":"m 345 1256 l 460 1256 l 562 1146 l 717 1256 l 840 1256 l 674 1077 l 438 1077 l 345 1256 m 215 1013 l 847 1013 l 812 836 l 382 836 l 339 618 l 729 618 l 696 441 l 306 441 l 254 176 l 685 176 l 650 0 l 20 0 l 215 1013 z "},"Ê":{"ha":836,"x_min":20,"x_max":847,"o":"m 452 1257 l 688 1257 l 790 1078 l 675 1078 l 564 1187 l 408 1078 l 286 1078 l 452 1257 m 215 1013 l 847 1013 l 812 836 l 382 836 l 339 618 l 729 618 l 696 441 l 306 441 l 254 176 l 685 176 l 650 0 l 20 0 l 215 1013 z "},"Ë":{"ha":836,"x_min":20,"x_max":847,"o":"m 349 1090 q 330 1106 330 1090 q 331 1112 330 1110 l 357 1238 q 378 1257 361 1257 l 497 1257 q 515 1240 515 1257 q 515 1234 515 1236 l 490 1108 q 468 1090 486 1090 l 349 1090 m 617 1090 q 599 1106 599 1090 q 600 1112 599 1110 l 625 1238 q 646 1257 627 1257 l 765 1257 q 780 1251 775 1257 q 783 1234 785 1244 l 759 1108 q 737 1090 755 1090 l 617 1090 m 215 1013 l 847 1013 l 812 836 l 382 836 l 339 618 l 729 618 l 696 441 l 306 441 l 254 176 l 685 176 l 650 0 l 20 0 l 215 1013 z "},"Ė":{"ha":836,"x_min":20,"x_max":847,"o":"m 481 1089 q 465 1095 470 1089 q 463 1112 460 1101 l 488 1238 q 509 1256 490 1256 l 655 1256 q 671 1250 666 1256 q 673 1234 675 1244 l 648 1107 q 627 1089 645 1089 l 481 1089 m 215 1013 l 847 1013 l 812 836 l 382 836 l 339 618 l 729 618 l 696 441 l 306 441 l 254 176 l 685 176 l 650 0 l 20 0 l 215 1013 z "},"È":{"ha":836,"x_min":20,"x_max":847,"o":"m 357 1257 l 536 1257 l 633 1078 l 513 1078 l 357 1257 m 215 1013 l 847 1013 l 812 836 l 382 836 l 339 618 l 729 618 l 696 441 l 306 441 l 254 176 l 685 176 l 650 0 l 20 0 l 215 1013 z "},"Ē":{"ha":836,"x_min":20,"x_max":847,"o":"m 366 1255 l 794 1255 l 770 1127 l 342 1127 l 366 1255 m 215 1013 l 847 1013 l 812 836 l 382 836 l 339 618 l 729 618 l 696 441 l 306 441 l 254 176 l 685 176 l 650 0 l 20 0 l 215 1013 z "},"Ę":{"ha":836,"x_min":20,"x_max":847,"o":"m 382 836 l 339 618 l 729 618 l 696 441 l 306 441 l 254 176 l 685 176 l 650 0 l 562 0 q 494 -79 511 -54 q 482 -103 486 -92 q 478 -123 478 -113 q 494 -158 478 -143 q 546 -172 511 -172 q 592 -168 564 -172 q 652 -151 620 -163 l 631 -257 q 566 -268 597 -264 q 509 -272 535 -272 q 400 -247 439 -272 q 360 -173 360 -221 q 386 -92 360 -136 q 466 0 411 -48 l 20 0 l 215 1013 l 847 1013 l 812 836 l 382 836 z "},"F":{"ha":836,"x_min":32,"x_max":860,"o":"m 229 1013 l 860 1013 l 825 836 l 395 836 l 353 611 l 745 611 l 710 435 l 318 435 l 232 0 l 32 0 l 229 1013 z "},"G":{"ha":836,"x_min":69,"x_max":808,"o":"m 414 -20 q 265 6 328 -20 q 159 78 202 32 q 91 201 112 130 q 69 358 69 272 q 81 497 69 423 q 118 644 93 570 q 173 768 140 707 q 249 878 205 828 q 318 942 279 912 q 404 992 356 971 q 594 1031 492 1031 q 649 1028 623 1031 q 703 1019 676 1025 q 753 1004 725 1013 q 808 982 781 996 l 764 760 q 682 829 729 805 q 581 852 635 852 q 532 847 555 852 q 489 833 509 842 q 449 809 469 823 q 410 774 430 795 q 382 739 395 757 q 359 699 370 720 q 338 656 348 680 q 318 604 328 633 q 299 540 308 574 q 285 476 290 507 q 273 361 273 412 q 286 269 273 306 q 317 210 298 232 q 371 169 340 181 q 439 157 403 157 q 463 158 452 157 q 485 163 473 159 q 503 168 493 165 q 522 179 512 172 l 561 376 l 421 376 l 454 545 l 766 545 l 672 64 q 558 2 623 23 q 414 -20 491 -20 z "},"Ğ":{"ha":836,"x_min":69,"x_max":808,"o":"m 547 1077 q 464 1088 498 1077 q 404 1123 429 1100 q 353 1253 353 1169 l 353 1256 l 450 1256 q 485 1197 457 1215 q 564 1178 513 1178 q 612 1183 591 1178 q 650 1199 632 1188 q 702 1256 687 1221 l 806 1256 q 712 1123 779 1168 q 547 1077 644 1077 m 414 -20 q 265 6 328 -20 q 159 78 202 32 q 91 201 112 130 q 69 358 69 272 q 81 497 69 423 q 118 644 93 570 q 173 768 140 707 q 249 878 205 828 q 318 942 279 912 q 404 992 356 971 q 594 1031 492 1031 q 649 1028 623 1031 q 703 1019 676 1025 q 753 1004 725 1013 q 808 982 781 996 l 764 760 q 682 829 729 805 q 581 852 635 852 q 532 847 555 852 q 489 833 509 842 q 449 809 469 823 q 410 774 430 795 q 382 739 395 757 q 359 699 370 720 q 338 656 348 680 q 318 604 328 633 q 299 540 308 574 q 285 476 290 507 q 273 361 273 412 q 286 269 273 306 q 317 210 298 232 q 371 169 340 181 q 439 157 403 157 q 463 158 452 157 q 485 163 473 159 q 503 168 493 165 q 522 179 512 172 l 561 376 l 421 376 l 454 545 l 766 545 l 672 64 q 558 2 623 23 q 414 -20 491 -20 z "},"Ǧ":{"ha":836,"x_min":69,"x_max":837,"o":"m 342 1257 l 458 1257 l 559 1147 l 714 1257 l 837 1257 l 671 1078 l 435 1078 l 342 1257 m 414 -20 q 268 5 332 -20 q 159 78 203 30 q 92 197 115 126 q 69 361 69 269 q 82 503 69 431 q 118 642 94 574 q 174 770 141 709 q 249 878 208 831 q 404 992 316 954 q 593 1031 491 1031 q 703 1019 650 1031 q 808 982 755 1006 l 764 760 q 682 829 729 805 q 581 852 635 852 q 490 833 534 852 q 410 774 446 814 q 358 698 380 741 q 318 604 336 655 q 300 544 308 575 q 286 480 292 512 q 277 419 280 449 q 273 361 273 389 q 316 210 273 262 q 437 157 359 157 q 522 179 488 157 l 561 376 l 421 376 l 454 545 l 766 545 l 672 64 q 558 2 625 23 q 414 -20 492 -20 z "},"Ģ":{"ha":836,"x_min":69,"x_max":808,"o":"m 414 -20 q 268 5 332 -20 q 159 78 203 30 q 92 197 115 126 q 69 361 69 269 q 82 503 69 431 q 118 642 94 574 q 174 770 141 709 q 249 878 208 831 q 404 992 316 954 q 593 1031 491 1031 q 703 1019 650 1031 q 808 982 755 1006 l 764 760 q 682 829 729 805 q 581 852 635 852 q 490 833 534 852 q 410 774 446 814 q 358 698 380 741 q 318 604 336 655 q 300 544 308 575 q 286 480 292 512 q 277 419 280 449 q 273 361 273 389 q 316 210 273 262 q 437 157 359 157 q 522 179 488 157 l 561 376 l 421 376 l 454 545 l 766 545 l 672 64 q 558 2 625 23 q 414 -20 492 -20 m 332 -127 l 524 -127 l 363 -334 l 232 -334 l 332 -127 z "},"Ġ":{"ha":836,"x_min":69,"x_max":808,"o":"m 500 1090 q 485 1096 490 1090 q 482 1112 480 1102 l 507 1238 q 529 1257 510 1257 l 675 1257 q 690 1251 686 1257 q 693 1234 695 1244 l 668 1108 q 646 1090 665 1090 l 500 1090 m 414 -20 q 268 5 332 -20 q 159 78 203 30 q 92 197 115 126 q 69 361 69 269 q 82 503 69 431 q 118 642 94 574 q 174 770 141 709 q 249 878 208 831 q 404 992 316 954 q 593 1031 491 1031 q 703 1019 650 1031 q 808 982 755 1006 l 764 760 q 682 829 729 805 q 581 852 635 852 q 490 833 534 852 q 410 774 446 814 q 358 698 380 741 q 318 604 336 655 q 300 544 308 575 q 286 480 292 512 q 277 419 280 449 q 273 361 273 389 q 316 210 273 262 q 437 157 359 157 q 522 179 488 157 l 561 376 l 421 376 l 454 545 l 766 545 l 672 64 q 558 2 625 23 q 414 -20 492 -20 z "},"H":{"ha":836,"x_min":-5,"x_max":842,"o":"m 192 1013 l 392 1013 l 317 627 l 567 627 l 642 1013 l 842 1013 l 644 0 l 444 0 l 532 450 l 282 450 l 195 0 l -5 0 l 192 1013 z "},"Ħ":{"ha":836,"x_min":-5,"x_max":903,"o":"m 140 749 l 50 749 l 71 861 l 162 861 l 191 1013 l 391 1013 l 362 861 l 612 861 l 642 1013 l 841 1013 l 812 861 l 903 861 l 882 749 l 790 749 l 644 0 l 445 0 l 532 450 l 282 450 l 195 0 l -5 0 l 140 749 m 567 627 l 591 749 l 340 749 l 317 627 l 567 627 z "},"I":{"ha":836,"x_min":18,"x_max":818,"o":"m 53 176 l 254 176 l 382 836 l 180 836 l 215 1013 l 818 1013 l 783 836 l 582 836 l 454 176 l 656 176 l 621 0 l 18 0 l 53 176 z "},"Í":{"ha":836,"x_min":18,"x_max":818,"o":"m 582 1257 l 772 1257 l 555 1078 l 415 1078 l 582 1257 m 53 176 l 254 176 l 382 836 l 180 836 l 215 1013 l 818 1013 l 783 836 l 582 836 l 454 176 l 656 176 l 621 0 l 18 0 l 53 176 z "},"Î":{"ha":836,"x_min":18,"x_max":818,"o":"m 437 1257 l 673 1257 l 776 1078 l 661 1078 l 550 1187 l 394 1078 l 272 1078 l 437 1257 m 53 176 l 254 176 l 382 836 l 180 836 l 215 1013 l 818 1013 l 783 836 l 582 836 l 454 176 l 656 176 l 621 0 l 18 0 l 53 176 z "},"Ï":{"ha":836,"x_min":18,"x_max":818,"o":"m 334 1089 q 316 1105 316 1089 q 317 1112 316 1109 l 342 1238 q 364 1256 347 1256 l 483 1256 q 501 1240 501 1256 q 500 1234 501 1236 l 475 1107 q 454 1089 472 1089 l 334 1089 m 603 1089 q 585 1105 585 1089 q 585 1112 585 1109 l 610 1238 q 632 1256 613 1256 l 751 1256 q 766 1250 761 1256 q 769 1234 771 1244 l 745 1107 q 723 1089 741 1089 l 603 1089 m 53 176 l 254 176 l 382 836 l 180 836 l 215 1013 l 818 1013 l 783 836 l 582 836 l 454 176 l 656 176 l 621 0 l 18 0 l 53 176 z "},"İ":{"ha":836,"x_min":18,"x_max":818,"o":"m 457 1090 q 442 1096 447 1090 q 439 1112 437 1102 l 463 1238 q 485 1257 466 1257 l 630 1257 q 645 1251 640 1257 q 648 1234 650 1244 l 624 1108 q 602 1090 621 1090 l 457 1090 m 53 176 l 254 176 l 382 836 l 180 836 l 215 1013 l 818 1013 l 783 836 l 582 836 l 454 176 l 656 176 l 621 0 l 18 0 l 53 176 z "},"Ì":{"ha":836,"x_min":18,"x_max":818,"o":"m 336 1257 l 515 1257 l 612 1078 l 492 1078 l 336 1257 m 53 176 l 254 176 l 382 836 l 180 836 l 215 1013 l 818 1013 l 783 836 l 582 836 l 454 176 l 656 176 l 621 0 l 18 0 l 53 176 z "},"Ī":{"ha":836,"x_min":18,"x_max":818,"o":"m 352 1255 l 780 1255 l 755 1127 l 328 1127 l 352 1255 m 53 176 l 254 176 l 382 836 l 180 836 l 215 1013 l 818 1013 l 783 836 l 582 836 l 454 176 l 656 176 l 621 0 l 18 0 l 53 176 z "},"Į":{"ha":836,"x_min":18,"x_max":818,"o":"m 582 836 l 454 176 l 656 176 l 621 0 l 419 0 q 352 -79 368 -54 q 340 -103 344 -92 q 336 -123 336 -113 q 352 -158 336 -143 q 404 -172 368 -172 q 450 -168 422 -172 q 509 -151 477 -163 l 488 -257 q 424 -268 455 -264 q 367 -272 393 -272 q 257 -247 297 -272 q 218 -173 218 -221 q 243 -92 218 -136 q 323 0 269 -48 l 18 0 l 53 176 l 254 176 l 382 836 l 180 836 l 215 1013 l 818 1013 l 783 836 l 582 836 z "},"Ĩ":{"ha":836,"x_min":18,"x_max":818,"o":"m 290 1077 q 352 1211 307 1165 q 461 1257 397 1257 q 509 1249 487 1257 q 554 1223 530 1241 l 590 1195 q 637 1177 612 1177 q 680 1197 663 1177 q 705 1257 698 1218 l 798 1257 q 738 1125 781 1173 q 627 1077 695 1077 q 582 1084 604 1077 q 534 1112 560 1092 l 501 1137 q 473 1154 484 1149 q 452 1158 462 1158 q 408 1138 426 1158 q 383 1077 391 1117 l 290 1077 m 53 176 l 254 176 l 382 836 l 180 836 l 215 1013 l 818 1013 l 783 836 l 582 836 l 454 176 l 656 176 l 621 0 l 18 0 l 53 176 z "},"J":{"ha":836,"x_min":-14,"x_max":782,"o":"m 279 -20 q 203 -15 241 -20 q 130 -2 165 -11 q 62 19 99 5 q -14 53 25 33 l 31 286 q 144 189 83 221 q 275 157 203 157 q 390 193 351 157 q 424 243 410 212 q 447 325 437 275 l 547 836 l 302 836 l 338 1013 l 782 1013 l 647 325 q 623 223 635 265 q 597 151 610 180 q 565 99 583 123 q 524 56 547 75 q 473 22 500 36 q 416 -1 446 9 q 351 -15 385 -10 q 279 -20 316 -20 z "},"K":{"ha":836,"x_min":-12,"x_max":928,"o":"m 183 1013 l 383 1013 l 310 635 l 692 1013 l 928 1013 l 517 603 l 746 0 l 541 0 l 368 454 l 252 339 l 187 0 l -12 0 l 183 1013 z "},"Ķ":{"ha":836,"x_min":-12,"x_max":928,"o":"m 183 1013 l 383 1013 l 310 635 l 692 1013 l 928 1013 l 517 603 l 746 0 l 541 0 l 368 454 l 252 339 l 187 0 l -12 0 l 183 1013 m 286 -107 l 477 -107 l 317 -315 l 185 -315 l 286 -107 z "},"L":{"ha":836,"x_min":54,"x_max":717,"o":"m 252 1013 l 452 1013 l 289 176 l 717 176 l 682 0 l 54 0 l 252 1013 z "},"Ĺ":{"ha":836,"x_min":54,"x_max":772,"o":"m 582 1257 l 772 1257 l 555 1078 l 415 1078 l 582 1257 m 252 1013 l 452 1013 l 289 176 l 717 176 l 682 0 l 54 0 l 252 1013 z "},"Ľ":{"ha":836,"x_min":54,"x_max":833,"o":"m 252 1013 l 452 1013 l 289 176 l 717 176 l 682 0 l 54 0 l 252 1013 m 616 1012 l 833 1012 l 659 757 l 526 757 l 616 1012 z "},"Ļ":{"ha":836,"x_min":54,"x_max":717,"o":"m 252 1013 l 452 1013 l 289 176 l 717 176 l 682 0 l 54 0 l 252 1013 m 287 -107 l 478 -107 l 318 -315 l 186 -315 l 287 -107 z "},"Ł":{"ha":836,"x_min":-47,"x_max":717,"o":"m 119 340 l 31 273 l -47 378 l 155 521 l 252 1013 l 452 1013 l 387 686 l 557 804 l 635 700 l 351 500 l 289 176 l 717 176 l 682 0 l 54 0 l 119 340 z "},"M":{"ha":836,"x_min":-39,"x_max":875,"o":"m 157 1013 l 396 1013 l 429 568 l 631 1013 l 875 1013 l 679 0 l 507 0 l 668 812 l 469 368 l 321 368 l 289 812 l 132 0 l -39 0 l 157 1013 z "},"N":{"ha":836,"x_min":-17,"x_max":851,"o":"m 180 1013 l 386 1013 l 532 277 l 675 1013 l 851 1013 l 656 0 l 457 0 l 304 736 l 161 0 l -17 0 l 180 1013 z "},"Ń":{"ha":836,"x_min":-17,"x_max":851,"o":"m 602 1257 l 792 1257 l 575 1078 l 435 1078 l 602 1257 m 180 1013 l 386 1013 l 532 277 l 675 1013 l 851 1013 l 656 0 l 457 0 l 304 736 l 161 0 l -17 0 l 180 1013 z "},"Ň":{"ha":836,"x_min":-17,"x_max":851,"o":"m 330 1256 l 446 1256 l 547 1146 l 702 1256 l 825 1256 l 659 1077 l 423 1077 l 330 1256 m 180 1013 l 386 1013 l 532 277 l 675 1013 l 851 1013 l 656 0 l 457 0 l 304 736 l 161 0 l -17 0 l 180 1013 z "},"Ņ":{"ha":836,"x_min":-17,"x_max":851,"o":"m 180 1013 l 386 1013 l 532 277 l 675 1013 l 851 1013 l 656 0 l 457 0 l 304 736 l 161 0 l -17 0 l 180 1013 m 238 -107 l 429 -107 l 269 -315 l 138 -315 l 238 -107 z "},"Ŋ":{"ha":836,"x_min":-14,"x_max":819,"o":"m 303 -135 l 328 -135 q 387 -126 362 -135 q 431 -98 412 -117 q 462 -46 449 -78 q 484 30 475 -15 l 612 688 q 617 722 615 706 q 618 751 618 738 q 592 827 618 803 q 514 851 566 851 q 441 838 474 851 q 382 799 408 824 q 340 739 357 774 q 314 659 323 703 l 186 0 l -14 0 l 183 1013 l 363 1013 l 351 850 q 463 985 394 937 q 621 1032 532 1032 q 768 973 718 1032 q 819 795 819 914 q 814 722 819 761 q 802 639 810 683 l 685 39 q 640 -114 667 -51 q 573 -215 613 -176 q 479 -272 533 -254 q 355 -289 426 -289 l 273 -289 l 303 -135 z "},"Ñ":{"ha":836,"x_min":-17,"x_max":851,"o":"m 307 1077 q 368 1211 324 1164 q 417 1245 390 1234 q 477 1257 444 1257 q 525 1249 503 1257 q 546 1239 534 1246 q 570 1223 557 1233 l 606 1195 q 629 1181 615 1187 q 652 1177 641 1177 q 696 1198 680 1177 q 722 1257 715 1219 l 814 1257 q 753 1124 798 1171 q 645 1077 709 1077 q 620 1079 631 1077 q 598 1084 609 1081 q 577 1094 587 1088 q 551 1112 567 1099 l 517 1137 q 502 1148 507 1145 q 489 1154 498 1151 q 477 1158 482 1157 q 468 1158 472 1158 q 443 1152 454 1158 q 425 1137 432 1146 q 408 1106 414 1124 q 399 1077 401 1088 l 307 1077 m 180 1013 l 386 1013 l 532 277 l 675 1013 l 851 1013 l 656 0 l 457 0 l 304 736 l 161 0 l -17 0 l 180 1013 z "},"O":{"ha":836,"x_min":41,"x_max":794,"o":"m 339 -20 q 213 1 270 -20 q 117 66 157 22 q 59 175 77 111 q 41 323 41 239 q 50 451 41 382 q 75 590 58 520 q 116 724 93 664 q 167 833 140 785 q 223 913 191 876 q 303 980 256 951 q 396 1019 347 1006 q 496 1031 446 1031 q 623 1010 566 1031 q 718 946 679 989 q 778 832 761 899 q 794 688 794 766 q 786 563 794 631 q 761 422 779 496 q 723 293 745 355 q 670 179 701 232 q 609 93 642 129 q 533 31 576 57 q 441 -7 490 5 q 339 -20 392 -20 m 356 158 q 431 182 397 158 q 461 212 447 194 q 489 253 476 229 q 505 288 498 269 q 520 328 513 306 q 535 374 529 353 q 549 427 541 396 q 566 505 559 470 q 578 574 573 541 q 589 692 589 641 q 562 814 589 774 q 480 854 534 854 q 438 848 457 854 q 406 831 420 841 q 374 801 389 819 q 347 760 359 783 q 331 726 338 743 q 318 690 325 709 q 310 664 313 675 q 302 640 306 652 q 296 615 299 629 q 288 583 292 602 q 271 510 279 548 q 258 438 263 473 q 248 319 248 370 q 275 198 248 237 q 310 168 289 177 q 356 158 330 158 z "},"Ó":{"ha":836,"x_min":41,"x_max":794,"o":"m 591 1256 l 782 1256 l 565 1077 l 425 1077 l 591 1256 m 339 -20 q 213 1 270 -20 q 117 66 157 22 q 59 175 77 111 q 41 323 41 239 q 50 451 41 382 q 75 590 58 520 q 117 725 93 664 q 167 833 140 786 q 223 913 191 876 q 303 980 256 951 q 396 1019 347 1006 q 496 1031 446 1031 q 623 1010 566 1031 q 718 946 679 989 q 778 832 761 899 q 794 688 794 766 q 786 563 794 631 q 761 422 779 496 q 723 293 745 355 q 670 179 701 232 q 609 93 642 129 q 533 31 576 57 q 441 -7 490 5 q 339 -20 392 -20 m 356 158 q 431 182 397 158 q 461 212 447 194 q 489 253 476 229 q 505 288 498 269 q 520 328 513 306 q 535 376 530 354 q 549 427 541 398 q 566 503 558 466 q 578 574 573 541 q 589 692 589 641 q 562 814 589 774 q 480 854 534 854 q 438 848 457 854 q 406 831 420 841 q 374 801 389 819 q 347 760 359 783 q 331 726 338 743 q 318 690 325 709 q 310 664 313 675 q 302 640 306 652 q 296 615 299 629 q 288 583 292 602 q 271 509 278 544 q 258 438 263 475 q 248 319 248 370 q 275 198 248 237 q 310 168 289 177 q 356 158 330 158 z "},"Ô":{"ha":836,"x_min":41,"x_max":794,"o":"m 427 1256 l 663 1256 l 765 1077 l 650 1077 l 539 1186 l 383 1077 l 261 1077 l 427 1256 m 339 -20 q 213 1 270 -20 q 117 66 157 22 q 59 175 77 111 q 41 323 41 239 q 50 451 41 382 q 75 590 58 520 q 117 725 93 664 q 167 833 140 786 q 223 913 191 876 q 303 980 256 951 q 396 1019 347 1006 q 496 1031 446 1031 q 623 1010 566 1031 q 718 946 679 989 q 778 832 761 899 q 794 688 794 766 q 786 563 794 631 q 761 422 779 496 q 723 293 745 355 q 670 179 701 232 q 609 93 642 129 q 533 31 576 57 q 441 -7 490 5 q 339 -20 392 -20 m 356 158 q 431 182 397 158 q 461 212 447 194 q 489 253 476 229 q 505 288 498 269 q 520 328 513 306 q 535 376 530 354 q 549 427 541 398 q 566 503 558 466 q 578 574 573 541 q 589 692 589 641 q 562 814 589 774 q 480 854 534 854 q 438 848 457 854 q 406 831 420 841 q 374 801 389 819 q 347 760 359 783 q 331 726 338 743 q 318 690 325 709 q 310 664 313 675 q 302 640 306 652 q 296 615 299 629 q 288 583 292 602 q 271 509 278 544 q 258 438 263 475 q 248 319 248 370 q 275 198 248 237 q 310 168 289 177 q 356 158 330 158 z "},"Ö":{"ha":836,"x_min":41,"x_max":794,"o":"m 330 1089 q 312 1107 312 1089 q 312 1110 312 1109 q 313 1112 313 1110 l 338 1238 q 360 1256 342 1256 l 479 1256 q 497 1238 497 1256 q 497 1235 497 1236 q 496 1234 496 1235 l 471 1107 q 450 1089 468 1089 l 330 1089 m 599 1089 q 581 1107 581 1089 q 581 1110 581 1109 q 581 1112 581 1110 l 606 1238 q 628 1256 609 1256 l 747 1256 q 762 1250 757 1256 q 765 1234 767 1244 l 741 1107 q 719 1089 737 1089 l 599 1089 m 339 -20 q 213 1 270 -20 q 117 66 157 22 q 59 175 77 111 q 41 323 41 239 q 50 451 41 382 q 75 590 58 520 q 117 725 93 664 q 167 833 140 786 q 223 913 191 876 q 303 980 256 951 q 396 1019 347 1006 q 496 1031 446 1031 q 623 1010 566 1031 q 718 946 679 989 q 778 832 761 899 q 794 688 794 766 q 786 563 794 631 q 761 422 779 496 q 723 293 745 355 q 670 179 701 232 q 609 93 642 129 q 533 31 576 57 q 441 -7 490 5 q 339 -20 392 -20 m 356 158 q 431 182 397 158 q 461 212 447 194 q 489 253 476 229 q 505 288 498 269 q 520 328 513 306 q 535 376 530 354 q 549 427 541 398 q 566 503 558 466 q 578 574 573 541 q 589 692 589 641 q 562 814 589 774 q 480 854 534 854 q 438 848 457 854 q 406 831 420 841 q 374 801 389 819 q 347 760 359 783 q 331 726 338 743 q 318 690 325 709 q 310 664 313 675 q 302 640 306 652 q 296 615 299 629 q 288 583 292 602 q 271 509 278 544 q 258 438 263 475 q 248 319 248 370 q 275 198 248 237 q 310 168 289 177 q 356 158 330 158 z "},"Ò":{"ha":836,"x_min":41,"x_max":794,"o":"m 346 1256 l 525 1256 l 622 1077 l 501 1077 l 346 1256 m 339 -20 q 213 1 270 -20 q 117 66 157 22 q 59 175 77 111 q 41 323 41 239 q 50 451 41 382 q 75 590 58 520 q 117 725 93 664 q 167 833 140 786 q 223 913 191 876 q 303 980 256 951 q 396 1019 347 1006 q 496 1031 446 1031 q 623 1010 566 1031 q 718 946 679 989 q 778 832 761 899 q 794 688 794 766 q 786 563 794 631 q 761 422 779 496 q 723 293 745 355 q 670 179 701 232 q 609 93 642 129 q 533 31 576 57 q 441 -7 490 5 q 339 -20 392 -20 m 356 158 q 431 182 397 158 q 461 212 447 194 q 489 253 476 229 q 505 288 498 269 q 520 328 513 306 q 535 376 530 354 q 549 427 541 398 q 566 503 558 466 q 578 574 573 541 q 589 692 589 641 q 562 814 589 774 q 480 854 534 854 q 438 848 457 854 q 406 831 420 841 q 374 801 389 819 q 347 760 359 783 q 331 726 338 743 q 318 690 325 709 q 310 664 313 675 q 302 640 306 652 q 296 615 299 629 q 288 583 292 602 q 271 509 278 544 q 258 438 263 475 q 248 319 248 370 q 275 198 248 237 q 310 168 289 177 q 356 158 330 158 z "},"Ơ":{"ha":836,"x_min":6,"x_max":941,"o":"m 941 1055 q 939 986 941 1017 q 931 926 937 954 q 877 806 916 848 q 779 764 838 764 q 754 766 766 764 q 758 727 757 747 q 759 686 759 707 q 750 561 759 628 q 726 425 742 493 q 687 294 710 357 q 635 179 665 230 q 497 31 580 81 q 302 -20 414 -20 q 82 66 158 -20 q 6 327 6 153 q 16 459 6 389 q 42 596 25 528 q 81 725 58 663 q 132 833 104 787 q 269 981 187 931 q 463 1031 351 1031 q 620 996 555 1031 q 719 890 684 962 l 722 888 q 762 876 744 876 q 806 893 785 876 q 836 949 827 910 q 840 976 838 961 q 841 1002 841 990 q 836 1055 841 1025 l 941 1055 m 514 427 q 530 497 522 461 q 542 567 537 532 q 550 635 547 602 q 553 694 553 667 q 443 854 553 854 q 368 830 399 854 q 313 759 338 806 q 282 687 298 730 q 251 584 267 645 q 233 503 241 543 q 221 427 226 463 q 215 361 217 391 q 212 311 212 331 q 239 198 212 238 q 323 158 267 158 q 396 182 366 158 q 452 253 427 206 q 485 327 469 284 q 514 427 500 370 z "},"Ő":{"ha":836,"x_min":41,"x_max":913,"o":"m 466 1256 l 659 1256 l 430 1077 l 296 1077 l 466 1256 m 720 1256 l 913 1256 l 684 1077 l 551 1077 l 720 1256 m 337 -20 q 117 66 193 -20 q 41 327 41 153 q 51 459 41 389 q 77 596 60 528 q 117 725 94 663 q 167 833 140 787 q 304 981 222 931 q 498 1031 387 1031 q 718 945 642 1031 q 794 686 794 860 q 786 561 794 628 q 761 425 777 493 q 723 294 745 357 q 671 179 700 230 q 532 31 615 81 q 337 -20 450 -20 m 358 158 q 432 182 401 158 q 488 253 463 206 q 520 327 505 284 q 549 427 535 370 q 565 497 557 461 q 577 567 572 532 q 586 635 583 602 q 589 694 589 667 q 478 854 589 854 q 404 830 434 854 q 349 759 373 806 q 317 687 333 730 q 286 584 302 645 q 269 503 276 543 q 257 427 261 463 q 250 361 252 391 q 248 311 248 331 q 275 198 248 238 q 358 158 302 158 z "},"Ō":{"ha":836,"x_min":41,"x_max":794,"o":"m 345 1255 l 773 1255 l 749 1127 l 321 1127 l 345 1255 m 337 -20 q 117 66 193 -20 q 41 327 41 153 q 51 459 41 389 q 77 596 60 528 q 117 725 94 663 q 167 833 140 787 q 304 981 222 931 q 498 1031 387 1031 q 718 945 642 1031 q 794 686 794 860 q 786 561 794 628 q 761 425 777 493 q 723 294 745 357 q 671 179 700 230 q 532 31 615 81 q 337 -20 450 -20 m 358 158 q 432 182 401 158 q 488 253 463 206 q 520 327 505 284 q 549 427 535 370 q 565 497 557 461 q 577 567 572 532 q 586 635 583 602 q 589 694 589 667 q 478 854 589 854 q 404 830 434 854 q 349 759 373 806 q 317 687 333 730 q 286 584 302 645 q 269 503 276 543 q 257 427 261 463 q 250 361 252 391 q 248 311 248 331 q 275 198 248 238 q 358 158 302 158 z "},"Ø":{"ha":836,"x_min":-96,"x_max":920,"o":"m -96 35 l 53 200 q 48 225 50 214 q 45 248 46 236 q 42 273 43 261 q 41 308 41 286 q 50 444 41 372 q 75 587 58 515 q 113 718 90 654 q 165 832 136 781 q 226 917 192 879 q 303 980 260 954 q 396 1018 347 1006 q 496 1031 446 1031 q 623 1008 567 1031 q 721 942 679 986 l 825 1057 l 920 979 l 781 825 q 787 787 785 804 q 791 755 789 770 q 793 724 792 738 q 794 693 794 711 q 793 650 794 675 q 789 602 792 625 q 787 579 788 592 q 783 553 785 567 q 779 525 781 539 q 775 500 777 511 q 767 456 772 479 q 756 410 762 433 q 745 366 751 387 q 732 326 739 344 q 706 253 721 290 q 671 180 690 216 q 607 92 642 130 q 533 31 572 55 q 441 -7 490 5 q 339 -20 392 -20 q 206 5 264 -20 q 109 79 146 31 l 0 -43 l -96 35 m 578 782 q 562 814 572 800 q 541 836 552 828 q 511 850 527 846 q 479 854 494 854 q 402 828 435 854 q 346 755 370 802 q 298 627 320 706 q 257 427 276 547 l 578 782 m 356 158 q 494 262 442 158 q 542 400 520 313 q 582 603 564 486 l 254 240 q 293 179 267 199 q 320 164 305 170 q 356 158 335 158 z "},"Ǿ":{"ha":836,"x_min":-96,"x_max":920,"o":"m 585 1257 l 775 1257 l 558 1078 l 418 1078 l 585 1257 m -96 35 l 53 200 q 47 227 50 214 q 44 252 45 239 q 42 278 43 264 q 41 307 41 292 q 50 447 41 375 q 75 589 59 519 q 115 721 92 658 q 165 832 138 783 q 303 980 220 929 q 496 1031 386 1031 q 721 942 638 1031 l 825 1057 l 920 979 l 781 825 q 791 754 787 787 q 794 690 794 722 q 793 646 794 670 q 789 597 791 622 q 783 547 786 572 q 776 500 780 522 q 730 319 759 401 q 669 180 702 237 q 529 28 610 76 q 342 -20 447 -20 q 207 5 265 -20 q 109 79 149 29 l 0 -43 l -96 35 m 578 782 q 540 836 566 817 q 479 854 515 854 q 403 828 436 854 q 346 755 370 802 q 297 620 319 703 q 257 427 275 536 l 578 782 m 357 158 q 432 183 397 158 q 494 262 467 208 q 582 603 546 364 l 254 240 q 357 158 279 158 z "},"Õ":{"ha":836,"x_min":41,"x_max":794,"o":"m 286 1078 q 348 1211 304 1165 q 396 1246 370 1234 q 456 1258 423 1258 q 505 1250 482 1258 q 525 1240 514 1246 q 550 1223 536 1234 l 586 1196 q 609 1182 595 1187 q 632 1177 621 1177 q 676 1198 659 1177 q 701 1258 694 1220 l 794 1258 q 732 1124 777 1172 q 625 1078 688 1078 q 600 1080 611 1078 q 578 1085 589 1082 q 557 1094 567 1088 q 530 1112 547 1100 l 497 1137 q 482 1148 486 1145 q 469 1155 477 1152 q 457 1158 462 1158 q 448 1159 452 1159 q 422 1153 433 1159 q 404 1138 412 1147 q 387 1107 393 1125 q 379 1078 381 1089 l 286 1078 m 339 -20 q 213 1 270 -20 q 117 66 157 22 q 59 175 77 111 q 41 323 41 239 q 50 451 41 382 q 75 590 58 520 q 117 725 93 664 q 167 833 140 786 q 223 913 191 876 q 303 980 256 951 q 396 1019 347 1006 q 496 1031 446 1031 q 623 1010 566 1031 q 718 946 679 989 q 778 832 761 899 q 794 688 794 766 q 786 563 794 631 q 761 422 779 496 q 723 293 745 355 q 670 179 701 232 q 609 93 642 129 q 533 31 576 57 q 441 -7 490 5 q 339 -20 392 -20 m 356 158 q 431 182 397 158 q 461 212 447 194 q 489 253 476 229 q 505 288 498 269 q 520 328 513 306 q 535 376 530 354 q 549 427 541 398 q 566 503 558 466 q 578 574 573 541 q 589 692 589 641 q 562 814 589 774 q 480 854 534 854 q 438 848 457 854 q 406 831 420 841 q 374 801 389 819 q 347 760 359 783 q 331 726 338 743 q 318 690 325 709 q 310 664 313 675 q 302 640 306 652 q 296 615 299 629 q 288 583 292 602 q 271 509 278 544 q 258 438 263 475 q 248 319 248 370 q 275 198 248 237 q 310 168 289 177 q 356 158 330 158 z "},"Œ":{"ha":836,"x_min":7,"x_max":903,"o":"m 321 0 q 173 16 231 0 q 79 62 115 32 q 25 143 43 92 q 7 273 7 193 q 13 372 7 317 q 31 491 19 427 q 58 618 42 555 q 94 734 75 681 q 148 855 117 802 q 227 946 178 908 q 322 997 270 981 q 438 1013 374 1013 l 903 1013 l 868 836 l 644 836 l 603 625 l 807 625 l 772 449 l 568 449 l 515 176 l 747 176 l 713 0 l 321 0 m 343 176 l 471 836 l 437 836 q 381 827 404 836 q 340 804 357 819 q 305 763 319 787 q 278 705 290 739 q 264 661 271 686 q 249 607 256 636 q 234 547 241 578 q 222 486 227 516 q 206 382 212 432 q 200 298 200 333 q 207 241 200 263 q 227 205 213 219 q 258 184 239 191 q 309 176 278 176 l 343 176 z "},"P":{"ha":836,"x_min":9,"x_max":819,"o":"m 207 1013 l 492 1013 q 736 951 652 1013 q 799 873 779 919 q 819 766 819 828 q 813 693 819 731 q 795 616 807 655 q 766 548 782 576 q 730 496 750 519 q 599 407 678 435 q 395 379 519 379 l 283 379 l 210 0 l 9 0 l 207 1013 m 414 547 q 502 559 465 547 q 562 593 538 572 q 599 651 587 616 q 611 726 611 685 q 576 819 611 793 q 456 844 540 844 l 374 844 l 317 547 l 414 547 z "},"Þ":{"ha":836,"x_min":11,"x_max":790,"o":"m 208 1013 l 408 1013 l 376 859 l 463 859 q 707 796 622 859 q 770 719 749 764 q 790 612 790 673 q 784 539 790 577 q 766 463 778 501 q 737 395 753 424 q 701 343 721 366 q 639 288 671 308 q 570 254 607 267 q 481 232 530 239 q 366 225 433 225 l 254 225 l 211 0 l 11 0 l 208 1013 m 386 393 q 533 439 486 393 q 570 495 557 462 q 582 572 582 529 q 573 631 582 609 q 547 665 564 652 q 500 684 529 677 q 428 690 471 690 l 346 690 l 288 393 l 386 393 z "},"Q":{"ha":836,"x_min":41,"x_max":794,"o":"m 363 -20 l 345 -20 q 214 2 271 -20 q 119 64 158 23 q 60 172 79 109 q 41 321 41 235 q 50 450 41 381 q 75 590 58 519 q 115 722 92 661 q 165 831 138 784 q 224 914 191 876 q 304 980 258 952 q 393 1018 345 1004 q 496 1031 441 1031 q 624 1009 568 1031 q 717 947 679 987 q 777 841 759 903 q 794 694 794 780 q 786 570 794 638 q 761 425 779 502 q 723 293 745 357 q 671 178 700 229 q 642 133 657 153 q 612 96 627 113 q 526 26 576 58 l 688 -191 l 455 -191 l 363 -20 m 356 158 q 431 182 397 158 q 461 212 447 194 q 489 253 476 229 q 505 287 496 267 q 520 328 513 307 q 549 427 534 368 q 566 506 559 471 q 578 574 573 541 q 589 692 589 641 q 562 814 589 774 q 480 854 534 854 q 438 848 457 854 q 406 831 420 841 q 374 801 389 819 q 347 760 359 783 q 331 726 338 743 q 318 690 325 709 q 310 664 313 675 q 302 640 306 652 q 296 615 299 629 q 288 583 292 602 q 270 506 277 540 q 258 438 263 471 q 248 319 248 370 q 275 198 248 237 q 310 168 289 177 q 356 158 330 158 z "},"R":{"ha":836,"x_min":2,"x_max":787,"o":"m 199 1013 l 477 1013 q 711 954 634 1013 q 767 880 747 925 q 787 768 787 836 q 770 657 787 707 q 720 568 753 607 q 531 478 654 491 q 595 448 572 472 q 637 364 618 423 l 748 0 l 544 0 l 472 255 l 467 273 q 420 371 446 342 q 359 400 395 400 l 280 400 l 202 0 l 2 0 l 199 1013 m 397 568 q 479 579 444 568 q 536 612 513 591 q 571 665 559 633 q 583 735 583 697 q 551 819 583 793 q 458 844 519 844 l 368 844 l 313 568 l 397 568 z "},"Ŕ":{"ha":836,"x_min":2,"x_max":787,"o":"m 572 1257 l 763 1257 l 546 1078 l 406 1078 l 572 1257 m 199 1013 l 477 1013 q 711 952 636 1013 q 787 767 787 892 q 770 656 787 706 q 720 568 753 606 q 640 508 687 531 q 531 478 592 485 q 567 468 551 475 q 595 447 583 460 q 617 414 608 434 q 637 364 627 393 l 748 0 l 544 0 l 472 255 l 467 273 q 422 369 447 338 q 359 400 397 400 l 280 400 l 202 0 l 2 0 l 199 1013 m 397 568 q 536 612 489 568 q 583 732 583 656 q 553 818 583 791 q 458 844 524 844 l 368 844 l 313 568 l 397 568 z "},"Ř":{"ha":836,"x_min":2,"x_max":787,"o":"m 285 1256 l 400 1256 l 501 1146 l 656 1256 l 779 1256 l 614 1077 l 378 1077 l 285 1256 m 199 1013 l 477 1013 q 711 952 636 1013 q 787 767 787 892 q 770 656 787 706 q 720 568 753 606 q 640 508 687 531 q 531 478 592 485 q 567 468 551 475 q 595 447 583 460 q 617 414 608 434 q 637 364 627 393 l 748 0 l 544 0 l 472 255 l 467 273 q 422 369 447 338 q 359 400 397 400 l 280 400 l 202 0 l 2 0 l 199 1013 m 397 568 q 536 612 489 568 q 583 732 583 656 q 553 818 583 791 q 458 844 524 844 l 368 844 l 313 568 l 397 568 z "},"Ŗ":{"ha":836,"x_min":2,"x_max":787,"o":"m 199 1013 l 477 1013 q 711 952 636 1013 q 787 767 787 892 q 770 656 787 706 q 720 568 753 606 q 640 508 687 531 q 531 478 592 485 q 567 468 551 475 q 595 447 583 460 q 617 414 608 434 q 637 364 627 393 l 748 0 l 544 0 l 472 255 l 467 273 q 422 369 447 338 q 359 400 397 400 l 280 400 l 202 0 l 2 0 l 199 1013 m 397 568 q 536 612 489 568 q 583 732 583 656 q 553 818 583 791 q 458 844 524 844 l 368 844 l 313 568 l 397 568 m 294 -107 l 485 -107 l 325 -315 l 193 -315 l 294 -107 z "},"S":{"ha":836,"x_min":3,"x_max":786,"o":"m 318 -20 q 241 -15 279 -20 q 165 -2 203 -11 q 85 21 124 7 q 3 52 45 34 l 43 258 q 109 211 76 231 q 180 175 142 191 q 251 153 216 161 q 325 146 286 146 q 467 186 414 146 q 518 291 518 225 q 512 333 518 315 q 494 366 506 351 q 424 416 471 397 l 343 450 q 235 503 277 478 q 171 556 194 528 q 140 612 151 580 q 129 692 129 644 q 159 833 129 772 q 238 937 189 895 q 363 1006 291 982 q 522 1031 435 1031 q 591 1027 555 1031 q 659 1017 627 1024 q 723 1000 690 1010 q 786 975 755 989 l 747 782 q 640 846 701 825 q 574 862 608 857 q 507 867 540 867 q 428 857 460 867 q 372 829 395 846 q 335 784 347 809 q 322 737 322 760 q 354 673 322 702 q 447 617 385 644 l 452 615 l 530 581 q 617 532 581 558 q 675 475 653 505 q 710 406 699 444 q 721 321 721 368 q 694 184 721 248 q 612 73 668 121 q 485 4 559 28 q 318 -20 411 -20 z "},"Ś":{"ha":836,"x_min":3,"x_max":792,"o":"m 602 1257 l 792 1257 l 575 1078 l 435 1078 l 602 1257 m 318 -20 q 164 -2 241 -20 q 3 52 87 16 l 43 258 q 180 175 109 203 q 326 146 252 146 q 406 156 370 146 q 466 186 441 167 q 505 232 491 205 q 518 292 518 258 q 494 366 518 336 q 424 416 471 397 l 343 450 q 238 502 279 477 q 172 554 197 526 q 138 613 148 581 q 129 686 129 645 q 158 828 129 764 q 239 937 186 892 q 364 1006 291 982 q 526 1031 437 1031 q 658 1017 591 1031 q 786 975 724 1004 l 747 782 q 696 819 724 803 q 638 846 669 835 q 575 862 607 857 q 511 867 543 867 q 421 853 458 867 q 363 821 385 840 q 332 779 341 802 q 322 738 322 757 q 351 675 322 705 q 447 617 380 646 l 452 615 l 530 581 q 616 533 580 559 q 675 474 652 507 q 710 404 699 442 q 721 319 721 366 q 692 180 721 243 q 612 74 664 118 q 485 5 559 29 q 318 -20 410 -20 z "},"Š":{"ha":836,"x_min":3,"x_max":804,"o":"m 310 1257 l 425 1257 l 526 1147 l 682 1257 l 804 1257 l 639 1078 l 403 1078 l 310 1257 m 318 -20 q 241 -15 279 -20 q 165 -2 203 -11 q 85 21 124 7 q 3 52 45 34 l 43 258 q 109 211 76 231 q 180 175 142 191 q 251 153 216 161 q 325 146 286 146 q 467 186 414 146 q 518 291 518 225 q 512 333 518 315 q 494 366 506 351 q 424 416 471 397 l 343 450 q 235 503 277 478 q 171 556 194 528 q 140 612 151 580 q 129 692 129 644 q 159 833 129 772 q 238 937 189 895 q 363 1006 291 982 q 522 1031 435 1031 q 591 1027 555 1031 q 659 1017 627 1024 q 723 1000 690 1010 q 786 975 755 989 l 747 782 q 640 846 701 825 q 574 862 608 857 q 507 867 540 867 q 428 857 460 867 q 372 829 395 846 q 335 784 347 809 q 322 737 322 760 q 354 673 322 702 q 447 617 385 644 l 452 615 l 530 581 q 617 532 581 558 q 675 475 653 505 q 710 406 699 444 q 721 321 721 368 q 694 184 721 248 q 612 73 668 121 q 485 4 559 28 q 318 -20 411 -20 z "},"Ş":{"ha":836,"x_min":3,"x_max":786,"o":"m 372 829 q 335 784 347 809 q 322 737 322 760 q 354 673 322 702 q 447 617 385 644 l 452 615 l 530 581 q 617 532 581 558 q 675 475 653 505 q 710 406 699 444 q 721 321 721 368 q 694 184 721 248 q 612 73 668 121 q 516 15 571 38 q 393 -16 460 -7 q 407 -40 401 -28 q 418 -64 414 -52 q 431 -125 431 -96 q 418 -185 431 -157 q 380 -232 406 -212 q 319 -262 355 -252 q 236 -272 283 -272 q 200 -271 218 -272 q 169 -268 182 -269 q 126 -260 140 -264 q 102 -254 113 -256 l 121 -149 q 150 -158 136 -154 q 178 -166 164 -163 q 230 -172 205 -172 q 271 -168 253 -172 q 300 -154 289 -163 q 325 -102 325 -136 q 316 -61 325 -83 q 308 -43 313 -54 q 297 -19 304 -32 q 165 -2 231 -17 q 85 21 124 7 q 3 52 45 34 l 43 258 q 109 211 76 231 q 180 175 142 191 q 251 153 216 161 q 325 146 286 146 q 467 186 414 146 q 518 291 518 225 q 512 333 518 315 q 494 366 506 351 q 424 416 471 397 l 343 450 q 235 503 277 478 q 171 556 194 528 q 140 612 151 580 q 129 692 129 644 q 159 833 129 772 q 238 937 189 895 q 363 1006 291 982 q 522 1031 435 1031 q 591 1027 555 1031 q 659 1017 627 1024 q 723 1000 690 1010 q 786 975 755 989 l 747 782 q 640 846 701 825 q 574 862 608 857 q 507 867 540 867 q 428 857 460 867 q 372 829 395 846 z "},"Ș":{"ha":836,"x_min":3,"x_max":786,"o":"m 318 -20 q 164 -2 241 -20 q 3 52 87 16 l 43 258 q 180 175 109 203 q 326 146 252 146 q 406 156 370 146 q 466 186 441 167 q 505 232 491 205 q 518 292 518 258 q 494 366 518 336 q 424 416 471 397 l 343 450 q 238 502 279 477 q 172 554 197 526 q 138 613 148 581 q 129 686 129 645 q 158 828 129 764 q 239 937 186 892 q 364 1006 291 982 q 526 1031 437 1031 q 658 1017 591 1031 q 786 975 724 1004 l 747 782 q 696 819 724 803 q 638 846 669 835 q 575 862 607 857 q 511 867 543 867 q 421 853 458 867 q 363 821 385 840 q 332 779 341 802 q 322 738 322 757 q 351 675 322 705 q 447 617 380 646 l 452 615 l 530 581 q 616 533 580 559 q 675 474 652 507 q 710 404 699 442 q 721 319 721 366 q 692 180 721 243 q 612 74 664 118 q 485 5 559 29 q 318 -20 410 -20 m 193 -134 l 384 -134 l 224 -342 l 92 -342 l 193 -134 z "},"T":{"ha":836,"x_min":122,"x_max":873,"o":"m 382 838 l 122 838 l 155 1013 l 873 1013 l 839 838 l 582 838 l 419 0 l 220 0 l 382 838 z "},"Ŧ":{"ha":836,"x_min":123,"x_max":873,"o":"m 290 365 l 123 365 l 149 495 l 316 495 l 382 838 l 125 838 l 159 1013 l 873 1013 l 840 838 l 583 838 l 516 495 l 684 495 l 658 365 l 490 365 l 420 0 l 220 0 l 290 365 z "},"Ť":{"ha":836,"x_min":122,"x_max":873,"o":"m 311 1257 l 427 1257 l 528 1147 l 683 1257 l 806 1257 l 640 1078 l 404 1078 l 311 1257 m 382 838 l 122 838 l 155 1013 l 873 1013 l 839 838 l 582 838 l 419 0 l 220 0 l 382 838 z "},"Ț":{"ha":836,"x_min":102,"x_max":873,"o":"m 873 1013 l 839 838 l 582 838 l 419 0 l 382 0 q 419 -63 407 -33 q 431 -126 431 -94 q 418 -186 431 -159 q 379 -232 405 -213 q 317 -261 354 -251 q 235 -272 281 -272 q 170 -268 204 -272 q 102 -254 135 -263 l 121 -149 q 231 -172 180 -172 q 301 -154 276 -172 q 326 -102 326 -136 q 317 -61 326 -84 q 287 0 308 -37 l 220 0 l 382 838 l 122 838 l 155 1013 l 873 1013 z "},"U":{"ha":836,"x_min":31,"x_max":863,"o":"m 337 -20 q 208 -3 265 -20 q 111 47 151 14 q 50 130 68 82 q 31 240 31 178 q 32 269 31 254 q 35 301 33 283 q 37 321 36 313 q 39 337 38 330 q 42 353 40 345 q 46 374 43 361 l 171 1013 l 371 1013 l 236 323 q 235 319 236 321 q 232 292 233 304 q 231 271 231 281 q 262 187 231 218 q 351 157 293 157 q 416 167 387 157 q 467 198 446 177 q 528 323 511 239 l 663 1013 l 863 1013 l 737 374 q 714 272 726 316 q 686 189 703 227 q 655 131 672 156 q 616 83 637 105 q 494 7 565 34 q 420 -13 459 -7 q 337 -20 382 -20 z "},"Ú":{"ha":836,"x_min":31,"x_max":863,"o":"m 589 1257 l 779 1257 l 562 1078 l 422 1078 l 589 1257 m 337 -20 q 208 -3 265 -20 q 111 47 151 14 q 50 130 68 82 q 31 240 31 178 q 32 269 31 254 q 35 301 33 283 q 37 322 36 314 q 39 338 38 331 q 42 354 41 346 q 46 374 43 361 l 171 1013 l 371 1013 l 236 323 q 235 319 236 321 q 232 292 233 304 q 231 271 231 281 q 262 187 231 218 q 351 157 293 157 q 416 167 387 157 q 467 198 446 177 q 528 323 511 239 l 663 1013 l 863 1013 l 737 374 q 714 272 726 316 q 686 189 703 227 q 655 131 672 156 q 616 83 637 105 q 494 7 564 33 q 420 -13 459 -7 q 337 -20 382 -20 z "},"Û":{"ha":836,"x_min":31,"x_max":863,"o":"m 437 1258 l 673 1258 l 776 1079 l 661 1079 l 550 1188 l 394 1079 l 272 1079 l 437 1258 m 337 -20 q 208 -3 265 -20 q 111 47 151 14 q 50 130 68 82 q 31 240 31 178 q 32 269 31 254 q 35 301 33 283 q 37 322 36 314 q 39 338 38 331 q 42 354 41 346 q 46 374 43 361 l 171 1013 l 371 1013 l 236 323 q 235 319 236 321 q 232 292 233 304 q 231 271 231 281 q 262 187 231 218 q 351 157 293 157 q 416 167 387 157 q 467 198 446 177 q 528 323 511 239 l 663 1013 l 863 1013 l 737 374 q 714 272 726 316 q 686 189 703 227 q 655 131 672 156 q 616 83 637 105 q 494 7 564 33 q 420 -13 459 -7 q 337 -20 382 -20 z "},"Ü":{"ha":836,"x_min":31,"x_max":863,"o":"m 334 1090 q 316 1108 316 1090 q 316 1111 316 1111 q 317 1113 317 1112 l 342 1239 q 364 1257 347 1257 l 483 1257 q 501 1240 501 1257 q 501 1237 501 1237 q 500 1235 500 1236 l 475 1109 q 454 1090 472 1090 l 334 1090 m 603 1090 q 585 1108 585 1090 q 585 1111 585 1111 q 585 1113 585 1112 l 610 1239 q 632 1257 613 1257 l 751 1257 q 766 1251 761 1257 q 769 1235 771 1245 l 745 1109 q 723 1090 741 1090 l 603 1090 m 337 -20 q 208 -3 265 -20 q 111 47 151 14 q 50 130 68 82 q 31 240 31 178 q 32 269 31 254 q 35 301 33 283 q 37 322 36 314 q 39 338 38 331 q 42 354 41 346 q 46 374 43 361 l 171 1013 l 371 1013 l 236 323 q 235 319 236 321 q 232 292 233 304 q 231 271 231 281 q 262 187 231 218 q 351 157 293 157 q 416 167 387 157 q 467 198 446 177 q 528 323 511 239 l 663 1013 l 863 1013 l 737 374 q 714 272 726 316 q 686 189 703 227 q 655 131 672 156 q 616 83 637 105 q 494 7 564 33 q 420 -13 459 -7 q 337 -20 382 -20 z "},"Ù":{"ha":836,"x_min":31,"x_max":863,"o":"m 336 1256 l 515 1256 l 612 1077 l 492 1077 l 336 1256 m 337 -20 q 208 -3 265 -20 q 111 47 151 14 q 50 130 68 82 q 31 240 31 178 q 32 269 31 254 q 35 301 33 283 q 37 322 36 314 q 39 338 38 331 q 42 354 41 346 q 46 374 43 361 l 171 1013 l 371 1013 l 236 323 q 235 319 236 321 q 232 292 233 304 q 231 271 231 281 q 262 187 231 218 q 351 157 293 157 q 416 167 387 157 q 467 198 446 177 q 528 323 511 239 l 663 1013 l 863 1013 l 737 374 q 714 272 726 316 q 686 189 703 227 q 655 131 672 156 q 616 83 637 105 q 494 7 564 33 q 420 -13 459 -7 q 337 -20 382 -20 z "},"Ư":{"ha":836,"x_min":-19,"x_max":975,"o":"m 975 1055 q 972 986 975 1017 q 964 926 970 954 q 910 806 949 848 q 812 764 871 764 q 766 772 789 764 l 688 374 q 664 271 676 315 q 638 192 652 227 q 607 131 624 157 q 567 83 589 105 q 446 7 516 33 q 284 -20 376 -20 q 156 -3 212 -20 q 61 48 100 14 q 1 130 22 81 q -19 243 -19 179 q -15 301 -19 270 q -3 374 -12 333 l 121 1013 l 321 1013 l 186 323 q 186 319 186 321 q 182 292 183 304 q 181 271 181 280 q 212 187 181 217 q 304 157 243 157 q 417 197 372 157 q 478 323 461 238 l 613 1013 l 813 1013 l 787 876 q 795 876 789 876 q 840 893 819 876 q 869 949 861 910 q 873 976 871 961 q 874 1002 874 990 q 869 1055 874 1025 l 975 1055 z "},"Ű":{"ha":836,"x_min":31,"x_max":913,"o":"m 466 1256 l 659 1256 l 430 1077 l 296 1077 l 466 1256 m 720 1256 l 913 1256 l 684 1077 l 551 1077 l 720 1256 m 334 -20 q 205 -3 262 -20 q 110 48 149 14 q 51 130 71 81 q 31 243 31 179 q 34 301 31 270 q 46 374 38 333 l 171 1013 l 371 1013 l 236 323 q 235 319 236 321 q 232 292 233 304 q 231 271 231 280 q 262 187 231 217 q 354 157 293 157 q 466 197 422 157 q 528 323 511 238 l 663 1013 l 863 1013 l 737 374 q 714 271 726 315 q 688 192 702 227 q 656 131 673 157 q 616 83 639 105 q 495 7 566 33 q 334 -20 425 -20 z "},"Ū":{"ha":836,"x_min":31,"x_max":863,"o":"m 352 1255 l 780 1255 l 755 1127 l 328 1127 l 352 1255 m 334 -20 q 205 -3 262 -20 q 110 48 149 14 q 51 130 71 81 q 31 243 31 179 q 34 301 31 270 q 46 374 38 333 l 171 1013 l 371 1013 l 236 323 q 235 319 236 321 q 232 292 233 304 q 231 271 231 280 q 262 187 231 217 q 354 157 293 157 q 466 197 422 157 q 528 323 511 238 l 663 1013 l 863 1013 l 737 374 q 714 271 726 315 q 688 192 702 227 q 656 131 673 157 q 616 83 639 105 q 495 7 566 33 q 334 -20 425 -20 z "},"Ų":{"ha":836,"x_min":31,"x_max":863,"o":"m 863 1013 l 737 374 q 714 271 726 315 q 688 192 702 227 q 656 131 673 157 q 616 83 639 105 q 495 7 566 33 q 334 -20 425 -20 l 330 -20 q 271 -90 288 -66 q 259 -114 263 -103 q 255 -134 255 -124 q 271 -169 255 -154 q 323 -183 288 -183 q 369 -178 341 -183 q 429 -162 397 -174 l 408 -268 q 343 -279 374 -275 q 286 -283 312 -283 q 177 -257 216 -283 q 137 -184 137 -232 q 162 -103 137 -147 q 242 -12 188 -60 q 85 72 140 8 q 31 243 31 136 q 34 301 31 270 q 46 374 38 333 l 171 1013 l 371 1013 l 236 323 q 235 319 236 321 q 232 292 233 304 q 231 271 231 280 q 262 187 231 217 q 354 157 293 157 q 466 197 422 157 q 528 323 511 238 l 663 1013 l 863 1013 z "},"Ů":{"ha":836,"x_min":31,"x_max":863,"o":"m 863 1013 l 737 374 q 714 271 726 315 q 688 192 702 227 q 656 131 673 157 q 616 83 639 105 q 495 7 566 33 q 334 -20 425 -20 q 205 -3 262 -20 q 110 48 149 14 q 51 130 71 81 q 31 243 31 179 q 34 301 31 270 q 46 374 38 333 l 171 1013 l 341 1013 q 322 1096 322 1052 q 337 1171 322 1136 q 378 1233 352 1206 q 439 1274 404 1259 q 515 1289 475 1289 q 590 1274 555 1289 q 651 1233 625 1259 q 693 1171 677 1206 q 708 1096 708 1136 q 689 1013 708 1052 l 863 1013 m 515 1185 q 480 1178 496 1185 q 452 1159 464 1171 q 433 1131 440 1147 q 426 1096 426 1114 q 433 1061 426 1078 q 452 1033 440 1045 q 480 1014 464 1021 q 515 1007 496 1007 q 549 1014 533 1007 q 578 1033 566 1021 q 597 1061 590 1045 q 604 1096 604 1078 q 597 1131 604 1114 q 578 1159 590 1147 q 549 1178 566 1171 q 515 1185 533 1185 m 652 960 q 591 918 626 933 q 515 903 555 903 q 429 922 468 903 q 363 976 390 942 l 236 323 q 235 319 236 321 q 232 292 233 304 q 231 271 231 280 q 262 187 231 217 q 354 157 293 157 q 466 197 422 157 q 528 323 511 238 l 652 960 z "},"Ũ":{"ha":836,"x_min":31,"x_max":863,"o":"m 297 1078 q 359 1212 314 1166 q 468 1258 404 1258 q 515 1250 494 1258 q 561 1223 537 1242 l 597 1196 q 644 1177 618 1177 q 687 1198 669 1177 q 712 1258 705 1219 l 805 1258 q 745 1126 787 1174 q 634 1078 702 1078 q 589 1085 610 1078 q 541 1112 567 1093 l 508 1137 q 480 1155 491 1150 q 458 1159 469 1159 q 415 1138 433 1159 q 390 1078 397 1118 l 297 1078 m 334 -20 q 205 -3 262 -20 q 110 48 149 14 q 51 130 71 81 q 31 243 31 179 q 34 301 31 270 q 46 374 38 333 l 171 1013 l 371 1013 l 236 323 q 235 319 236 321 q 232 292 233 304 q 231 271 231 280 q 262 187 231 217 q 354 157 293 157 q 466 197 422 157 q 528 323 511 238 l 663 1013 l 863 1013 l 737 374 q 714 271 726 315 q 688 192 702 227 q 656 131 673 157 q 616 83 639 105 q 495 7 566 33 q 334 -20 425 -20 z "},"V":{"ha":836,"x_min":138,"x_max":899,"o":"m 138 1013 l 335 1013 l 351 164 l 694 1013 l 899 1013 l 461 0 l 182 0 l 138 1013 z "},"W":{"ha":836,"x_min":28,"x_max":929,"o":"m 97 1013 l 269 1013 l 196 269 l 380 750 l 542 750 l 550 269 l 751 1013 l 929 1013 l 616 0 l 433 0 l 425 532 l 210 0 l 28 0 l 97 1013 z "},"Ẃ":{"ha":836,"x_min":28,"x_max":929,"o":"m 557 1261 l 747 1261 l 530 1082 l 390 1082 l 557 1261 m 97 1013 l 269 1013 l 196 269 l 380 750 l 542 750 l 550 269 l 751 1013 l 929 1013 l 616 0 l 433 0 l 425 532 l 210 0 l 28 0 l 97 1013 z "},"Ŵ":{"ha":836,"x_min":28,"x_max":929,"o":"m 454 1261 l 690 1261 l 792 1082 l 677 1082 l 566 1191 l 410 1082 l 288 1082 l 454 1261 m 97 1013 l 269 1013 l 196 269 l 380 750 l 542 750 l 550 269 l 751 1013 l 929 1013 l 616 0 l 433 0 l 425 532 l 210 0 l 28 0 l 97 1013 z "},"Ẅ":{"ha":836,"x_min":28,"x_max":929,"o":"m 340 1082 q 325 1088 330 1082 q 322 1105 320 1095 l 347 1231 q 368 1249 349 1249 l 488 1249 q 507 1233 507 1249 q 506 1227 507 1229 l 481 1101 q 459 1082 477 1082 l 340 1082 m 608 1082 q 593 1088 598 1082 q 590 1105 588 1095 l 614 1231 q 636 1249 617 1249 l 757 1249 q 775 1233 775 1249 q 774 1227 775 1229 l 749 1101 q 728 1082 746 1082 l 608 1082 m 97 1013 l 269 1013 l 196 269 l 380 750 l 542 750 l 550 269 l 751 1013 l 929 1013 l 616 0 l 433 0 l 425 532 l 210 0 l 28 0 l 97 1013 z "},"Ẁ":{"ha":836,"x_min":28,"x_max":929,"o":"m 325 1261 l 504 1261 l 601 1082 l 480 1082 l 325 1261 m 97 1013 l 269 1013 l 196 269 l 380 750 l 542 750 l 550 269 l 751 1013 l 929 1013 l 616 0 l 433 0 l 425 532 l 210 0 l 28 0 l 97 1013 z "},"X":{"ha":836,"x_min":-97,"x_max":911,"o":"m 319 530 l 125 1013 l 322 1013 l 449 699 l 693 1013 l 911 1013 l 522 513 l 726 0 l 529 0 l 393 347 l 122 0 l -97 0 l 319 530 z "},"Y":{"ha":836,"x_min":98,"x_max":921,"o":"m 293 399 l 98 1013 l 297 1013 l 424 572 l 703 1013 l 921 1013 l 492 399 l 414 0 l 215 0 l 293 399 z "},"Ý":{"ha":836,"x_min":98,"x_max":921,"o":"m 589 1256 l 779 1256 l 562 1077 l 422 1077 l 589 1256 m 293 399 l 98 1013 l 297 1013 l 424 572 l 703 1013 l 921 1013 l 492 399 l 414 0 l 215 0 l 293 399 z "},"Ŷ":{"ha":836,"x_min":98,"x_max":921,"o":"m 445 1261 l 681 1261 l 783 1082 l 669 1082 l 557 1191 l 401 1082 l 279 1082 l 445 1261 m 293 399 l 98 1013 l 297 1013 l 424 572 l 703 1013 l 921 1013 l 492 399 l 414 0 l 215 0 l 293 399 z "},"Ÿ":{"ha":836,"x_min":98,"x_max":921,"o":"m 332 1090 q 313 1106 313 1090 q 314 1112 313 1110 l 340 1238 q 361 1257 344 1257 l 480 1257 q 498 1240 498 1257 q 498 1234 498 1236 l 473 1108 q 451 1090 469 1090 l 332 1090 m 600 1090 q 582 1106 582 1090 q 583 1112 582 1110 l 608 1238 q 629 1257 610 1257 l 748 1257 q 763 1251 758 1257 q 766 1234 768 1244 l 742 1108 q 720 1090 739 1090 l 600 1090 m 293 399 l 98 1013 l 297 1013 l 424 572 l 703 1013 l 921 1013 l 492 399 l 414 0 l 215 0 l 293 399 z "},"Ỳ":{"ha":836,"x_min":98,"x_max":921,"o":"m 318 1261 l 497 1261 l 594 1082 l 473 1082 l 318 1261 m 293 399 l 98 1013 l 297 1013 l 424 572 l 703 1013 l 921 1013 l 492 399 l 414 0 l 215 0 l 293 399 z "},"Z":{"ha":836,"x_min":-29,"x_max":868,"o":"m 3 165 l 585 836 l 149 836 l 184 1013 l 868 1013 l 835 847 l 241 176 l 715 176 l 681 0 l -29 0 l 3 165 z "},"Ź":{"ha":836,"x_min":-29,"x_max":868,"o":"m 588 1257 l 779 1257 l 562 1078 l 421 1078 l 588 1257 m 3 165 l 585 836 l 149 836 l 184 1013 l 868 1013 l 835 847 l 241 176 l 715 176 l 681 0 l -29 0 l 3 165 z "},"Ž":{"ha":836,"x_min":-29,"x_max":868,"o":"m 323 1256 l 439 1256 l 540 1146 l 695 1256 l 818 1256 l 652 1077 l 416 1077 l 323 1256 m 3 165 l 585 836 l 149 836 l 184 1013 l 868 1013 l 835 847 l 241 176 l 715 176 l 681 0 l -29 0 l 3 165 z "},"Ż":{"ha":836,"x_min":-29,"x_max":868,"o":"m 473 1089 q 458 1095 463 1089 q 455 1112 453 1101 l 480 1238 q 502 1256 483 1256 l 648 1256 q 663 1250 659 1256 q 666 1234 668 1244 l 641 1107 q 619 1089 637 1089 l 473 1089 m 3 165 l 585 836 l 149 836 l 184 1013 l 868 1013 l 835 847 l 241 176 l 715 176 l 681 0 l -29 0 l 3 165 z "},"a":{"ha":836,"x_min":32,"x_max":774,"o":"m 257 -20 q 164 -5 206 -20 q 92 39 122 9 q 46 113 60 71 q 32 203 32 155 q 58 329 32 273 q 138 423 85 385 q 441 500 243 500 l 572 500 l 578 533 q 579 541 579 540 l 579 553 q 545 612 579 591 q 446 632 510 632 q 319 613 388 632 q 249 590 285 604 q 168 555 212 576 l 200 725 q 345 765 278 752 q 412 775 380 772 q 478 778 444 778 q 604 765 549 778 q 698 726 659 752 q 756 661 739 699 q 774 573 774 623 q 773 546 774 561 q 769 513 772 532 q 764 476 766 493 q 755 433 761 460 l 672 0 l 494 0 l 492 85 q 388 7 444 31 q 325 -13 358 -7 q 257 -20 292 -20 m 340 117 q 410 132 376 117 q 471 180 444 148 q 516 254 496 210 q 545 359 535 299 l 468 359 q 295 324 351 359 q 253 279 267 307 q 239 218 239 252 q 246 176 239 193 q 267 144 253 158 q 297 124 280 131 q 340 117 315 117 z "},"á":{"ha":836,"x_min":32,"x_max":840,"o":"m 623 1135 l 840 1135 l 541 880 l 407 880 l 623 1135 m 257 -20 q 164 -5 206 -20 q 92 39 122 9 q 46 113 60 71 q 32 203 32 155 q 58 329 32 273 q 138 423 85 385 q 441 500 243 500 l 572 500 l 578 533 q 579 541 579 540 l 579 553 q 545 612 579 591 q 446 632 510 632 q 319 613 388 632 q 249 590 285 604 q 168 555 212 576 l 200 725 q 345 765 278 752 q 412 775 380 772 q 478 778 444 778 q 604 765 549 778 q 698 726 659 752 q 756 661 739 699 q 774 573 774 623 q 773 546 774 561 q 769 513 772 532 q 764 476 766 493 q 755 433 761 460 l 672 0 l 494 0 l 492 85 q 388 7 444 31 q 325 -13 358 -7 q 257 -20 292 -20 m 340 117 q 410 132 376 117 q 471 180 444 148 q 516 254 496 210 q 545 359 535 299 l 468 359 q 295 324 351 359 q 253 279 267 307 q 239 218 239 252 q 246 176 239 193 q 267 144 253 158 q 297 124 280 131 q 340 117 315 117 z "},"ă":{"ha":836,"x_min":32,"x_max":774,"o":"m 499 880 q 352 924 402 880 q 302 1059 302 968 l 302 1081 l 400 1081 l 400 1072 q 430 1006 400 1031 q 513 982 460 982 q 606 1008 566 982 q 663 1081 646 1034 l 760 1081 q 674 933 740 987 q 499 880 609 880 m 258 -20 q 164 -5 205 -20 q 93 39 122 10 q 47 109 63 67 q 32 205 32 151 q 59 330 32 275 q 137 422 85 385 q 266 480 189 460 q 441 500 342 500 l 572 500 l 578 533 q 579 541 578 537 q 579 550 579 545 q 545 611 579 591 q 448 632 511 632 q 320 613 389 632 q 168 555 251 595 l 200 725 q 280 749 243 739 q 351 766 317 760 q 417 775 385 772 q 481 778 449 778 q 698 726 623 778 q 774 573 774 675 q 769 511 774 546 q 755 433 764 475 l 672 0 l 494 0 l 492 85 q 387 6 446 32 q 258 -20 328 -20 m 342 117 q 411 133 378 117 q 471 180 444 149 q 516 257 497 212 q 545 359 535 302 l 468 359 q 296 325 354 359 q 239 220 239 290 q 266 144 239 172 q 342 117 293 117 z "},"â":{"ha":836,"x_min":32,"x_max":774,"o":"m 474 1135 l 639 1135 l 763 880 l 644 880 l 541 1032 l 378 880 l 249 880 l 474 1135 m 257 -20 q 164 -5 206 -20 q 92 39 122 9 q 46 113 60 71 q 32 203 32 155 q 58 329 32 273 q 138 423 85 385 q 441 500 243 500 l 572 500 l 578 533 q 579 541 579 540 l 579 553 q 545 612 579 591 q 446 632 510 632 q 319 613 388 632 q 249 590 285 604 q 168 555 212 576 l 200 725 q 345 765 278 752 q 412 775 380 772 q 478 778 444 778 q 604 765 549 778 q 698 726 659 752 q 756 661 739 699 q 774 573 774 623 q 773 546 774 561 q 769 513 772 532 q 764 476 766 493 q 755 433 761 460 l 672 0 l 494 0 l 492 85 q 388 7 444 31 q 325 -13 358 -7 q 257 -20 292 -20 m 340 117 q 410 132 376 117 q 471 180 444 148 q 516 254 496 210 q 545 359 535 299 l 468 359 q 295 324 351 359 q 253 279 267 307 q 239 218 239 252 q 246 176 239 193 q 267 144 253 158 q 297 124 280 131 q 340 117 315 117 z "},"ä":{"ha":836,"x_min":32,"x_max":774,"o":"m 326 913 q 310 920 315 913 q 307 936 305 926 l 332 1062 q 353 1080 334 1080 l 473 1080 q 492 1064 492 1080 q 491 1058 492 1060 l 466 932 q 444 913 463 913 l 326 913 m 593 913 q 578 920 583 913 q 575 936 573 926 l 600 1062 q 621 1080 602 1080 l 742 1080 q 760 1064 760 1080 q 760 1058 760 1060 l 734 932 q 713 913 731 913 l 593 913 m 257 -20 q 164 -5 206 -20 q 92 39 122 9 q 46 113 60 71 q 32 203 32 155 q 58 329 32 273 q 138 423 85 385 q 441 500 243 500 l 572 500 l 578 533 q 579 541 579 540 l 579 553 q 545 612 579 591 q 446 632 510 632 q 319 613 388 632 q 249 590 285 604 q 168 555 212 576 l 200 725 q 345 765 278 752 q 412 775 380 772 q 478 778 444 778 q 604 765 549 778 q 698 726 659 752 q 756 661 739 699 q 774 573 774 623 q 773 546 774 561 q 769 513 772 532 q 764 476 766 493 q 755 433 761 460 l 672 0 l 494 0 l 492 85 q 388 7 444 31 q 325 -13 358 -7 q 257 -20 292 -20 m 340 117 q 410 132 376 117 q 471 180 444 148 q 516 254 496 210 q 545 359 535 299 l 468 359 q 295 324 351 359 q 253 279 267 307 q 239 218 239 252 q 246 176 239 193 q 267 144 253 158 q 297 124 280 131 q 340 117 315 117 z "},"à":{"ha":836,"x_min":32,"x_max":774,"o":"m 273 1135 l 465 1135 l 607 880 l 473 880 l 273 1135 m 257 -20 q 164 -5 206 -20 q 92 39 122 9 q 46 113 60 71 q 32 203 32 155 q 58 329 32 273 q 138 423 85 385 q 441 500 243 500 l 572 500 l 578 533 q 579 541 579 540 l 579 553 q 545 612 579 591 q 446 632 510 632 q 319 613 388 632 q 249 590 285 604 q 168 555 212 576 l 200 725 q 345 765 278 752 q 412 775 380 772 q 478 778 444 778 q 604 765 549 778 q 698 726 659 752 q 756 661 739 699 q 774 573 774 623 q 773 546 774 561 q 769 513 772 532 q 764 476 766 493 q 755 433 761 460 l 672 0 l 494 0 l 492 85 q 388 7 444 31 q 325 -13 358 -7 q 257 -20 292 -20 m 340 117 q 410 132 376 117 q 471 180 444 148 q 516 254 496 210 q 545 359 535 299 l 468 359 q 295 324 351 359 q 253 279 267 307 q 239 218 239 252 q 246 176 239 193 q 267 144 253 158 q 297 124 280 131 q 340 117 315 117 z "},"ā":{"ha":836,"x_min":32,"x_max":774,"o":"m 311 1041 l 739 1041 l 714 913 l 286 913 l 311 1041 m 258 -20 q 164 -5 205 -20 q 93 39 122 10 q 47 109 63 67 q 32 205 32 151 q 59 330 32 275 q 137 422 85 385 q 266 480 189 460 q 441 500 342 500 l 572 500 l 578 533 q 579 541 578 537 q 579 550 579 545 q 545 611 579 591 q 448 632 511 632 q 320 613 389 632 q 168 555 251 595 l 200 725 q 280 749 243 739 q 351 766 317 760 q 417 775 385 772 q 481 778 449 778 q 698 726 623 778 q 774 573 774 675 q 769 511 774 546 q 755 433 764 475 l 672 0 l 501 0 l 492 85 q 387 6 446 32 q 258 -20 328 -20 m 342 117 q 411 133 378 117 q 471 180 444 149 q 516 257 497 212 q 545 359 535 302 l 468 359 q 296 325 354 359 q 239 220 239 290 q 266 144 239 172 q 342 117 293 117 z "},"ą":{"ha":836,"x_min":32,"x_max":774,"o":"m 481 778 q 698 726 623 778 q 774 573 774 675 q 769 511 774 546 q 755 433 764 475 l 672 0 l 570 0 q 503 -79 519 -54 q 491 -103 495 -92 q 487 -123 487 -113 q 503 -158 487 -143 q 555 -172 519 -172 q 601 -168 573 -172 q 661 -151 629 -163 l 640 -257 q 575 -268 606 -264 q 518 -272 544 -272 q 409 -247 448 -272 q 369 -173 369 -221 q 394 -92 369 -136 q 475 0 420 -48 l 492 85 q 387 6 446 32 q 258 -20 328 -20 q 164 -5 205 -20 q 93 39 122 10 q 47 109 63 67 q 32 205 32 151 q 59 330 32 275 q 137 422 85 385 q 266 480 189 460 q 441 500 342 500 l 572 500 l 578 533 q 579 541 578 537 q 579 550 579 545 q 545 611 579 591 q 448 632 511 632 q 320 613 389 632 q 168 555 251 595 l 200 725 q 280 749 243 739 q 351 766 317 760 q 417 775 385 772 q 481 778 449 778 m 342 117 q 411 133 378 117 q 471 180 444 149 q 516 257 497 212 q 545 359 535 302 l 468 359 q 296 325 354 359 q 239 220 239 290 q 266 144 239 172 q 342 117 293 117 z "},"å":{"ha":836,"x_min":32,"x_max":774,"o":"m 528 847 q 454 861 489 847 q 391 904 419 876 q 349 967 363 932 q 335 1040 335 1002 q 351 1118 335 1083 q 391 1178 367 1154 q 451 1218 416 1203 q 528 1234 486 1234 q 602 1220 567 1234 q 665 1178 637 1206 q 705 1119 688 1154 q 721 1041 721 1084 q 705 963 721 998 q 665 903 689 927 q 602 861 637 876 q 528 847 566 847 m 528 951 q 562 958 545 951 q 592 978 578 964 q 617 1041 617 1004 q 591 1103 617 1077 q 564 1122 579 1115 q 528 1129 548 1129 q 465 1103 491 1129 q 439 1040 439 1077 q 465 977 439 1003 q 493 959 476 966 q 528 951 509 951 m 257 -20 q 164 -5 206 -20 q 92 39 122 9 q 46 113 60 71 q 32 203 32 155 q 58 329 32 273 q 138 423 85 385 q 441 500 243 500 l 572 500 l 578 533 q 579 541 579 540 l 579 553 q 545 612 579 591 q 446 632 510 632 q 319 613 388 632 q 249 590 285 604 q 168 555 212 576 l 200 725 q 345 765 278 752 q 412 775 380 772 q 478 778 444 778 q 604 765 549 778 q 698 726 659 752 q 756 661 739 699 q 774 573 774 623 q 773 546 774 561 q 769 513 772 532 q 764 476 766 493 q 755 433 761 460 l 672 0 l 494 0 l 492 85 q 388 7 444 31 q 325 -13 358 -7 q 257 -20 292 -20 m 340 117 q 410 132 376 117 q 471 180 444 148 q 516 254 496 210 q 545 359 535 299 l 468 359 q 295 324 351 359 q 253 279 267 307 q 239 218 239 252 q 246 176 239 193 q 267 144 253 158 q 297 124 280 131 q 340 117 315 117 z "},"ã":{"ha":836,"x_min":32,"x_max":786,"o":"m 618 880 q 594 882 604 880 q 572 888 583 884 q 548 900 560 893 q 522 918 536 907 l 489 943 q 487 945 487 945 q 486 946 487 945 q 462 962 474 955 q 436 968 450 968 q 395 945 412 968 q 371 881 378 922 l 277 881 q 336 1021 290 969 q 387 1060 359 1047 q 445 1074 414 1074 q 469 1072 456 1074 q 490 1065 481 1069 q 513 1053 500 1061 q 542 1032 526 1044 l 576 1006 q 589 997 583 1000 q 602 990 595 993 q 613 986 608 987 q 625 985 618 985 q 649 991 638 985 q 667 1008 659 997 q 692 1072 684 1030 l 786 1072 q 728 928 771 977 q 618 880 686 880 m 257 -20 q 164 -5 206 -20 q 92 39 122 9 q 46 113 60 71 q 32 203 32 155 q 58 329 32 273 q 138 423 85 385 q 441 500 243 500 l 572 500 l 578 533 q 579 541 579 540 l 579 553 q 545 612 579 591 q 446 632 510 632 q 319 613 388 632 q 249 590 285 604 q 168 555 212 576 l 200 725 q 345 765 278 752 q 412 775 380 772 q 478 778 444 778 q 606 765 552 778 q 698 726 661 751 q 756 662 739 699 q 774 575 774 624 q 773 547 774 563 q 769 513 772 532 q 766 494 768 503 q 764 476 765 486 q 760 457 762 467 q 755 433 758 446 l 672 0 l 494 0 l 492 85 q 388 7 444 31 q 325 -13 358 -7 q 257 -20 292 -20 m 340 117 q 410 132 376 117 q 471 180 444 148 q 516 254 496 210 q 545 359 535 299 l 468 359 q 295 324 351 359 q 253 279 267 307 q 239 218 239 252 q 246 176 239 193 q 267 144 253 158 q 297 124 280 131 q 340 117 315 117 z "},"æ":{"ha":836,"x_min":-21,"x_max":835,"o":"m 167 -20 q 30 34 81 -20 q -8 97 4 61 q -21 181 -21 132 q 0 296 -21 243 q 62 389 20 348 q 282 468 144 468 l 355 468 l 363 507 q 365 522 365 519 q 366 528 366 525 q 367 536 367 531 q 367 543 367 541 q 361 583 367 567 q 344 610 355 600 q 277 632 320 632 q 195 615 241 632 q 144 593 170 606 q 89 564 118 581 l 121 725 q 173 748 148 739 q 224 765 199 758 q 272 775 248 772 q 318 778 296 778 q 414 754 375 778 q 448 726 435 742 q 471 688 462 709 q 553 755 507 732 q 658 778 600 778 q 789 730 743 778 q 835 592 835 682 q 833 557 835 576 q 829 516 832 539 q 819 449 825 477 q 812 411 814 420 l 798 323 l 492 323 q 487 294 490 311 q 484 273 485 278 q 482 242 482 254 q 490 191 482 214 q 511 154 498 169 q 588 122 540 122 q 672 142 625 122 q 716 164 693 151 q 762 196 740 178 l 730 35 q 646 -6 692 7 q 597 -16 623 -13 q 547 -20 572 -20 q 485 -13 511 -20 q 435 9 459 -5 q 368 92 389 39 q 277 8 326 35 q 224 -13 251 -7 q 167 -20 197 -20 m 672 467 l 680 512 q 684 535 683 523 q 685 548 685 541 q 685 566 685 556 q 671 616 685 600 q 628 632 658 632 q 566 604 589 632 q 544 565 553 588 q 529 515 534 541 l 519 467 l 672 467 m 201 122 q 273 157 245 122 q 314 272 300 193 l 323 325 l 273 325 q 168 290 207 325 q 137 249 147 273 q 127 199 127 224 q 133 166 127 180 q 147 142 138 153 q 201 122 166 122 z "},"b":{"ha":836,"x_min":32,"x_max":790,"o":"m 441 -20 q 372 -8 402 -20 q 319 23 342 3 q 280 71 296 43 q 258 140 264 100 l 211 0 l 32 0 l 237 1055 l 436 1055 l 355 646 q 454 745 398 711 q 513 770 483 762 q 575 778 543 778 q 664 760 623 778 q 733 704 704 741 q 777 612 764 665 q 790 496 790 559 q 785 413 790 457 q 770 325 780 369 q 746 246 761 288 q 711 165 732 204 q 659 88 688 123 q 594 29 629 53 q 520 -7 559 5 q 441 -20 481 -20 m 406 142 q 478 167 445 142 q 537 238 512 193 q 576 343 563 285 q 590 463 590 402 q 583 531 590 503 q 562 577 576 558 q 484 615 534 615 q 413 593 448 615 q 350 522 378 570 q 309 418 323 476 q 294 301 294 359 q 302 230 294 258 q 324 182 310 201 q 360 152 339 163 q 406 142 381 142 z "},"c":{"ha":836,"x_min":92,"x_max":774,"o":"m 421 -20 q 288 0 350 -20 q 178 64 225 19 q 112 170 132 109 q 92 304 92 231 q 100 399 92 352 q 123 489 108 446 q 162 572 139 533 q 216 644 185 612 q 360 744 277 710 q 541 778 443 778 q 607 774 574 778 q 665 764 640 770 q 721 747 693 758 q 774 721 749 736 l 739 539 q 651 597 698 578 q 552 616 606 616 q 445 594 492 616 q 365 533 398 572 q 310 435 328 490 q 292 316 292 379 q 302 238 292 269 q 334 184 313 206 q 386 152 355 163 q 458 142 417 142 q 509 146 484 142 q 561 159 534 151 q 614 180 586 168 q 676 212 642 193 l 638 25 q 531 -9 585 2 q 475 -17 503 -14 q 421 -20 448 -20 z "},"ć":{"ha":836,"x_min":85,"x_max":861,"o":"m 643 1135 l 861 1135 l 561 880 l 427 880 l 643 1135 m 414 -20 q 281 0 343 -20 q 172 64 218 19 q 105 170 125 109 q 85 304 85 231 q 93 399 85 352 q 117 489 101 446 q 155 572 132 533 q 209 644 178 612 q 353 744 270 710 q 534 778 436 778 q 600 774 568 778 q 659 764 633 770 q 714 747 686 758 q 768 721 742 736 l 732 539 q 644 597 691 578 q 545 616 600 616 q 438 594 485 616 q 358 533 391 572 q 303 435 321 490 q 286 316 286 379 q 296 238 286 269 q 327 184 306 206 q 379 152 348 163 q 451 142 410 142 q 502 146 477 142 q 554 159 527 151 q 607 180 579 168 q 669 212 635 193 l 631 25 q 524 -9 578 2 q 468 -17 496 -14 q 414 -20 441 -20 z "},"č":{"ha":836,"x_min":85,"x_max":834,"o":"m 322 1135 l 440 1135 l 544 981 l 705 1135 l 834 1135 l 610 880 l 446 880 l 322 1135 m 414 -20 q 281 0 343 -20 q 172 64 218 19 q 105 170 125 109 q 85 304 85 231 q 93 399 85 352 q 117 489 101 446 q 155 572 132 533 q 209 644 178 612 q 353 744 270 710 q 534 778 436 778 q 600 774 568 778 q 659 764 633 770 q 714 747 686 758 q 768 721 742 736 l 732 539 q 644 597 691 578 q 545 616 600 616 q 438 594 485 616 q 358 533 391 572 q 303 435 321 490 q 286 316 286 379 q 296 238 286 269 q 327 184 306 206 q 379 152 348 163 q 451 142 410 142 q 502 146 477 142 q 554 159 527 151 q 607 180 579 168 q 669 212 635 193 l 631 25 q 524 -9 578 2 q 468 -17 496 -14 q 414 -20 441 -20 z "},"ç":{"ha":836,"x_min":88,"x_max":771,"o":"m 549 616 q 441 594 488 616 q 361 533 395 572 q 307 435 325 490 q 289 316 289 379 q 299 238 289 269 q 330 184 309 206 q 382 152 351 163 q 454 142 414 142 q 505 146 480 142 q 557 159 530 151 q 611 180 583 168 q 673 212 639 193 l 635 25 q 528 -9 582 2 q 503 -13 515 -12 q 478 -16 490 -15 q 503 -64 494 -40 q 515 -125 515 -96 q 503 -185 515 -157 q 465 -232 490 -212 q 404 -262 439 -252 q 321 -272 368 -272 q 285 -271 303 -272 q 254 -268 267 -269 q 229 -264 239 -266 q 211 -260 218 -262 q 198 -257 203 -258 q 186 -254 193 -256 l 205 -149 q 235 -158 220 -154 q 262 -166 249 -163 q 315 -172 290 -172 q 356 -168 338 -172 q 385 -154 374 -163 q 410 -102 410 -136 q 401 -61 410 -83 q 393 -42 397 -53 q 381 -18 388 -32 q 268 5 321 -14 q 175 64 216 25 q 108 170 128 109 q 88 304 88 231 q 96 399 88 352 q 120 489 104 446 q 159 572 136 533 q 212 644 182 612 q 356 744 273 710 q 537 778 439 778 q 604 774 571 778 q 662 764 636 770 q 718 747 690 758 q 771 721 745 736 l 735 539 q 648 597 694 578 q 549 616 603 616 z "},"ċ":{"ha":836,"x_min":85,"x_max":768,"o":"m 459 913 q 444 920 448 913 q 441 936 439 926 l 467 1062 q 488 1080 469 1080 l 632 1080 q 647 1074 642 1080 q 650 1058 652 1068 l 626 932 q 604 913 623 913 l 459 913 m 412 -20 q 275 1 336 -20 q 172 63 214 22 q 107 166 130 104 q 85 310 85 228 q 117 495 85 410 q 210 643 150 581 q 353 742 269 706 q 539 778 437 778 q 659 764 601 778 q 768 721 716 750 l 732 539 q 546 616 650 616 q 440 594 488 616 q 358 532 392 572 q 304 438 323 492 q 286 320 286 384 q 326 185 286 228 q 448 142 366 142 q 551 158 498 142 q 669 212 604 175 l 631 25 q 412 -20 526 -20 z "},"d":{"ha":836,"x_min":45,"x_max":863,"o":"m 259 -20 q 103 55 161 -20 q 59 143 74 92 q 45 262 45 193 q 50 346 45 302 q 66 433 55 389 q 92 519 77 477 q 125 593 108 561 q 176 669 146 634 q 243 730 206 704 q 394 779 313 779 q 519 736 469 779 q 558 687 543 717 q 579 618 574 657 l 664 1055 l 863 1055 l 657 0 l 479 0 l 481 113 q 380 14 436 47 q 259 -20 324 -20 m 351 143 q 423 166 389 143 q 486 237 457 190 q 528 341 514 285 q 542 457 542 397 q 534 529 542 502 q 511 576 526 557 q 430 616 481 616 q 300 521 353 616 q 259 414 273 472 q 245 296 245 355 q 253 226 245 252 q 274 181 260 200 q 351 143 302 143 z "},"ð":{"ha":836,"x_min":56,"x_max":818,"o":"m 365 -20 q 232 1 289 -20 q 137 58 176 22 q 75 156 94 99 q 56 285 56 212 q 82 451 56 372 q 163 592 109 530 q 283 682 214 649 q 441 714 353 714 q 492 710 470 714 q 514 705 504 708 q 534 697 525 702 q 527 714 530 707 q 520 729 524 721 q 511 748 517 737 q 497 777 506 759 q 473 821 481 806 q 460 843 465 836 l 236 760 l 208 838 l 416 916 l 332 1055 l 521 1055 l 571 974 l 790 1054 l 818 978 l 612 901 q 734 665 694 778 q 764 554 753 610 q 774 438 774 498 q 746 256 774 340 q 663 107 718 171 q 535 13 610 46 q 365 -20 460 -20 m 380 140 q 456 161 420 140 q 520 225 492 182 q 561 322 547 266 q 575 442 575 379 q 575 467 575 454 q 574 487 574 479 q 571 505 573 492 q 568 528 570 518 q 541 540 555 535 q 515 549 527 545 q 486 554 501 552 q 458 555 471 555 q 375 536 412 555 q 312 481 338 516 q 269 394 283 443 q 254 296 254 346 q 263 228 254 256 q 288 181 272 199 q 326 152 302 163 q 380 140 349 140 z "},"ď":{"ha":836,"x_min":45,"x_max":1122,"o":"m 259 -20 q 170 -1 210 -20 q 102 55 130 18 q 60 144 75 91 q 45 267 45 197 q 51 354 45 310 q 67 440 56 398 q 93 521 78 482 q 125 592 108 559 q 244 732 175 684 q 393 779 313 779 q 464 768 432 779 q 520 735 496 756 q 559 684 545 713 q 579 618 574 654 l 664 1055 l 863 1055 l 657 0 l 479 0 l 481 113 q 380 14 436 47 q 259 -20 325 -20 m 904 1055 l 1122 1055 l 947 800 l 814 800 l 904 1055 m 348 143 q 426 170 391 143 q 488 241 462 197 q 528 340 513 285 q 542 452 542 396 q 512 576 542 536 q 433 616 481 616 q 356 588 391 616 q 297 514 321 559 q 259 413 272 469 q 245 300 245 356 q 273 181 245 218 q 348 143 301 143 z "},"đ":{"ha":836,"x_min":45,"x_max":946,"o":"m 259 -20 q 103 55 161 -20 q 59 143 74 92 q 45 262 45 193 q 50 346 45 302 q 66 433 55 389 q 92 519 77 477 q 125 593 108 561 q 176 669 146 634 q 243 730 206 704 q 394 779 313 779 q 519 736 469 779 q 558 687 543 717 q 579 618 574 657 l 624 848 l 418 848 l 443 977 l 648 977 l 664 1055 l 863 1055 l 847 977 l 946 977 l 921 848 l 822 848 l 657 0 l 479 0 l 481 113 q 380 14 436 47 q 259 -20 324 -20 m 351 143 q 423 166 389 143 q 486 237 457 190 q 528 341 514 285 q 542 457 542 397 q 534 529 542 502 q 511 576 526 557 q 430 616 481 616 q 300 521 353 616 q 259 414 273 472 q 245 296 245 355 q 253 226 245 252 q 274 181 260 200 q 351 143 302 143 z "},"e":{"ha":836,"x_min":52,"x_max":783,"o":"m 395 -20 q 139 60 226 -20 q 73 161 94 102 q 52 297 52 220 q 81 481 52 390 q 118 565 97 527 q 165 636 138 603 q 229 698 195 671 q 301 743 263 725 q 471 779 379 779 q 598 759 540 779 q 699 698 656 739 q 761 606 738 660 q 783 484 783 553 q 782 450 783 470 q 779 412 781 429 q 774 371 778 398 q 765 315 770 343 l 250 315 q 249 304 249 310 q 248 294 248 299 l 245 273 q 258 212 245 236 q 291 172 270 188 q 427 138 336 138 q 498 143 462 138 q 572 159 535 148 q 708 220 645 180 l 673 37 q 539 -5 609 9 q 395 -20 469 -20 m 594 464 q 598 483 597 473 q 599 492 599 488 q 599 500 599 496 q 564 591 599 557 q 469 624 530 624 q 353 584 401 624 q 278 464 305 544 l 594 464 z "},"é":{"ha":836,"x_min":52,"x_max":806,"o":"m 588 1135 l 806 1135 l 506 880 l 372 880 l 588 1135 m 395 -20 q 139 60 226 -20 q 73 161 94 102 q 52 297 52 220 q 81 481 52 390 q 118 565 97 527 q 165 636 138 603 q 229 698 195 671 q 301 743 263 725 q 380 770 338 760 q 471 779 422 779 q 598 759 540 779 q 699 698 656 739 q 761 606 738 660 q 783 484 783 553 q 782 450 783 470 q 779 412 781 429 q 774 371 778 398 q 765 315 770 343 l 250 315 q 249 304 249 310 q 248 294 248 299 l 245 273 q 258 212 245 236 q 291 172 270 188 q 427 138 336 138 q 498 143 462 138 q 572 159 535 148 q 708 220 645 180 l 673 37 q 539 -5 609 9 q 395 -20 469 -20 m 594 464 q 598 483 597 473 q 599 492 599 488 q 599 500 599 496 q 564 591 599 557 q 469 624 530 624 q 353 584 401 624 q 278 464 305 544 l 594 464 z "},"ě":{"ha":836,"x_min":52,"x_max":790,"o":"m 278 1135 l 396 1135 l 500 981 l 661 1135 l 790 1135 l 566 880 l 401 880 l 278 1135 m 397 -20 q 139 60 226 -20 q 52 298 52 139 q 59 390 52 345 q 81 479 66 436 q 116 563 95 523 q 165 636 138 602 q 301 743 223 706 q 472 779 379 779 q 600 758 543 779 q 698 697 657 736 q 761 603 739 659 q 783 480 783 548 q 779 412 783 452 q 765 315 774 372 l 250 315 q 247 294 248 304 q 245 273 246 283 q 427 138 245 138 q 572 158 499 138 q 708 220 644 179 l 673 37 q 539 -5 608 9 q 397 -20 469 -20 m 594 464 q 599 501 599 482 q 564 591 599 558 q 467 624 530 624 q 353 584 401 624 q 278 464 305 544 l 594 464 z "},"ê":{"ha":836,"x_min":52,"x_max":783,"o":"m 453 1135 l 618 1135 l 742 880 l 623 880 l 519 1032 l 357 880 l 228 880 l 453 1135 m 395 -20 q 139 60 226 -20 q 73 161 94 102 q 52 297 52 220 q 81 481 52 390 q 118 565 97 527 q 165 636 138 603 q 229 698 195 671 q 301 743 263 725 q 380 770 338 760 q 471 779 422 779 q 598 759 540 779 q 699 698 656 739 q 761 606 738 660 q 783 484 783 553 q 782 450 783 470 q 779 412 781 429 q 774 371 778 398 q 765 315 770 343 l 250 315 q 249 304 249 310 q 248 294 248 299 l 245 273 q 258 212 245 236 q 291 172 270 188 q 427 138 336 138 q 498 143 462 138 q 572 159 535 148 q 708 220 645 180 l 673 37 q 539 -5 609 9 q 395 -20 469 -20 m 594 464 q 598 483 597 473 q 599 492 599 488 q 599 500 599 496 q 564 591 599 557 q 469 624 530 624 q 353 584 401 624 q 278 464 305 544 l 594 464 z "},"ë":{"ha":836,"x_min":52,"x_max":783,"o":"m 298 913 q 282 920 288 913 q 279 936 277 926 l 304 1062 q 326 1080 307 1080 l 446 1080 q 464 1063 464 1080 q 464 1060 464 1060 q 463 1058 463 1059 l 438 932 q 416 913 435 913 l 298 913 m 566 913 q 550 920 555 913 q 547 936 545 926 l 572 1062 q 593 1080 574 1080 l 714 1080 q 732 1063 732 1080 q 732 1060 732 1060 q 732 1058 732 1059 l 707 932 q 685 913 703 913 l 566 913 m 395 -20 q 139 60 226 -20 q 73 161 94 102 q 52 297 52 220 q 81 481 52 390 q 118 565 97 527 q 165 636 138 603 q 229 698 195 671 q 301 743 263 725 q 380 770 338 760 q 471 779 422 779 q 598 759 540 779 q 699 698 656 739 q 761 606 738 660 q 783 484 783 553 q 782 450 783 470 q 779 412 781 429 q 774 371 778 398 q 765 315 770 343 l 250 315 q 249 304 249 310 q 248 294 248 299 l 245 273 q 258 212 245 236 q 291 172 270 188 q 427 138 336 138 q 498 143 462 138 q 572 159 535 148 q 708 220 645 180 l 673 37 q 539 -5 609 9 q 395 -20 469 -20 m 594 464 q 598 483 597 473 q 599 492 599 488 q 599 500 599 496 q 564 591 599 557 q 469 624 530 624 q 353 584 401 624 q 278 464 305 544 l 594 464 z "},"ė":{"ha":836,"x_min":52,"x_max":783,"o":"m 431 915 q 416 921 420 915 q 414 937 412 927 l 439 1063 q 460 1082 441 1082 l 604 1082 q 620 1076 614 1082 q 623 1059 625 1069 l 598 933 q 576 915 595 915 l 431 915 m 397 -20 q 139 60 226 -20 q 52 298 52 139 q 59 390 52 345 q 81 479 66 436 q 116 563 95 523 q 165 636 138 602 q 301 743 223 706 q 472 779 379 779 q 600 758 543 779 q 698 697 657 736 q 761 603 739 659 q 783 480 783 548 q 779 412 783 452 q 765 315 774 372 l 250 315 q 247 294 248 304 q 245 273 246 283 q 427 138 245 138 q 572 158 499 138 q 708 220 644 179 l 673 37 q 539 -5 608 9 q 397 -20 469 -20 m 594 464 q 599 501 599 482 q 564 591 599 558 q 467 624 530 624 q 353 584 401 624 q 278 464 305 544 l 594 464 z "},"è":{"ha":836,"x_min":52,"x_max":783,"o":"m 265 1135 l 458 1135 l 600 880 l 465 880 l 265 1135 m 395 -20 q 139 60 226 -20 q 73 161 94 102 q 52 297 52 220 q 81 481 52 390 q 118 565 97 527 q 165 636 138 603 q 229 698 195 671 q 301 743 263 725 q 380 770 338 760 q 471 779 422 779 q 598 759 540 779 q 699 698 656 739 q 761 606 738 660 q 783 484 783 553 q 782 450 783 470 q 779 412 781 429 q 774 371 778 398 q 765 315 770 343 l 250 315 q 249 304 249 310 q 248 294 248 299 l 245 273 q 258 212 245 236 q 291 172 270 188 q 427 138 336 138 q 498 143 462 138 q 572 159 535 148 q 708 220 645 180 l 673 37 q 539 -5 609 9 q 395 -20 469 -20 m 594 464 q 598 483 597 473 q 599 492 599 488 q 599 500 599 496 q 564 591 599 557 q 469 624 530 624 q 353 584 401 624 q 278 464 305 544 l 594 464 z "},"ē":{"ha":836,"x_min":52,"x_max":783,"o":"m 317 1042 l 745 1042 l 720 915 l 292 915 l 317 1042 m 397 -20 q 139 60 226 -20 q 52 298 52 139 q 59 390 52 345 q 81 479 66 436 q 116 563 95 523 q 165 636 138 602 q 301 743 223 706 q 472 779 379 779 q 600 758 543 779 q 698 697 657 736 q 761 603 739 659 q 783 480 783 548 q 779 412 783 452 q 765 315 774 372 l 250 315 q 247 294 248 304 q 245 273 246 283 q 427 138 245 138 q 572 158 499 138 q 708 220 644 179 l 673 37 q 539 -5 608 9 q 397 -20 469 -20 m 594 464 q 599 501 599 482 q 564 591 599 558 q 467 624 530 624 q 353 584 401 624 q 278 464 305 544 l 594 464 z "},"ę":{"ha":836,"x_min":52,"x_max":783,"o":"m 250 315 q 247 294 248 304 q 245 273 246 283 q 427 138 245 138 q 572 158 499 138 q 708 220 644 179 l 673 37 q 618 16 646 26 q 562 0 591 7 q 495 -79 511 -54 q 483 -103 487 -92 q 479 -123 479 -113 q 495 -158 479 -143 q 547 -172 511 -172 q 593 -168 565 -172 q 652 -151 621 -163 l 631 -257 q 567 -268 598 -264 q 510 -272 536 -272 q 400 -247 440 -272 q 361 -173 361 -221 q 381 -100 361 -140 q 447 -18 402 -61 q 397 -20 422 -20 q 139 60 226 -20 q 52 298 52 139 q 59 390 52 345 q 81 479 66 436 q 116 563 95 523 q 165 636 138 602 q 301 743 223 706 q 472 779 379 779 q 600 758 543 779 q 698 697 657 736 q 761 603 739 659 q 783 480 783 548 q 779 412 783 452 q 765 315 774 372 l 250 315 m 467 624 q 353 584 401 624 q 278 464 305 544 l 594 464 q 599 501 599 482 q 564 591 599 558 q 467 624 530 624 z "},"f":{"ha":836,"x_min":124,"x_max":827,"o":"m 309 607 l 124 607 l 153 760 l 338 760 l 349 812 q 388 936 365 890 q 440 1006 410 982 q 526 1043 471 1030 q 665 1055 581 1055 l 827 1055 l 798 903 l 642 903 q 578 884 597 903 q 561 856 569 875 q 548 811 553 838 l 537 760 l 770 760 l 741 607 l 508 607 l 390 0 l 191 0 l 309 607 z "},"g":{"ha":836,"x_min":12,"x_max":807,"o":"m 262 -288 q 133 -277 195 -288 q 72 -264 102 -272 q 12 -248 42 -257 l 49 -68 q 156 -114 100 -99 q 213 -125 184 -121 q 269 -129 241 -129 q 347 -119 313 -129 q 404 -90 380 -109 q 444 -37 430 -68 q 467 35 458 -6 l 485 125 q 396 40 448 68 q 277 11 344 11 q 184 28 226 11 q 109 82 142 45 q 61 165 77 119 q 46 276 46 212 q 53 368 46 320 q 75 463 60 415 q 110 556 90 515 q 153 632 130 598 q 269 741 201 702 q 408 781 336 781 q 525 743 479 781 q 585 636 570 706 l 628 760 l 807 760 l 669 57 q 621 -101 652 -35 q 540 -210 589 -168 q 262 -288 447 -288 m 353 167 q 425 190 391 167 q 488 257 460 212 q 531 357 517 302 q 545 467 545 412 q 538 531 545 502 q 517 580 532 559 q 482 608 502 600 q 440 616 463 616 q 367 593 401 616 q 305 527 332 570 q 263 426 277 482 q 249 315 249 370 q 255 252 249 281 q 276 204 261 224 q 353 167 304 167 z "},"ğ":{"ha":836,"x_min":12,"x_max":807,"o":"m 508 882 q 359 927 409 882 q 322 980 336 948 q 309 1061 309 1013 l 309 1084 l 407 1084 l 407 1075 q 437 1009 407 1034 q 518 985 466 985 q 613 1011 573 985 q 646 1041 633 1024 q 669 1084 660 1059 l 766 1084 q 735 999 757 1036 q 680 935 714 962 q 508 882 612 882 m 262 -288 q 133 -277 195 -288 q 72 -264 102 -272 q 12 -248 42 -257 l 49 -68 q 156 -114 100 -99 q 213 -125 184 -121 q 269 -129 241 -129 q 347 -119 313 -129 q 404 -90 380 -109 q 444 -37 430 -68 q 467 35 458 -6 l 485 125 q 396 40 448 68 q 277 11 344 11 q 184 28 226 11 q 109 82 142 45 q 61 165 77 119 q 46 276 46 212 q 53 368 46 320 q 75 463 60 415 q 110 556 90 515 q 153 632 130 598 q 269 741 201 702 q 408 781 336 781 q 525 743 479 781 q 585 636 570 706 l 628 760 l 807 760 l 669 57 q 621 -101 652 -35 q 540 -210 589 -168 q 262 -288 447 -288 m 353 167 q 425 190 391 167 q 488 257 460 212 q 531 358 517 303 q 545 467 545 414 q 538 531 545 502 q 517 580 532 559 q 484 607 503 598 q 440 616 464 616 q 367 593 401 616 q 305 527 332 570 q 263 426 277 482 q 249 315 249 370 q 255 252 249 281 q 276 204 261 224 q 353 167 304 167 z "},"ǧ":{"ha":836,"x_min":12,"x_max":807,"o":"m 281 1137 l 399 1137 l 503 983 l 664 1137 l 793 1137 l 568 882 l 404 882 l 281 1137 m 264 -288 q 133 -277 194 -288 q 12 -248 72 -267 l 49 -68 q 156 -114 100 -98 q 268 -129 212 -129 q 346 -119 313 -129 q 404 -89 380 -109 q 443 -38 428 -68 q 467 35 458 -7 l 485 125 q 394 39 447 66 q 277 11 342 11 q 182 29 224 11 q 109 81 139 47 q 62 166 79 116 q 46 279 46 216 q 54 371 46 323 q 76 465 62 418 q 109 554 90 511 q 153 632 129 597 q 269 742 201 703 q 409 781 336 781 q 525 743 479 781 q 585 636 570 706 l 628 760 l 807 760 l 669 57 q 620 -102 651 -37 q 540 -209 589 -168 q 423 -269 491 -250 q 264 -288 355 -288 m 350 167 q 426 192 391 167 q 488 258 461 216 q 529 353 514 299 q 545 464 545 406 q 517 579 545 542 q 443 616 490 616 q 368 592 403 616 q 306 527 332 568 q 264 432 279 486 q 249 319 249 378 q 276 204 249 241 q 350 167 302 167 z "},"ģ":{"ha":836,"x_min":12,"x_max":807,"o":"m 516 1071 l 648 1071 l 547 863 l 356 863 l 516 1071 m 264 -288 q 133 -277 194 -288 q 12 -248 72 -267 l 49 -68 q 156 -114 100 -98 q 268 -129 212 -129 q 346 -119 313 -129 q 404 -89 380 -109 q 443 -38 428 -68 q 467 35 458 -7 l 485 125 q 394 39 447 66 q 277 11 342 11 q 182 29 224 11 q 109 81 139 47 q 62 166 79 116 q 46 279 46 216 q 54 371 46 323 q 76 465 62 418 q 109 554 90 511 q 153 632 129 597 q 269 742 201 703 q 409 781 336 781 q 525 743 479 781 q 585 636 570 706 l 628 760 l 807 760 l 669 57 q 620 -102 651 -37 q 540 -209 589 -168 q 423 -269 491 -250 q 264 -288 355 -288 m 350 167 q 426 192 391 167 q 488 258 461 216 q 529 353 514 299 q 545 464 545 406 q 517 579 545 542 q 443 616 490 616 q 368 592 403 616 q 306 527 332 568 q 264 432 279 486 q 249 319 249 378 q 276 204 249 241 q 350 167 302 167 z "},"ġ":{"ha":836,"x_min":12,"x_max":807,"o":"m 439 916 q 424 922 428 916 q 421 939 419 928 l 446 1065 q 468 1083 449 1083 l 612 1083 q 627 1077 622 1083 q 630 1061 632 1071 l 606 935 q 584 916 602 916 l 439 916 m 264 -288 q 133 -277 194 -288 q 12 -248 72 -267 l 49 -68 q 156 -114 100 -98 q 268 -129 212 -129 q 346 -119 313 -129 q 404 -89 380 -109 q 443 -38 428 -68 q 467 35 458 -7 l 485 125 q 394 39 447 66 q 277 11 342 11 q 182 29 224 11 q 109 81 139 47 q 62 166 79 116 q 46 279 46 216 q 54 371 46 323 q 76 465 62 418 q 109 554 90 511 q 153 632 129 597 q 269 742 201 703 q 409 781 336 781 q 525 743 479 781 q 585 636 570 706 l 628 760 l 807 760 l 669 57 q 620 -102 651 -37 q 540 -209 589 -168 q 423 -269 491 -250 q 264 -288 355 -288 m 350 167 q 426 192 391 167 q 488 258 461 216 q 529 353 514 299 q 545 464 545 406 q 517 579 545 542 q 443 616 490 616 q 368 592 403 616 q 306 527 332 568 q 264 432 279 486 q 249 319 249 378 q 276 204 249 241 q 350 167 302 167 z "},"h":{"ha":836,"x_min":40,"x_max":760,"o":"m 245 1055 l 443 1055 l 364 646 q 404 703 381 678 q 454 743 427 727 q 581 778 509 778 q 656 766 623 778 q 713 731 689 755 q 747 675 735 709 q 760 597 760 642 q 759 576 760 587 q 757 551 758 564 q 753 526 755 543 q 747 494 751 509 l 652 0 l 453 0 l 543 463 q 545 471 544 465 q 546 483 545 477 q 548 493 547 488 q 549 498 549 498 q 550 516 549 507 q 550 532 550 525 q 546 567 550 551 q 530 595 541 583 q 474 615 511 615 q 420 602 444 615 q 378 567 396 589 q 343 507 357 542 q 321 427 330 471 l 239 0 l 40 0 l 245 1055 z "},"ħ":{"ha":836,"x_min":14,"x_max":732,"o":"m 182 861 l 73 861 l 95 972 l 203 972 l 219 1055 l 416 1055 l 401 972 l 589 972 l 567 861 l 379 861 l 337 646 q 428 744 372 711 q 555 778 484 778 q 686 731 640 778 q 732 595 732 684 q 730 555 732 578 q 720 493 727 532 l 624 0 l 427 0 l 516 463 q 524 509 522 494 q 525 532 525 524 q 507 601 525 579 q 451 623 490 623 q 352 575 391 623 q 296 435 313 527 l 212 0 l 14 0 l 182 861 z "},"i":{"ha":836,"x_min":176,"x_max":728,"o":"m 417 897 q 398 914 398 897 q 399 920 398 918 l 437 1111 q 458 1129 439 1129 l 616 1129 q 635 1112 635 1129 q 635 1107 635 1109 l 597 916 q 575 897 593 897 l 417 897 m 496 -5 q 376 4 424 -5 q 300 33 329 14 q 255 85 268 54 q 242 155 242 116 q 243 177 242 167 q 245 198 244 186 q 250 225 248 214 q 255 252 252 236 l 336 607 l 176 607 l 205 760 l 564 760 l 451 242 q 448 230 449 234 q 448 225 448 227 q 448 222 448 223 q 447 218 448 220 q 445 208 446 212 q 445 200 445 204 q 450 178 445 189 q 466 160 454 168 q 540 147 487 147 l 728 147 l 698 -5 l 496 -5 z "},"ı":{"ha":836,"x_min":176,"x_max":728,"o":"m 496 -5 q 376 4 424 -5 q 300 33 329 14 q 255 85 268 54 q 242 155 242 116 q 243 177 242 167 q 245 198 244 186 q 250 225 248 214 q 255 252 252 236 l 336 607 l 176 607 l 205 760 l 564 760 l 451 242 q 448 230 449 234 q 448 225 448 227 q 448 222 448 223 q 447 218 448 220 q 445 208 446 212 q 445 200 445 204 q 450 178 445 189 q 466 160 454 168 q 540 147 487 147 l 728 147 l 698 -5 l 496 -5 l 496 -5 z "},"í":{"ha":836,"x_min":153,"x_max":802,"o":"m 585 1118 l 802 1118 l 503 863 l 369 863 l 585 1118 m 473 -5 q 353 4 400 -5 q 276 33 305 14 q 231 85 244 54 q 218 155 218 116 q 219 177 218 167 q 222 198 220 186 q 225 223 223 210 q 231 252 228 237 l 313 607 l 153 607 l 182 760 l 540 760 l 427 242 q 425 230 425 234 q 424 224 424 227 q 424 221 424 222 q 423 218 424 220 q 421 208 422 212 q 421 200 421 204 q 426 178 421 189 q 442 160 431 168 q 516 147 463 147 l 705 147 l 674 -5 l 473 -5 z "},"î":{"ha":836,"x_min":155,"x_max":707,"o":"m 404 1135 l 569 1135 l 693 880 l 574 880 l 471 1032 l 308 880 l 179 880 l 404 1135 m 475 -5 q 355 4 402 -5 q 278 33 307 14 q 233 85 246 54 q 220 155 220 116 q 221 177 220 167 q 224 198 222 186 q 228 223 225 210 q 233 252 230 237 l 315 607 l 155 607 l 184 760 l 542 760 l 429 242 q 427 230 427 234 q 426 224 426 227 q 426 221 426 222 q 425 218 426 220 q 424 208 424 212 q 423 200 423 204 q 428 178 423 189 q 444 160 433 168 q 518 147 465 147 l 707 147 l 676 -5 l 475 -5 z "},"ï":{"ha":836,"x_min":167,"x_max":719,"o":"m 268 913 q 253 920 258 913 q 250 936 248 926 l 274 1062 q 296 1080 277 1080 l 416 1080 q 428 1076 425 1080 q 433 1064 431 1072 q 433 1058 434 1061 l 408 932 q 387 913 405 913 l 268 913 m 536 913 q 520 920 526 913 q 517 936 515 926 l 542 1062 q 564 1080 545 1080 l 684 1080 q 696 1076 694 1080 q 702 1064 699 1072 q 702 1058 703 1061 l 677 932 q 655 913 673 913 l 536 913 m 487 -5 q 367 4 414 -5 q 290 33 319 14 q 245 85 258 54 q 233 155 233 116 q 234 177 233 167 q 236 198 235 186 q 240 223 237 210 q 245 252 242 237 l 327 607 l 167 607 l 196 760 l 554 760 l 441 242 q 439 230 439 234 q 438 224 438 227 q 438 221 438 222 q 437 218 438 220 q 436 208 436 212 q 435 200 435 204 q 440 178 435 189 q 456 160 445 168 q 530 147 477 147 l 719 147 l 688 -5 l 487 -5 z "},"ì":{"ha":836,"x_min":180,"x_max":732,"o":"m 208 1118 l 400 1118 l 542 863 l 408 863 l 208 1118 m 500 -5 q 380 4 427 -5 q 303 33 332 14 q 258 85 271 54 q 245 155 245 116 q 247 177 245 167 q 249 198 248 186 q 253 223 250 210 q 258 252 255 237 l 340 607 l 180 607 l 209 760 l 567 760 l 454 242 q 452 230 452 234 q 451 224 451 227 q 451 221 451 222 q 450 218 451 220 q 449 208 449 212 q 448 200 448 204 q 453 178 448 189 q 469 160 458 168 q 543 147 490 147 l 732 147 l 701 -5 l 500 -5 z "},"ī":{"ha":836,"x_min":166,"x_max":718,"o":"m 249 1023 l 677 1023 l 652 895 l 224 895 l 249 1023 m 486 -5 q 366 4 414 -5 q 290 33 319 14 q 245 85 258 54 q 232 155 232 116 q 233 177 232 167 q 235 198 234 186 q 239 225 237 214 q 245 252 241 236 l 326 607 l 166 607 l 195 760 l 553 760 l 441 242 q 438 230 439 234 q 437 225 437 227 q 437 222 437 223 q 437 218 437 220 q 435 208 435 212 q 435 200 435 204 q 439 178 435 189 q 456 160 444 168 q 530 147 477 147 l 718 147 l 688 -5 l 486 -5 z "},"į":{"ha":836,"x_min":166,"x_max":718,"o":"m 369 897 q 353 903 358 897 q 351 920 349 909 l 389 1111 q 410 1129 391 1129 l 568 1129 q 584 1123 579 1129 q 587 1107 589 1117 l 549 916 q 527 897 545 897 l 369 897 m 558 -5 q 497 -78 513 -54 q 485 -101 489 -91 q 481 -122 481 -112 q 497 -156 481 -142 q 549 -171 513 -171 q 595 -166 567 -171 q 654 -150 623 -161 l 633 -256 q 569 -267 600 -263 q 512 -271 538 -271 q 402 -245 442 -271 q 363 -172 363 -220 q 387 -94 363 -136 q 461 -5 410 -52 q 358 6 399 -3 q 290 33 316 16 q 245 85 258 54 q 232 155 232 116 q 233 177 232 167 q 235 198 234 186 q 239 221 237 206 q 245 252 241 235 l 326 607 l 166 607 l 195 760 l 553 760 l 441 242 q 438 230 439 234 q 437 225 437 227 q 437 222 437 223 q 437 218 437 220 q 435 208 435 212 q 435 200 435 204 q 439 178 435 189 q 456 160 444 168 q 530 147 477 147 l 718 147 l 688 -5 l 558 -5 z "},"ĩ":{"ha":836,"x_min":173,"x_max":725,"o":"m 545 861 q 499 870 522 861 q 450 900 477 879 l 417 925 q 414 928 416 926 q 364 950 385 950 q 323 927 341 950 q 299 863 306 903 l 205 863 q 226 942 211 907 q 263 1003 241 978 q 314 1042 286 1028 q 374 1055 342 1055 q 396 1053 386 1055 q 418 1047 407 1051 q 442 1034 429 1042 q 470 1014 454 1026 l 505 987 q 552 966 531 966 q 595 989 578 966 q 620 1054 613 1011 l 714 1054 q 545 861 682 861 m 493 -5 q 373 4 420 -5 q 296 33 326 14 q 252 85 264 54 q 239 155 239 116 q 240 177 239 167 q 242 198 241 186 q 246 221 243 206 q 252 252 248 235 l 333 607 l 173 607 l 202 760 l 560 760 l 448 242 q 445 230 446 234 q 444 225 444 227 q 444 222 444 223 q 444 218 444 220 q 442 208 442 212 q 441 200 441 204 q 446 178 441 189 q 463 160 451 168 q 536 147 484 147 l 725 147 l 694 -5 l 493 -5 z "},"j":{"ha":836,"x_min":-16,"x_max":736,"o":"m 517 897 q 502 903 507 897 q 499 920 497 909 l 536 1111 q 558 1129 539 1129 l 716 1129 q 731 1123 726 1129 q 734 1107 736 1117 l 697 916 q 675 897 694 897 l 517 897 m 15 -135 l 172 -135 q 274 -99 239 -135 q 306 -45 294 -79 q 326 29 317 -12 l 438 607 l 237 607 l 266 760 l 666 760 l 524 29 q 512 -30 517 -5 q 500 -75 506 -56 q 490 -108 495 -94 q 481 -133 486 -122 q 429 -213 460 -181 q 384 -247 408 -233 q 333 -270 359 -261 q 272 -283 306 -279 q 193 -288 237 -288 l -16 -288 l 15 -135 z "},"k":{"ha":836,"x_min":42,"x_max":867,"o":"m 246 1055 l 445 1055 l 342 525 l 616 760 l 867 760 l 524 476 l 736 0 l 526 0 l 375 355 l 296 290 l 241 0 l 42 0 l 246 1055 z "},"ķ":{"ha":836,"x_min":42,"x_max":867,"o":"m 246 1055 l 445 1055 l 342 525 l 616 760 l 867 760 l 524 476 l 736 0 l 526 0 l 375 355 l 296 290 l 241 0 l 42 0 l 246 1055 m 308 -107 l 499 -107 l 339 -315 l 208 -315 l 308 -107 z "},"l":{"ha":836,"x_min":157,"x_max":700,"o":"m 468 -7 q 348 3 395 -7 q 271 32 300 12 q 229 80 243 50 q 214 153 214 109 q 215 176 214 165 q 217 197 216 186 q 221 219 218 203 q 227 250 223 235 l 364 903 l 157 903 l 186 1055 l 591 1055 l 422 241 q 420 229 420 233 q 419 223 419 225 q 419 220 419 221 q 418 216 419 219 q 417 207 417 211 q 416 199 416 203 q 421 177 416 187 q 437 159 426 166 q 511 146 458 146 l 700 146 l 669 -7 l 468 -7 l 468 -7 z "},"ĺ":{"ha":836,"x_min":157,"x_max":770,"o":"m 580 1289 l 770 1289 l 553 1110 l 413 1110 l 580 1289 m 468 -7 q 352 2 400 -7 q 273 31 304 12 q 228 79 242 50 q 214 151 214 109 q 217 195 214 171 q 227 250 220 218 l 364 903 l 157 903 l 186 1055 l 591 1055 l 422 241 q 416 196 416 210 q 441 157 416 168 q 511 146 465 146 l 700 146 l 669 -7 l 468 -7 z "},"ľ":{"ha":836,"x_min":157,"x_max":889,"o":"m 468 -7 q 352 2 400 -7 q 273 31 304 12 q 228 79 242 50 q 214 151 214 109 q 217 195 214 171 q 227 250 220 218 l 364 903 l 157 903 l 186 1055 l 591 1055 l 422 241 q 416 196 416 210 q 441 157 416 168 q 511 146 465 146 l 700 146 l 669 -7 l 468 -7 m 671 1055 l 889 1055 l 715 800 l 581 800 l 671 1055 z "},"ļ":{"ha":836,"x_min":142,"x_max":700,"o":"m 468 -7 q 352 2 400 -7 q 273 31 304 12 q 228 79 242 50 q 214 151 214 109 q 217 195 214 171 q 227 250 220 218 l 364 903 l 157 903 l 186 1055 l 591 1055 l 422 241 q 416 196 416 210 q 441 157 416 168 q 511 146 465 146 l 700 146 l 669 -7 l 468 -7 m 243 -104 l 434 -104 l 274 -311 l 142 -311 l 243 -104 z "},"ł":{"ha":836,"x_min":33,"x_max":814,"o":"m 488 -7 q 291 31 349 -7 q 248 82 262 50 q 233 154 233 113 q 234 175 233 165 q 237 197 235 185 q 240 222 238 208 q 245 250 242 235 l 281 427 l 94 294 l 33 393 l 317 586 l 383 903 l 176 903 l 205 1055 l 611 1055 l 547 741 l 744 878 l 814 785 l 513 581 l 441 240 q 439 229 439 232 q 438 224 438 226 q 438 222 438 223 q 437 216 438 220 q 436 206 437 212 q 436 195 436 199 q 442 173 436 182 q 457 159 448 164 q 483 150 467 153 q 530 146 499 146 l 720 146 l 689 -7 l 488 -7 l 488 -7 z "},"m":{"ha":836,"x_min":-22,"x_max":818,"o":"m 125 760 l 255 760 l 254 681 q 323 753 282 728 q 411 778 363 778 q 488 753 458 778 q 522 684 517 727 q 587 753 543 727 q 681 778 631 778 q 739 768 713 778 q 781 741 764 758 q 809 692 801 720 q 818 631 818 664 q 817 604 818 620 q 814 572 816 588 q 808 530 812 553 q 800 488 804 506 l 705 0 l 543 0 l 637 488 q 643 515 641 503 q 647 543 645 528 q 649 562 648 553 q 650 575 650 570 q 646 600 650 591 q 638 615 643 610 q 603 629 626 629 q 551 599 570 629 q 533 555 541 583 q 517 488 524 528 l 422 0 l 260 0 l 355 488 q 360 512 357 496 q 364 538 363 528 q 366 558 366 550 q 367 573 367 567 q 355 615 367 601 q 319 629 342 629 q 269 600 288 629 q 250 556 258 583 q 235 488 242 528 l 140 0 l -22 0 l 125 760 z "},"n":{"ha":836,"x_min":40,"x_max":760,"o":"m 187 760 l 366 760 l 364 646 q 404 703 381 678 q 454 743 427 727 q 581 778 509 778 q 656 766 623 778 q 713 731 689 755 q 747 675 735 709 q 760 597 760 642 q 759 576 760 587 q 757 551 758 564 q 753 526 755 543 q 747 494 751 509 l 652 0 l 453 0 l 543 463 q 547 486 546 476 q 549 498 548 495 q 550 516 549 507 q 550 531 550 524 q 546 567 550 551 q 530 595 541 583 q 474 615 511 615 q 378 566 418 615 q 321 427 338 517 l 239 0 l 40 0 l 187 760 z "},"ń":{"ha":836,"x_min":40,"x_max":815,"o":"m 597 1135 l 815 1135 l 515 880 l 382 880 l 597 1135 m 187 760 l 366 760 l 364 646 q 452 743 397 707 q 582 778 508 778 q 713 731 666 778 q 760 598 760 684 q 756 551 760 576 q 747 494 753 526 l 652 0 l 453 0 l 543 463 q 548 498 547 480 q 550 529 550 517 q 531 594 550 574 q 475 615 511 615 q 378 567 417 615 q 321 427 338 518 l 239 0 l 40 0 l 187 760 z "},"ň":{"ha":836,"x_min":40,"x_max":793,"o":"m 281 1135 l 399 1135 l 503 981 l 664 1135 l 793 1135 l 568 880 l 404 880 l 281 1135 m 187 760 l 366 760 l 364 646 q 452 743 397 707 q 582 778 508 778 q 713 731 666 778 q 760 598 760 684 q 756 551 760 576 q 747 494 753 526 l 652 0 l 453 0 l 543 463 q 548 498 547 480 q 550 529 550 517 q 531 594 550 574 q 475 615 511 615 q 378 567 417 615 q 321 427 338 518 l 239 0 l 40 0 l 187 760 z "},"ņ":{"ha":836,"x_min":40,"x_max":760,"o":"m 187 760 l 366 760 l 364 646 q 452 743 397 707 q 582 778 508 778 q 713 731 666 778 q 760 598 760 684 q 756 551 760 576 q 747 494 753 526 l 652 0 l 453 0 l 543 463 q 548 498 547 480 q 550 529 550 517 q 531 594 550 574 q 475 615 511 615 q 378 567 417 615 q 321 427 338 518 l 239 0 l 40 0 l 187 760 m 264 -107 l 456 -107 l 296 -315 l 164 -315 l 264 -107 z "},"ŋ":{"ha":836,"x_min":48,"x_max":764,"o":"m 284 -135 l 311 -135 q 369 -126 344 -135 q 413 -99 394 -118 q 444 -48 431 -79 q 466 29 457 -16 l 550 463 q 558 534 558 504 q 556 561 558 547 q 546 588 554 576 q 524 608 538 600 q 485 616 509 616 q 386 568 425 616 q 330 435 346 519 l 245 0 l 48 0 l 195 760 l 373 760 l 371 646 q 463 745 406 711 q 595 778 521 778 q 681 762 648 778 q 732 720 713 746 q 758 662 751 694 q 764 595 764 629 q 762 547 764 572 q 753 493 759 522 l 663 29 q 621 -116 647 -56 q 555 -215 594 -176 q 461 -270 515 -253 q 336 -288 408 -288 l 254 -288 l 284 -135 z "},"ñ":{"ha":836,"x_min":40,"x_max":765,"o":"m 597 880 q 573 882 583 880 q 551 888 562 884 q 527 900 539 893 q 501 918 515 907 l 468 943 q 466 945 466 945 q 465 946 466 945 q 441 962 453 955 q 415 968 429 968 q 374 945 391 968 q 350 881 357 922 l 256 881 q 315 1021 269 969 q 366 1060 338 1047 q 424 1074 393 1074 q 448 1072 435 1074 q 469 1065 460 1069 q 492 1053 479 1061 q 521 1032 505 1044 l 555 1006 q 568 997 562 1000 q 581 990 574 993 q 592 986 587 987 q 604 985 597 985 q 628 991 617 985 q 646 1008 638 997 q 671 1072 663 1030 l 765 1072 q 707 928 750 977 q 597 880 665 880 m 187 760 l 366 760 l 364 646 q 404 703 381 678 q 454 743 427 727 q 581 778 509 778 q 656 766 623 778 q 713 731 689 755 q 747 675 735 709 q 760 597 760 642 q 759 576 760 587 q 757 551 758 564 q 753 526 755 543 q 747 494 751 509 l 652 0 l 453 0 l 543 463 q 545 471 544 465 q 546 483 545 477 q 548 493 547 488 q 549 498 549 498 q 550 516 549 507 q 550 532 550 525 q 546 567 550 551 q 530 595 541 583 q 474 615 511 615 q 378 566 418 615 q 321 427 338 517 l 239 0 l 40 0 l 187 760 z "},"o":{"ha":836,"x_min":60,"x_max":777,"o":"m 368 -20 q 234 3 291 -20 q 141 62 178 26 q 79 164 98 104 q 60 300 60 224 q 88 486 60 396 q 172 644 116 575 q 301 744 227 709 q 467 779 376 779 q 594 759 535 779 q 695 699 653 739 q 757 596 738 656 q 777 458 777 536 q 748 271 777 360 q 665 116 720 182 q 531 13 607 46 q 368 -20 456 -20 m 382 140 q 456 163 421 140 q 520 233 492 186 q 561 333 546 275 q 576 456 576 391 q 568 531 576 503 q 545 578 560 560 q 504 609 528 600 q 456 618 480 618 q 316 526 372 618 q 291 474 302 502 q 273 418 280 447 q 263 360 267 389 q 260 304 260 331 q 267 236 260 268 q 292 181 273 204 q 329 152 307 163 q 382 140 351 140 z "},"ó":{"ha":836,"x_min":60,"x_max":819,"o":"m 602 1135 l 819 1135 l 519 880 l 386 880 l 602 1135 m 368 -20 q 234 3 291 -20 q 141 62 178 26 q 79 164 98 104 q 60 300 60 224 q 88 486 60 396 q 172 644 116 575 q 301 744 227 709 q 467 779 376 779 q 594 759 535 779 q 695 699 653 739 q 757 596 738 656 q 777 458 777 536 q 748 271 777 360 q 665 116 720 182 q 531 13 607 46 q 368 -20 456 -20 m 382 140 q 456 163 421 140 q 520 233 492 186 q 561 333 546 275 q 576 456 576 391 q 568 531 576 503 q 545 578 560 560 q 504 609 528 600 q 456 618 480 618 q 316 526 372 618 q 291 474 302 502 q 273 418 280 447 q 263 360 267 389 q 260 304 260 331 q 267 236 260 268 q 292 181 273 204 q 329 152 307 163 q 382 140 351 140 z "},"ô":{"ha":836,"x_min":60,"x_max":777,"o":"m 453 1136 l 618 1136 l 742 881 l 623 881 l 519 1034 l 357 881 l 228 881 l 453 1136 m 368 -20 q 234 3 291 -20 q 141 62 178 26 q 79 164 98 104 q 60 300 60 224 q 88 486 60 396 q 172 644 116 575 q 301 744 227 709 q 467 779 376 779 q 594 759 535 779 q 695 699 653 739 q 757 596 738 656 q 777 458 777 536 q 748 271 777 360 q 665 116 720 182 q 531 13 607 46 q 368 -20 456 -20 m 382 140 q 456 163 421 140 q 520 233 492 186 q 561 333 546 275 q 576 456 576 391 q 568 531 576 503 q 545 578 560 560 q 504 609 528 600 q 456 618 480 618 q 316 526 372 618 q 291 474 302 502 q 273 418 280 447 q 263 360 267 389 q 260 304 260 331 q 267 236 260 268 q 292 181 273 204 q 329 152 307 163 q 382 140 351 140 z "},"ö":{"ha":836,"x_min":60,"x_max":777,"o":"m 304 913 q 289 920 294 913 q 286 936 284 926 l 311 1062 q 332 1080 313 1080 l 452 1080 q 471 1063 471 1080 q 470 1060 471 1060 q 470 1058 470 1059 l 445 932 q 423 913 441 913 l 304 913 m 572 913 q 557 920 562 913 q 554 936 552 926 l 578 1062 q 600 1080 581 1080 l 721 1080 q 739 1063 739 1080 q 739 1060 739 1060 q 739 1058 739 1059 l 713 932 q 692 913 710 913 l 572 913 m 368 -20 q 234 3 291 -20 q 141 62 178 26 q 79 164 98 104 q 60 300 60 224 q 88 486 60 396 q 172 644 116 575 q 301 744 227 709 q 467 779 376 779 q 594 759 535 779 q 695 699 653 739 q 757 596 738 656 q 777 458 777 536 q 748 271 777 360 q 665 116 720 182 q 531 13 607 46 q 368 -20 456 -20 m 382 140 q 456 163 421 140 q 520 233 492 186 q 561 333 546 275 q 576 456 576 391 q 568 531 576 503 q 545 578 560 560 q 504 609 528 600 q 456 618 480 618 q 316 526 372 618 q 291 474 302 502 q 273 418 280 447 q 263 360 267 389 q 260 304 260 331 q 267 236 260 268 q 292 181 273 204 q 329 152 307 163 q 382 140 351 140 z "},"ò":{"ha":836,"x_min":60,"x_max":777,"o":"m 252 1135 l 444 1135 l 586 880 l 452 880 l 252 1135 m 368 -20 q 234 3 291 -20 q 141 62 178 26 q 79 164 98 104 q 60 300 60 224 q 88 486 60 396 q 172 644 116 575 q 301 744 227 709 q 467 779 376 779 q 594 759 535 779 q 695 699 653 739 q 757 596 738 656 q 777 458 777 536 q 748 271 777 360 q 665 116 720 182 q 531 13 607 46 q 368 -20 456 -20 m 382 140 q 456 163 421 140 q 520 233 492 186 q 561 333 546 275 q 576 456 576 391 q 568 531 576 503 q 545 578 560 560 q 504 609 528 600 q 456 618 480 618 q 316 526 372 618 q 291 474 302 502 q 273 418 280 447 q 263 360 267 389 q 260 304 260 331 q 267 236 260 268 q 292 181 273 204 q 329 152 307 163 q 382 140 351 140 z "},"ơ":{"ha":836,"x_min":33,"x_max":878,"o":"m 878 791 q 875 723 878 754 q 867 663 873 691 q 823 556 854 597 q 747 505 793 516 q 749 478 749 492 q 750 451 750 465 q 723 273 750 358 q 642 123 695 188 q 512 19 589 58 q 335 -20 435 -20 q 209 1 265 -20 q 114 63 153 22 q 54 165 75 104 q 33 308 33 227 q 45 429 33 370 q 82 540 58 488 q 141 636 106 592 q 222 712 176 680 q 325 762 269 744 q 448 779 382 779 q 617 739 547 779 q 721 616 686 699 q 752 640 738 623 q 772 686 766 657 q 776 712 774 698 q 777 739 777 727 q 772 791 777 762 l 878 791 m 351 140 q 434 168 397 140 q 496 238 471 195 q 536 338 522 282 q 550 450 550 393 q 519 577 550 537 q 434 618 488 618 q 348 590 386 618 q 285 518 311 562 q 247 418 260 473 q 233 309 233 363 q 266 181 233 222 q 351 140 298 140 z "},"ő":{"ha":836,"x_min":60,"x_max":860,"o":"m 415 1135 l 582 1135 l 364 880 l 253 880 l 415 1135 m 684 1135 l 860 1135 l 625 880 l 509 880 l 684 1135 m 361 -20 q 236 1 292 -20 q 141 63 180 22 q 81 165 102 104 q 60 308 60 227 q 72 429 60 370 q 108 540 84 488 q 168 636 132 592 q 249 712 203 680 q 352 762 295 744 q 475 779 408 779 q 601 759 545 779 q 695 697 656 738 q 755 594 734 656 q 777 451 777 533 q 749 273 777 358 q 669 123 722 188 q 538 19 616 58 q 361 -20 461 -20 m 378 140 q 460 168 423 140 q 523 238 497 195 q 563 338 549 282 q 576 450 576 393 q 545 577 576 537 q 460 618 514 618 q 375 590 412 618 q 312 518 337 562 q 273 418 286 473 q 260 309 260 363 q 292 181 260 222 q 378 140 324 140 z "},"ō":{"ha":836,"x_min":60,"x_max":777,"o":"m 311 1042 l 739 1042 l 714 915 l 286 915 l 311 1042 m 361 -20 q 236 1 292 -20 q 141 63 180 22 q 81 165 102 104 q 60 308 60 227 q 72 429 60 370 q 108 540 84 488 q 168 636 132 592 q 249 712 203 680 q 352 762 295 744 q 475 779 408 779 q 601 759 545 779 q 695 697 656 738 q 755 594 734 656 q 777 451 777 533 q 749 273 777 358 q 669 123 722 188 q 538 19 616 58 q 361 -20 461 -20 m 378 140 q 460 168 423 140 q 523 238 497 195 q 563 338 549 282 q 576 450 576 393 q 545 577 576 537 q 460 618 514 618 q 375 590 412 618 q 312 518 337 562 q 273 418 286 473 q 260 309 260 363 q 292 181 260 222 q 378 140 324 140 z "},"ø":{"ha":836,"x_min":-56,"x_max":889,"o":"m -56 1 l 87 142 q 76 175 80 160 q 67 209 71 190 q 62 245 64 227 q 60 292 60 264 q 88 486 60 395 q 172 644 117 577 q 303 746 228 712 q 467 779 379 779 q 526 775 497 779 q 582 762 555 771 q 679 711 633 745 l 810 838 l 889 755 l 749 619 q 761 585 755 602 q 770 549 766 568 q 775 513 773 530 q 777 472 777 496 q 748 275 777 367 q 665 115 720 183 q 536 15 611 50 q 367 -20 461 -20 q 306 -16 335 -20 q 251 -3 277 -12 q 158 49 199 14 l 24 -79 l -56 1 m 543 581 q 505 609 526 600 q 457 618 485 618 q 382 598 414 618 q 324 538 350 578 q 282 439 298 496 q 260 307 267 382 l 543 581 m 381 140 q 514 222 463 140 q 556 322 541 265 q 576 454 571 380 l 294 180 q 312 162 304 169 q 332 151 321 156 q 381 140 353 140 z "},"ǿ":{"ha":836,"x_min":-56,"x_max":889,"o":"m 602 1136 l 819 1136 l 519 881 l 386 881 l 602 1136 m -56 1 l 87 142 q 66 210 73 175 q 60 294 60 244 q 89 490 60 400 q 172 643 119 579 q 301 743 226 707 q 468 779 376 779 q 679 711 590 779 l 810 838 l 889 755 l 749 619 q 761 583 756 601 q 770 547 766 566 q 775 508 773 528 q 777 464 777 488 q 747 268 777 357 q 664 115 718 179 q 534 16 610 52 q 365 -20 458 -20 q 158 49 239 -20 l 24 -79 l -56 1 m 543 581 q 456 618 510 618 q 324 538 375 618 q 260 307 273 459 l 543 581 m 381 140 q 455 161 422 140 q 514 222 489 182 q 555 321 539 262 q 576 454 571 379 l 294 180 q 381 140 326 140 z "},"õ":{"ha":836,"x_min":60,"x_max":777,"o":"m 597 881 q 573 883 583 881 q 551 890 562 885 q 527 902 539 895 q 501 920 515 909 l 468 945 q 466 946 466 947 q 465 947 466 946 q 441 963 453 956 q 415 970 429 970 q 374 947 391 970 q 350 882 357 924 l 256 882 q 315 1023 269 970 q 366 1062 338 1048 q 424 1075 393 1075 q 448 1073 435 1075 q 469 1067 460 1071 q 492 1054 479 1063 q 521 1034 505 1045 l 555 1007 q 568 998 562 1002 q 581 991 574 994 q 592 987 587 989 q 604 986 597 986 q 628 992 617 986 q 646 1009 638 998 q 671 1074 663 1031 l 765 1074 q 707 930 750 979 q 597 881 665 881 m 368 -20 q 234 3 291 -20 q 141 62 178 26 q 79 164 98 104 q 60 300 60 224 q 88 486 60 396 q 172 644 116 575 q 301 744 227 709 q 467 779 376 779 q 594 759 535 779 q 695 699 653 739 q 757 596 738 656 q 777 458 777 536 q 748 271 777 360 q 665 116 720 182 q 531 13 607 46 q 368 -20 456 -20 m 382 140 q 456 163 421 140 q 520 233 492 186 q 561 333 546 275 q 576 456 576 391 q 568 531 576 503 q 545 578 560 560 q 504 609 528 600 q 456 618 480 618 q 316 526 372 618 q 291 474 302 502 q 273 418 280 447 q 263 360 267 389 q 260 304 260 331 q 267 236 260 268 q 292 181 273 204 q 329 152 307 163 q 382 140 351 140 z "},"œ":{"ha":836,"x_min":-14,"x_max":856,"o":"m 201 -20 q 111 -6 152 -20 q 42 37 71 8 q 1 105 15 64 q -14 210 -14 147 q -8 299 -14 248 q 8 404 -3 350 q 35 509 20 460 q 67 597 50 557 q 112 675 87 642 q 172 732 137 709 q 246 766 206 755 q 329 778 286 778 q 380 773 355 778 q 426 758 405 768 q 464 731 447 747 q 492 696 480 715 q 571 757 524 735 q 673 778 617 778 q 753 766 719 778 q 809 731 787 753 q 844 673 833 707 q 856 595 856 638 q 854 555 856 578 q 850 516 852 533 q 843 468 848 496 q 833 411 839 439 l 818 325 l 513 325 q 508 294 509 307 q 505 271 506 280 q 503 241 503 254 q 510 194 503 216 q 532 156 517 172 q 566 133 545 141 q 611 125 586 125 q 694 144 648 125 q 738 165 717 153 q 783 196 760 178 l 751 35 q 666 -6 713 7 q 566 -20 618 -20 q 504 -13 531 -20 q 455 8 477 -5 q 396 82 409 36 q 358 38 379 56 q 314 6 338 19 q 262 -13 290 -7 q 201 -20 235 -20 m 216 125 q 249 130 235 125 q 275 146 263 136 q 297 176 288 159 q 315 218 307 194 q 331 273 322 235 q 341 319 336 293 q 353 379 346 346 q 358 407 355 392 q 363 436 361 422 q 368 462 366 450 q 372 481 370 474 q 376 513 374 496 q 378 545 378 530 q 374 583 378 566 q 360 612 370 600 q 307 633 342 633 q 245 612 269 633 q 225 585 234 601 q 206 541 216 569 q 196 508 200 523 q 186 471 191 493 q 176 428 180 448 q 165 379 171 408 q 156 331 160 351 q 149 283 153 310 q 144 247 146 260 q 143 218 143 233 q 161 147 143 169 q 216 125 178 125 m 693 468 l 700 513 q 704 540 703 526 q 705 553 705 547 q 705 566 705 559 q 692 617 705 600 q 649 633 678 633 q 587 605 610 633 q 566 567 576 591 q 550 515 555 544 l 541 468 l 693 468 z "},"p":{"ha":836,"x_min":-25,"x_max":793,"o":"m 179 760 l 358 760 l 355 646 q 459 745 403 711 q 516 769 486 761 q 579 778 546 778 q 735 704 677 778 q 779 616 764 667 q 793 498 793 566 q 788 414 793 457 q 772 326 783 370 q 746 240 761 281 q 713 165 730 199 q 595 29 666 78 q 444 -20 524 -20 q 319 22 369 -20 q 257 140 270 64 l 174 -289 l -25 -289 l 179 760 m 408 142 q 481 168 448 142 q 538 237 515 195 q 578 343 564 284 q 593 463 593 403 q 586 531 593 504 q 565 577 579 558 q 487 615 536 615 q 414 592 449 615 q 352 522 380 568 q 310 418 325 475 q 296 301 296 360 q 302 234 296 264 q 326 182 309 204 q 361 153 340 163 q 408 142 382 142 z "},"þ":{"ha":836,"x_min":-25,"x_max":793,"o":"m 236 1055 l 435 1055 l 355 646 q 459 745 403 711 q 516 769 486 761 q 579 778 546 778 q 735 704 677 778 q 779 616 764 667 q 793 498 793 566 q 788 414 793 457 q 772 326 783 370 q 746 240 761 281 q 713 165 730 199 q 595 29 666 78 q 444 -20 524 -20 q 319 22 369 -20 q 257 140 270 64 l 174 -289 l -25 -289 l 236 1055 m 408 142 q 481 168 448 142 q 538 237 515 195 q 578 343 564 284 q 593 463 593 403 q 586 531 593 504 q 565 577 579 558 q 487 615 536 615 q 414 592 449 615 q 352 522 380 568 q 310 418 325 475 q 296 301 296 360 q 302 234 296 264 q 326 182 309 204 q 361 153 340 163 q 408 142 382 142 z "},"q":{"ha":836,"x_min":46,"x_max":804,"o":"m 481 113 q 382 14 437 47 q 261 -20 326 -20 q 173 -1 214 -20 q 104 55 133 18 q 60 144 75 92 q 46 262 46 197 q 51 346 46 302 q 67 433 56 389 q 127 593 88 521 q 179 670 151 636 q 243 730 207 705 q 393 779 314 779 q 464 768 432 779 q 518 737 496 757 q 557 688 541 718 q 579 618 573 658 l 625 760 l 804 760 l 600 -289 l 403 -289 l 481 113 m 352 143 q 486 237 431 143 q 528 340 514 284 q 542 457 542 396 q 535 526 542 497 q 511 576 528 555 q 430 616 481 616 q 300 521 353 616 q 259 414 273 472 q 245 296 245 355 q 253 227 245 252 q 274 182 260 201 q 307 153 288 163 q 352 143 326 143 z "},"r":{"ha":836,"x_min":84,"x_max":812,"o":"m 233 760 l 412 760 l 408 642 q 517 743 450 707 q 664 778 583 778 q 745 768 707 778 q 812 739 782 758 l 776 553 q 740 579 758 568 q 703 596 721 590 q 659 607 683 604 q 610 610 635 610 q 515 595 557 610 q 440 550 472 581 q 388 471 410 521 q 352 350 366 422 l 284 0 l 84 0 l 233 760 z "},"ŕ":{"ha":836,"x_min":84,"x_max":836,"o":"m 618 1135 l 836 1135 l 536 880 l 402 880 l 618 1135 m 233 760 l 412 760 l 408 642 q 518 743 451 709 q 664 778 585 778 q 744 768 707 778 q 812 739 781 758 l 776 553 q 702 596 742 583 q 610 610 663 610 q 513 595 555 610 q 439 549 471 581 q 387 469 408 518 q 352 350 366 420 l 284 0 l 84 0 l 233 760 z "},"ř":{"ha":836,"x_min":87,"x_max":834,"o":"m 322 1135 l 440 1135 l 544 981 l 705 1135 l 834 1135 l 610 880 l 446 880 l 322 1135 m 236 760 l 415 760 l 411 642 q 522 743 454 709 q 667 778 589 778 q 747 768 710 778 q 815 739 785 758 l 779 553 q 706 596 745 583 q 613 610 666 610 q 516 595 558 610 q 443 549 474 581 q 390 469 412 518 q 355 350 369 420 l 288 0 l 87 0 l 236 760 z "},"ŗ":{"ha":836,"x_min":22,"x_max":832,"o":"m 253 760 l 432 760 l 428 642 q 538 743 471 709 q 684 778 606 778 q 764 768 727 778 q 832 739 802 758 l 796 553 q 723 596 762 583 q 630 610 683 610 q 533 595 575 610 q 460 549 491 581 q 407 469 429 518 q 372 350 386 420 l 304 0 l 104 0 l 253 760 m 123 -107 l 314 -107 l 154 -315 l 22 -315 l 123 -107 z "},"s":{"ha":836,"x_min":61,"x_max":742,"o":"m 340 -20 q 267 -17 304 -20 q 199 -8 229 -14 q 131 7 166 -3 q 61 28 95 16 l 96 201 q 157 167 128 180 q 218 144 186 154 q 280 129 250 134 q 346 123 311 123 q 463 149 420 123 q 504 221 504 174 q 498 250 504 239 q 483 268 492 260 q 441 290 469 279 q 372 313 414 301 l 313 329 q 244 357 275 339 q 191 401 213 375 q 163 453 173 424 q 153 520 153 481 q 176 628 153 580 q 244 709 200 675 q 351 760 288 742 q 492 778 414 778 q 556 775 523 778 q 616 768 589 772 q 678 754 644 763 q 742 736 713 746 l 708 564 q 598 618 656 600 q 538 632 568 627 q 478 636 508 636 q 419 630 444 636 q 375 612 394 624 q 338 549 338 589 q 363 500 338 518 q 403 479 376 490 q 475 456 430 469 l 525 441 q 601 410 570 429 q 652 369 633 391 q 682 315 671 346 q 692 243 692 284 q 668 133 692 182 q 600 51 644 85 q 486 -2 552 15 q 340 -20 419 -20 z "},"ś":{"ha":836,"x_min":61,"x_max":815,"o":"m 597 1135 l 815 1135 l 515 880 l 382 880 l 597 1135 m 336 -20 q 198 -8 268 -20 q 61 28 129 4 l 96 201 q 218 143 155 163 q 347 123 281 123 q 463 149 421 123 q 504 224 504 174 q 500 247 504 236 q 482 268 496 257 q 440 291 467 280 q 372 313 413 301 l 313 329 q 153 522 153 373 q 176 627 153 579 q 244 708 200 674 q 352 760 288 741 q 494 778 415 778 q 616 767 554 778 q 742 736 679 757 l 708 564 q 596 618 656 601 q 480 636 536 636 q 375 613 412 636 q 338 549 338 589 q 363 500 338 518 q 380 490 369 495 q 406 478 391 484 q 438 467 420 473 q 475 456 456 461 l 525 441 q 650 371 609 418 q 692 243 692 323 q 668 133 692 182 q 599 50 644 84 q 487 -2 553 16 q 336 -20 420 -20 z "},"š":{"ha":836,"x_min":61,"x_max":800,"o":"m 288 1135 l 406 1135 l 509 981 l 671 1135 l 800 1135 l 575 880 l 411 880 l 288 1135 m 340 -20 q 267 -17 304 -20 q 199 -8 229 -14 q 131 7 166 -3 q 61 28 95 16 l 96 201 q 157 167 128 180 q 218 144 186 154 q 280 129 250 134 q 346 123 311 123 q 463 149 420 123 q 504 221 504 174 q 498 250 504 239 q 483 268 492 260 q 441 290 469 279 q 372 313 414 301 l 313 329 q 244 357 275 339 q 191 401 213 375 q 163 453 173 424 q 153 520 153 481 q 176 628 153 580 q 244 709 200 675 q 351 760 288 742 q 492 778 414 778 q 556 775 523 778 q 616 768 589 772 q 678 754 644 763 q 742 736 713 746 l 708 564 q 598 618 656 600 q 538 632 568 627 q 478 636 508 636 q 419 630 444 636 q 375 612 394 624 q 338 549 338 589 q 363 500 338 518 q 403 479 376 490 q 475 456 430 469 l 525 441 q 601 410 570 429 q 652 369 633 391 q 682 315 671 346 q 692 243 692 284 q 668 133 692 182 q 600 51 644 85 q 486 -2 552 15 q 340 -20 419 -20 z "},"ş":{"ha":836,"x_min":61,"x_max":742,"o":"m 375 612 q 338 549 338 589 q 363 500 338 518 q 403 479 376 490 q 475 456 430 469 l 525 441 q 601 410 570 429 q 652 369 633 391 q 682 315 671 346 q 692 243 692 284 q 668 133 692 182 q 600 51 644 85 q 508 4 560 21 q 394 -18 456 -12 q 418 -64 410 -42 q 431 -125 431 -96 q 418 -185 431 -157 q 380 -232 406 -212 q 319 -262 355 -252 q 236 -272 283 -272 q 200 -271 218 -272 q 169 -268 182 -269 q 126 -260 140 -264 q 102 -254 113 -256 l 121 -149 q 150 -158 136 -154 q 178 -166 164 -163 q 230 -172 205 -172 q 271 -168 253 -172 q 300 -154 289 -163 q 325 -102 325 -136 q 316 -60 325 -84 q 308 -42 313 -52 q 296 -18 303 -31 q 245 -14 271 -17 q 199 -8 220 -12 q 131 7 166 -3 q 61 28 95 16 l 96 201 q 157 167 128 180 q 218 144 186 154 q 280 129 250 134 q 346 123 311 123 q 463 149 420 123 q 504 221 504 174 q 498 250 504 239 q 483 268 492 260 q 441 290 469 279 q 372 313 414 301 l 313 329 q 244 357 275 339 q 191 401 213 375 q 163 453 173 424 q 153 520 153 481 q 176 628 153 580 q 244 709 200 675 q 351 760 288 742 q 492 778 414 778 q 556 775 523 778 q 616 768 589 772 q 678 754 644 763 q 742 736 713 746 l 708 564 q 598 618 656 600 q 538 632 568 627 q 478 636 508 636 q 419 630 444 636 q 375 612 394 624 z "},"ș":{"ha":836,"x_min":61,"x_max":742,"o":"m 336 -20 q 198 -8 268 -20 q 61 28 129 4 l 96 201 q 218 143 155 163 q 347 123 281 123 q 463 149 421 123 q 504 224 504 174 q 500 247 504 236 q 482 268 496 257 q 440 291 467 280 q 372 313 413 301 l 313 329 q 153 522 153 373 q 176 627 153 579 q 244 708 200 674 q 352 760 288 741 q 494 778 415 778 q 616 767 554 778 q 742 736 679 757 l 708 564 q 596 618 656 601 q 480 636 536 636 q 375 613 412 636 q 338 549 338 589 q 363 500 338 518 q 380 490 369 495 q 406 478 391 484 q 438 467 420 473 q 475 456 456 461 l 525 441 q 650 371 609 418 q 692 243 692 323 q 668 133 692 182 q 599 50 644 84 q 487 -2 553 16 q 336 -20 420 -20 m 193 -134 l 384 -134 l 224 -342 l 92 -342 l 193 -134 z "},"ß":{"ha":836,"x_min":20,"x_max":785,"o":"m 452 -20 q 404 -17 425 -20 q 363 -11 384 -15 q 317 0 336 -5 q 275 14 298 5 l 309 183 q 347 164 328 172 q 385 151 366 157 q 454 140 419 140 q 506 147 482 140 q 548 168 530 154 q 574 199 566 181 q 583 235 583 216 q 565 293 583 263 q 508 360 546 322 l 504 364 l 457 412 q 413 478 427 444 q 399 554 399 513 q 461 708 399 644 q 637 796 523 771 l 637 807 q 630 844 637 827 q 607 875 623 862 q 522 899 576 899 q 419 864 458 899 q 367 761 380 829 l 218 0 l 20 0 l 168 764 q 212 891 182 838 q 286 983 241 945 q 520 1057 374 1057 q 636 1043 586 1057 q 719 998 686 1028 q 768 924 752 968 q 785 824 785 880 q 783 781 785 804 q 777 722 781 757 l 777 718 q 690 705 727 715 q 628 679 652 694 q 589 641 604 663 q 575 593 575 618 q 590 546 575 571 q 640 485 604 521 l 696 429 q 755 347 736 389 q 770 305 765 328 q 775 254 775 283 q 753 144 775 195 q 688 56 732 94 q 452 -20 602 -20 z "},"t":{"ha":836,"x_min":111,"x_max":793,"o":"m 479 -3 q 360 6 408 -3 q 283 35 313 16 q 239 86 252 56 q 225 155 225 117 q 226 176 225 167 q 229 197 227 185 q 232 221 230 205 q 237 254 234 237 l 306 607 l 111 607 l 140 760 l 335 760 l 376 975 l 575 975 l 533 760 l 793 760 l 764 607 l 504 607 l 433 244 q 432 235 433 241 q 429 220 431 230 q 428 211 429 215 q 428 203 428 208 q 448 162 428 174 q 522 149 468 149 l 675 149 l 646 -3 l 479 -3 l 479 -3 z "},"ŧ":{"ha":836,"x_min":111,"x_max":793,"o":"m 479 -3 q 258 51 309 -3 q 227 158 227 86 q 229 203 227 179 q 237 254 232 227 l 261 380 l 140 380 l 166 511 l 287 511 l 305 607 l 111 607 l 141 760 l 335 760 l 377 975 l 576 975 l 534 760 l 793 760 l 764 607 l 504 607 l 486 511 l 610 511 l 585 380 l 460 380 l 434 244 q 431 214 431 225 q 444 172 431 186 q 523 149 465 149 l 675 149 l 646 -3 l 479 -3 l 479 -3 z "},"ť":{"ha":836,"x_min":111,"x_max":945,"o":"m 728 1126 l 945 1126 l 771 871 l 637 871 l 728 1126 m 479 -3 q 360 6 408 -3 q 283 35 313 16 q 239 86 252 56 q 225 155 225 117 q 226 176 225 167 q 229 197 227 185 q 232 221 230 205 q 237 254 234 237 l 306 607 l 111 607 l 140 760 l 335 760 l 376 975 l 575 975 l 533 760 l 793 760 l 764 607 l 504 607 l 433 244 q 432 235 433 241 q 429 220 431 230 q 428 211 429 215 q 428 203 428 208 q 448 162 428 174 q 522 149 468 149 l 675 149 l 646 -3 l 479 -3 z "},"ț":{"ha":836,"x_min":111,"x_max":793,"o":"m 433 244 q 432 235 433 241 q 429 220 431 230 q 428 211 429 215 q 428 203 428 208 q 448 162 428 174 q 522 149 468 149 l 675 149 l 646 -3 l 510 -3 q 543 -64 532 -35 q 554 -123 554 -93 q 541 -183 554 -157 q 502 -229 528 -210 q 440 -259 477 -248 q 357 -269 404 -269 q 292 -265 327 -269 q 225 -252 258 -260 l 244 -146 q 354 -170 303 -170 q 424 -152 399 -170 q 448 -100 448 -134 q 440 -59 448 -82 q 412 -1 431 -37 q 336 12 368 3 q 283 35 305 21 q 239 86 252 56 q 225 155 225 117 q 226 176 225 167 q 229 197 227 185 q 232 221 230 205 q 237 254 234 237 l 306 607 l 111 607 l 140 760 l 335 760 l 376 975 l 575 975 l 533 760 l 793 760 l 764 607 l 504 607 l 433 244 l 433 244 z "},"u":{"ha":836,"x_min":72,"x_max":790,"o":"m 252 -20 q 119 28 165 -20 q 72 165 72 76 q 73 186 72 175 q 75 209 73 197 q 77 228 75 211 q 83 265 79 245 l 180 760 l 378 760 l 289 296 q 287 279 288 287 q 284 260 286 271 q 282 242 283 249 q 282 228 282 235 q 287 190 282 204 q 302 165 292 176 q 324 149 311 155 q 359 143 337 143 q 412 155 389 143 q 453 191 435 168 q 510 332 492 241 l 593 760 l 790 760 l 643 0 l 464 0 l 467 113 q 428 56 450 79 q 379 16 406 33 q 317 -12 348 -3 q 252 -20 286 -20 z "},"ú":{"ha":836,"x_min":72,"x_max":826,"o":"m 608 1118 l 826 1118 l 526 863 l 393 863 l 608 1118 m 251 -20 q 176 -7 210 -20 q 119 28 142 5 q 72 165 72 76 q 73 186 72 175 q 75 209 73 197 q 78 233 76 217 q 83 265 80 250 l 180 760 l 378 760 l 289 296 q 287 279 288 288 q 284 260 286 271 q 282 242 283 249 q 282 228 282 235 q 287 190 282 204 q 302 165 292 176 q 324 149 311 155 q 359 143 337 143 q 412 155 389 143 q 453 191 435 168 q 510 332 492 241 l 593 760 l 790 760 l 643 0 l 464 0 l 467 113 q 426 54 450 78 q 380 16 401 30 q 315 -12 348 -3 q 251 -20 283 -20 z "},"û":{"ha":836,"x_min":72,"x_max":790,"o":"m 460 1118 l 625 1118 l 749 863 l 629 863 l 526 1015 l 363 863 l 235 863 l 460 1118 m 251 -20 q 176 -7 210 -20 q 119 28 142 5 q 72 165 72 76 q 73 186 72 175 q 75 209 73 197 q 78 233 76 217 q 83 265 80 250 l 180 760 l 378 760 l 289 296 q 287 279 288 288 q 284 260 286 271 q 282 242 283 249 q 282 228 282 235 q 287 190 282 204 q 302 165 292 176 q 324 149 311 155 q 359 143 337 143 q 412 155 389 143 q 453 191 435 168 q 510 332 492 241 l 593 760 l 790 760 l 643 0 l 464 0 l 467 113 q 426 54 450 78 q 380 16 401 30 q 315 -12 348 -3 q 251 -20 283 -20 z "},"ü":{"ha":836,"x_min":72,"x_max":790,"o":"m 311 913 q 296 920 301 913 q 293 936 291 926 l 317 1062 q 339 1080 320 1080 l 459 1080 q 477 1064 477 1080 q 477 1058 477 1060 l 452 932 q 430 913 448 913 l 311 913 m 579 913 q 564 920 569 913 q 561 936 559 926 l 585 1062 q 607 1080 588 1080 l 728 1080 q 746 1064 746 1080 q 745 1058 746 1060 l 720 932 q 699 913 717 913 l 579 913 m 251 -20 q 176 -7 210 -20 q 119 28 142 5 q 72 165 72 76 q 73 186 72 175 q 75 209 73 197 q 78 233 76 217 q 83 265 80 250 l 180 760 l 378 760 l 289 296 q 287 279 288 288 q 284 260 286 271 q 282 242 283 249 q 282 228 282 235 q 287 190 282 204 q 302 165 292 176 q 324 149 311 155 q 359 143 337 143 q 412 155 389 143 q 453 191 435 168 q 510 332 492 241 l 593 760 l 790 760 l 643 0 l 464 0 l 467 113 q 426 54 450 78 q 380 16 401 30 q 315 -12 348 -3 q 251 -20 283 -20 z "},"ù":{"ha":836,"x_min":72,"x_max":790,"o":"m 258 1118 l 451 1118 l 593 863 l 458 863 l 258 1118 m 251 -20 q 176 -7 210 -20 q 119 28 142 5 q 72 165 72 76 q 73 186 72 175 q 75 209 73 197 q 78 233 76 217 q 83 265 80 250 l 180 760 l 378 760 l 289 296 q 287 279 288 288 q 284 260 286 271 q 282 242 283 249 q 282 228 282 235 q 287 190 282 204 q 302 165 292 176 q 324 149 311 155 q 359 143 337 143 q 412 155 389 143 q 453 191 435 168 q 510 332 492 241 l 593 760 l 790 760 l 643 0 l 464 0 l 467 113 q 426 54 450 78 q 380 16 401 30 q 315 -12 348 -3 q 251 -20 283 -20 z "},"ư":{"ha":836,"x_min":31,"x_max":906,"o":"m 906 791 q 904 723 906 754 q 896 663 901 691 q 841 543 880 585 q 744 501 802 501 q 700 508 720 501 l 602 0 l 422 0 l 425 113 q 338 16 395 51 q 208 -20 282 -20 q 78 28 125 -20 q 31 165 31 75 q 33 209 31 185 q 42 265 36 233 l 139 760 l 336 760 l 248 296 q 242 259 244 277 q 241 229 241 241 q 260 164 241 185 q 317 143 280 143 q 410 189 371 143 q 469 332 450 235 l 551 760 l 749 760 l 720 612 l 726 612 q 771 630 750 612 q 800 686 792 647 q 804 712 803 698 q 806 739 806 727 q 800 791 806 762 l 906 791 z "},"ű":{"ha":836,"x_min":72,"x_max":873,"o":"m 429 1118 l 595 1118 l 378 863 l 267 863 l 429 1118 m 697 1118 l 873 1118 l 639 863 l 522 863 l 697 1118 m 250 -20 q 119 28 166 -20 q 72 165 72 75 q 75 209 72 185 q 83 265 77 233 l 180 760 l 378 760 l 289 296 q 284 259 286 277 q 282 229 282 241 q 302 164 282 185 q 358 143 321 143 q 452 189 412 143 q 510 332 491 235 l 593 760 l 790 760 l 643 0 l 464 0 l 467 113 q 380 16 436 51 q 250 -20 323 -20 z "},"ū":{"ha":836,"x_min":72,"x_max":790,"o":"m 318 1023 l 746 1023 l 721 895 l 293 895 l 318 1023 m 250 -20 q 119 28 166 -20 q 72 165 72 75 q 75 209 72 185 q 83 265 77 233 l 180 760 l 378 760 l 289 296 q 284 259 286 277 q 282 229 282 241 q 302 164 282 185 q 358 143 321 143 q 452 189 412 143 q 510 332 491 235 l 593 760 l 790 760 l 643 0 l 464 0 l 467 113 q 380 16 436 51 q 250 -20 323 -20 z "},"ų":{"ha":836,"x_min":72,"x_max":790,"o":"m 558 -123 q 574 -158 558 -143 q 626 -172 591 -172 q 672 -168 644 -172 q 732 -151 700 -163 l 711 -257 q 646 -268 677 -264 q 589 -272 615 -272 q 480 -247 519 -272 q 440 -173 440 -221 q 466 -92 440 -136 q 546 0 491 -48 l 444 0 l 467 113 q 380 16 436 51 q 250 -20 323 -20 q 119 28 166 -20 q 72 165 72 75 q 75 209 72 185 q 83 265 77 233 l 180 760 l 378 760 l 289 296 q 284 259 286 277 q 282 229 282 241 q 302 164 282 185 q 358 143 321 143 q 452 189 412 143 q 510 332 491 235 l 593 760 l 790 760 l 643 0 l 642 0 q 574 -79 591 -54 q 562 -103 566 -92 q 558 -123 558 -113 z "},"ů":{"ha":836,"x_min":72,"x_max":790,"o":"m 500 850 q 425 866 460 850 q 363 907 389 881 q 322 968 337 933 q 307 1044 307 1004 q 322 1119 307 1084 q 363 1180 337 1154 q 425 1222 389 1206 q 500 1237 460 1237 q 575 1222 540 1237 q 636 1180 610 1206 q 678 1119 663 1154 q 693 1044 693 1084 q 678 968 693 1004 q 636 907 663 933 q 575 866 610 881 q 500 850 540 850 m 500 955 q 534 962 518 955 q 563 981 551 969 q 582 1009 575 993 q 589 1044 589 1025 q 582 1078 589 1062 q 563 1106 575 1095 q 534 1125 551 1118 q 500 1133 518 1133 q 465 1125 481 1133 q 437 1106 449 1118 q 418 1078 425 1095 q 411 1044 411 1062 q 418 1009 411 1025 q 437 981 425 993 q 465 962 449 968 q 500 955 481 955 m 250 -20 q 119 28 166 -20 q 72 165 72 75 q 75 209 72 185 q 83 265 77 233 l 180 760 l 378 760 l 289 296 q 284 259 286 277 q 282 229 282 241 q 302 164 282 185 q 358 143 321 143 q 452 189 412 143 q 510 332 491 235 l 593 760 l 790 760 l 643 0 l 464 0 l 467 113 q 380 16 436 51 q 250 -20 323 -20 z "},"ũ":{"ha":836,"x_min":72,"x_max":790,"o":"m 605 861 q 580 863 591 861 q 557 870 568 865 q 533 882 545 875 q 508 900 522 890 l 475 925 q 471 928 473 926 q 422 950 443 950 q 381 927 399 950 q 357 863 363 903 l 262 863 q 284 942 269 907 q 321 1003 299 978 q 372 1042 343 1028 q 433 1055 400 1055 q 455 1053 445 1055 q 477 1046 466 1051 q 500 1034 488 1042 q 528 1014 512 1025 l 562 987 q 611 966 589 966 q 654 990 637 966 q 677 1054 671 1013 l 772 1054 q 714 910 756 959 q 605 861 672 861 m 250 -20 q 119 28 166 -20 q 72 165 72 75 q 75 209 72 185 q 83 265 77 233 l 180 760 l 378 760 l 289 296 q 284 259 286 277 q 282 229 282 241 q 302 164 282 185 q 358 143 321 143 q 452 189 412 143 q 510 332 491 235 l 593 760 l 790 760 l 643 0 l 464 0 l 467 113 q 380 16 436 51 q 250 -20 323 -20 z "},"v":{"ha":836,"x_min":117,"x_max":835,"o":"m 117 760 l 309 760 l 363 164 l 627 760 l 835 760 l 461 0 l 211 0 l 117 760 z "},"w":{"ha":836,"x_min":61,"x_max":899,"o":"m 65 760 l 228 760 l 205 178 l 359 561 l 515 561 l 530 178 l 728 760 l 899 760 l 615 0 l 425 0 l 412 400 l 250 0 l 61 0 l 65 760 z "},"ẃ":{"ha":836,"x_min":61,"x_max":899,"o":"m 576 1116 l 793 1116 l 494 861 l 360 861 l 576 1116 m 65 760 l 228 760 l 205 178 l 359 561 l 515 561 l 530 178 l 728 760 l 899 760 l 615 0 l 425 0 l 412 400 l 250 0 l 61 0 l 65 760 z "},"ŵ":{"ha":836,"x_min":61,"x_max":899,"o":"m 473 1116 l 638 1116 l 762 861 l 643 861 l 540 1014 l 377 861 l 248 861 l 473 1116 m 65 760 l 228 760 l 205 178 l 359 561 l 515 561 l 530 178 l 728 760 l 899 760 l 615 0 l 425 0 l 412 400 l 250 0 l 61 0 l 65 760 z "},"ẅ":{"ha":836,"x_min":61,"x_max":899,"o":"m 317 895 q 301 901 307 895 q 298 918 296 907 l 323 1044 q 345 1062 326 1062 l 465 1062 q 483 1046 483 1062 q 482 1040 483 1042 l 457 913 q 435 895 454 895 l 317 895 m 585 895 q 569 901 574 895 q 566 918 564 907 l 591 1044 q 612 1062 593 1062 l 733 1062 q 751 1046 751 1062 q 751 1040 751 1042 l 726 913 q 704 895 722 895 l 585 895 m 65 760 l 228 760 l 205 178 l 359 561 l 515 561 l 530 178 l 728 760 l 899 760 l 615 0 l 425 0 l 412 400 l 250 0 l 61 0 l 65 760 z "},"ẁ":{"ha":836,"x_min":61,"x_max":899,"o":"m 262 1116 l 455 1116 l 597 861 l 463 861 l 262 1116 m 65 760 l 228 760 l 205 178 l 359 561 l 515 561 l 530 178 l 728 760 l 899 760 l 615 0 l 425 0 l 412 400 l 250 0 l 61 0 l 65 760 z "},"x":{"ha":836,"x_min":-52,"x_max":832,"o":"m 296 403 l 121 760 l 325 760 l 425 545 l 607 760 l 832 760 l 509 385 l 697 0 l 494 0 l 379 241 l 174 0 l -52 0 l 296 403 z "},"y":{"ha":836,"x_min":-44,"x_max":869,"o":"m -14 -136 l 66 -136 q 159 -116 127 -136 q 194 -82 175 -106 q 233 -20 213 -58 l 260 31 l 113 760 l 314 760 l 400 285 l 660 760 l 869 760 l 391 -82 q 321 -191 353 -149 q 260 -252 289 -233 q 198 -279 234 -270 q 119 -288 161 -288 l -44 -288 l -14 -136 z "},"ý":{"ha":836,"x_min":-44,"x_max":869,"o":"m 625 1118 l 843 1118 l 543 863 l 410 863 l 625 1118 m -14 -136 l 66 -136 q 159 -116 127 -136 q 194 -82 175 -106 q 233 -20 213 -58 l 260 31 l 113 760 l 314 760 l 400 285 l 660 760 l 869 760 l 391 -82 q 321 -191 353 -149 q 260 -252 289 -233 q 198 -279 234 -270 q 119 -288 161 -288 l -44 -288 l -14 -136 z "},"ŷ":{"ha":836,"x_min":-44,"x_max":869,"o":"m 486 1117 l 650 1117 l 774 862 l 655 862 l 552 1015 l 389 862 l 260 862 l 486 1117 m -14 -136 l 66 -136 q 116 -133 94 -136 q 157 -117 138 -129 q 195 -81 176 -104 q 233 -20 213 -58 l 260 31 l 113 760 l 314 760 l 400 285 l 660 760 l 869 760 l 391 -82 q 321 -190 353 -149 q 259 -252 290 -231 q 195 -281 229 -274 q 119 -288 161 -288 l -44 -288 l -14 -136 z "},"ÿ":{"ha":836,"x_min":-44,"x_max":869,"o":"m 328 895 q 313 901 318 895 q 310 918 308 907 l 334 1044 q 356 1062 337 1062 l 476 1062 q 494 1046 494 1062 q 494 1041 494 1042 q 494 1040 494 1041 l 469 913 q 447 895 465 895 l 328 895 m 596 895 q 581 901 586 895 q 578 918 576 907 l 602 1044 q 624 1062 605 1062 l 745 1062 q 763 1046 763 1062 q 763 1041 763 1042 q 762 1040 762 1041 l 737 913 q 715 895 734 895 l 596 895 m -14 -136 l 66 -136 q 159 -116 127 -136 q 194 -82 175 -106 q 233 -20 213 -58 l 260 31 l 113 760 l 314 760 l 400 285 l 660 760 l 869 760 l 391 -82 q 321 -191 353 -149 q 260 -252 289 -233 q 198 -279 234 -270 q 119 -288 161 -288 l -44 -288 l -14 -136 z "},"ỳ":{"ha":836,"x_min":-44,"x_max":869,"o":"m 264 1117 l 457 1117 l 599 862 l 465 862 l 264 1117 m -14 -136 l 66 -136 q 116 -133 94 -136 q 157 -117 138 -129 q 195 -81 176 -104 q 233 -20 213 -58 l 260 31 l 113 760 l 314 760 l 400 285 l 660 760 l 869 760 l 391 -82 q 321 -190 353 -149 q 259 -252 290 -231 q 195 -281 229 -274 q 119 -288 161 -288 l -44 -288 l -14 -136 z "},"z":{"ha":836,"x_min":33,"x_max":806,"o":"m 64 155 l 543 611 l 170 611 l 199 760 l 806 760 l 775 604 l 296 149 l 686 149 l 657 0 l 33 0 l 64 155 z "},"ź":{"ha":836,"x_min":33,"x_max":829,"o":"m 611 1117 l 829 1117 l 529 862 l 395 862 l 611 1117 m 64 155 l 543 611 l 170 611 l 199 760 l 806 760 l 775 604 l 296 149 l 686 149 l 657 0 l 33 0 l 64 155 z "},"ž":{"ha":836,"x_min":33,"x_max":813,"o":"m 301 1118 l 419 1118 l 523 964 l 684 1118 l 813 1118 l 589 863 l 425 863 l 301 1118 m 64 155 l 543 611 l 170 611 l 199 760 l 806 760 l 775 604 l 296 149 l 686 149 l 657 0 l 33 0 l 64 155 z "},"ż":{"ha":836,"x_min":33,"x_max":806,"o":"m 452 895 q 437 901 441 895 q 435 918 433 907 l 460 1044 q 481 1062 463 1062 l 625 1062 q 641 1056 635 1062 q 644 1040 646 1050 l 619 913 q 597 895 616 895 l 452 895 m 64 155 l 543 611 l 170 611 l 199 760 l 806 760 l 775 604 l 296 149 l 686 149 l 657 0 l 33 0 l 64 155 z "},"ª":{"ha":836,"x_min":143,"x_max":713,"o":"m 347 473 q 229 515 271 473 q 186 628 186 556 q 204 715 186 676 q 262 782 222 753 q 478 836 338 836 l 570 836 l 574 860 q 575 865 575 863 l 575 872 q 551 913 575 899 q 520 924 538 921 q 480 928 502 928 q 437 924 458 928 q 390 914 415 921 q 340 898 366 907 q 283 875 315 889 l 306 993 q 409 1021 359 1012 q 456 1028 433 1026 q 504 1031 479 1031 q 589 1022 549 1031 q 657 996 629 1014 q 700 952 687 978 q 713 894 713 926 q 712 875 713 887 q 710 851 711 863 q 706 821 709 838 q 700 790 703 804 l 640 486 l 500 486 l 513 546 q 479 514 496 526 q 440 492 462 501 q 347 473 397 473 m 406 568 q 455 579 431 568 q 498 612 479 591 q 530 663 516 632 q 550 737 543 694 l 496 737 q 374 713 413 737 q 344 682 354 701 q 334 640 334 663 q 353 588 334 608 q 375 573 363 578 q 406 568 388 568 m 167 406 l 633 406 l 610 290 l 143 290 l 167 406 z "},"º":{"ha":836,"x_min":150,"x_max":724,"o":"m 430 473 q 337 488 377 473 q 267 530 297 502 q 222 599 237 559 q 208 696 208 639 q 229 827 208 766 q 290 936 249 888 q 502 1031 370 1031 q 665 974 606 1031 q 709 906 694 945 q 724 808 724 867 q 704 679 724 740 q 643 568 684 617 q 548 496 601 519 q 430 473 494 473 m 440 585 q 496 602 471 585 q 540 649 522 619 q 570 724 560 682 q 581 806 581 765 q 576 854 581 831 q 557 892 571 876 q 529 912 546 905 q 494 920 513 920 q 437 902 463 920 q 393 855 412 885 q 362 779 372 821 q 353 700 353 737 q 359 648 353 668 q 376 614 365 627 q 404 592 387 600 q 440 585 420 585 m 172 406 l 639 406 l 616 290 l 150 290 l 172 406 z "},"А":{"ha":836,"x_min":-77,"x_max":715,"o":"m 395 1013 l 639 1013 l 715 0 l 517 0 l 507 250 l 236 250 l 126 0 l -77 0 l 395 1013 m 500 415 l 486 827 l 307 415 l 500 415 z "},"Б":{"ha":836,"x_min":5,"x_max":833,"o":"m 202 1013 l 833 1013 l 799 836 l 368 836 l 329 633 l 404 633 q 662 581 578 633 q 745 415 745 528 q 743 369 745 395 q 736 317 741 342 q 686 174 721 233 q 595 75 652 114 q 461 18 539 37 q 280 0 382 0 l 5 0 l 202 1013 m 320 168 q 404 176 368 168 q 464 201 439 184 q 504 247 489 219 q 527 317 519 275 q 531 342 530 330 q 532 365 532 353 q 495 443 532 420 q 378 465 458 465 l 296 465 l 238 168 l 320 168 z "},"В":{"ha":836,"x_min":-7,"x_max":806,"o":"m 190 1014 l 517 1014 q 733 958 661 1014 q 806 789 806 903 q 789 690 806 734 q 741 614 772 646 q 663 561 709 581 q 558 533 617 540 q 641 514 604 529 q 703 473 677 499 q 743 410 729 447 q 757 323 757 372 q 750 256 757 290 q 731 193 744 223 q 700 135 718 162 q 659 86 682 107 q 603 47 634 64 q 530 21 571 31 q 437 5 490 10 q 319 0 385 0 l -7 0 l 190 1014 m 440 619 q 564 656 522 619 q 606 759 606 693 q 578 832 606 810 q 486 854 551 854 l 353 854 l 307 619 l 440 619 m 351 160 q 505 204 454 160 q 557 336 557 248 q 550 389 557 366 q 527 428 543 412 q 481 452 510 444 q 410 460 453 460 l 276 460 l 218 160 l 351 160 z "},"Г":{"ha":836,"x_min":35,"x_max":863,"o":"m 232 1013 l 863 1013 l 829 836 l 398 836 l 235 0 l 35 0 l 232 1013 z "},"Ѓ":{"ha":836,"x_min":35,"x_max":863,"o":"m 630 1257 l 821 1257 l 604 1078 l 463 1078 l 630 1257 m 232 1013 l 863 1013 l 829 836 l 398 836 l 235 0 l 35 0 l 232 1013 z "},"Ґ":{"ha":836,"x_min":49,"x_max":917,"o":"m 245 1013 l 700 1013 l 741 1220 l 917 1220 l 842 836 l 412 836 l 249 0 l 49 0 l 245 1013 z "},"Д":{"ha":836,"x_min":-113,"x_max":814,"o":"m -37 176 l 31 176 q 49 184 39 176 q 67 205 58 193 q 84 235 77 218 q 94 267 91 251 l 239 1013 l 814 1013 l 652 176 l 745 176 l 668 -218 l 495 -218 l 537 0 l 102 0 l 60 -218 l -113 -218 l -37 176 m 452 176 l 580 836 l 405 836 l 308 337 q 286 250 299 292 q 256 176 272 208 l 452 176 z "},"Е":{"ha":836,"x_min":20,"x_max":847,"o":"m 215 1013 l 847 1013 l 812 836 l 382 836 l 339 618 l 729 618 l 696 441 l 306 441 l 254 176 l 685 176 l 650 0 l 20 0 l 215 1013 z "},"Ѐ":{"ha":836,"x_min":20,"x_max":847,"o":"m 364 1257 l 543 1257 l 640 1078 l 519 1078 l 364 1257 m 215 1013 l 847 1013 l 812 836 l 382 836 l 339 618 l 729 618 l 696 441 l 306 441 l 254 176 l 685 176 l 650 0 l 20 0 l 215 1013 z "},"Ё":{"ha":836,"x_min":20,"x_max":847,"o":"m 342 1090 q 327 1097 331 1090 q 324 1113 322 1103 l 350 1239 q 372 1257 354 1257 l 490 1257 q 506 1251 501 1257 q 508 1235 510 1245 l 483 1109 q 461 1090 479 1090 l 342 1090 m 610 1090 q 595 1097 600 1090 q 593 1113 591 1103 l 618 1239 q 640 1257 621 1257 l 758 1257 q 773 1251 768 1257 q 777 1235 779 1245 l 752 1109 q 730 1090 749 1090 l 610 1090 m 215 1013 l 847 1013 l 812 836 l 382 836 l 339 618 l 729 618 l 696 441 l 306 441 l 254 176 l 685 176 l 650 0 l 20 0 l 215 1013 z "},"Ж":{"ha":836,"x_min":-90,"x_max":926,"o":"m 202 601 l 107 1013 l 284 1013 l 366 658 l 435 1013 l 598 1013 l 529 658 l 749 1013 l 926 1013 l 671 601 l 730 0 l 560 0 l 524 364 l 448 241 l 401 0 l 239 0 l 286 241 l 257 364 l 80 0 l -90 0 l 202 601 z "},"З":{"ha":836,"x_min":-7,"x_max":773,"o":"m 300 -20 q 153 -7 230 -20 q -7 31 76 6 l 29 214 q 164 166 93 183 q 300 150 235 150 q 397 162 355 150 q 466 196 438 174 q 508 249 494 218 q 522 318 522 280 q 479 420 522 387 q 362 453 435 453 l 255 453 l 290 629 l 397 629 q 474 639 439 629 q 533 667 509 649 q 572 709 558 685 q 586 762 586 734 q 547 836 586 810 q 434 861 508 861 q 312 847 379 861 q 170 806 245 833 l 207 987 q 343 1020 278 1009 q 464 1031 409 1031 q 592 1014 535 1031 q 690 965 650 996 q 752 889 730 933 q 773 791 773 845 q 756 703 773 743 q 709 631 740 663 q 633 578 678 600 q 532 546 589 556 q 670 463 627 520 q 712 318 712 406 q 683 179 712 241 q 601 73 654 117 q 472 4 548 28 q 300 -20 395 -20 z "},"И":{"ha":836,"x_min":-16,"x_max":854,"o":"m 181 1013 l 357 1013 l 214 277 l 640 1013 l 854 1013 l 658 0 l 481 0 l 625 736 l 198 0 l -16 0 l 181 1013 z "},"Й":{"ha":836,"x_min":-16,"x_max":854,"o":"m 511 1078 q 369 1124 418 1078 q 319 1255 319 1169 l 319 1257 l 416 1257 q 451 1198 423 1217 q 532 1179 479 1179 q 617 1200 581 1179 q 668 1257 652 1221 l 772 1257 q 679 1124 745 1169 q 511 1078 612 1078 m 181 1013 l 357 1013 l 214 277 l 640 1013 l 854 1013 l 658 0 l 481 0 l 625 736 l 198 0 l -16 0 l 181 1013 z "},"Ѝ":{"ha":836,"x_min":-16,"x_max":854,"o":"m 340 1257 l 519 1257 l 616 1078 l 495 1078 l 340 1257 m 181 1013 l 357 1013 l 214 277 l 640 1013 l 854 1013 l 658 0 l 481 0 l 625 736 l 198 0 l -16 0 l 181 1013 z "},"К":{"ha":836,"x_min":-16,"x_max":924,"o":"m 180 1013 l 380 1013 l 307 635 l 688 1013 l 924 1013 l 513 603 l 743 0 l 537 0 l 365 454 l 248 339 l 184 0 l -16 0 l 180 1013 z "},"Ќ":{"ha":836,"x_min":-16,"x_max":924,"o":"m 595 1257 l 785 1257 l 568 1078 l 428 1078 l 595 1257 m 180 1013 l 380 1013 l 307 635 l 688 1013 l 924 1013 l 513 603 l 743 0 l 537 0 l 365 454 l 248 339 l 184 0 l -16 0 l 180 1013 z "},"Л":{"ha":836,"x_min":-84,"x_max":852,"o":"m -50 180 l -43 180 q 61 212 21 180 q 119 321 101 243 q 148 446 136 393 q 169 543 159 498 q 187 629 178 587 q 205 722 195 671 l 262 1013 l 852 1013 l 655 0 l 455 0 l 618 836 l 428 836 l 404 717 q 364 511 382 609 q 322 331 345 414 q 269 183 299 248 q 197 77 239 118 q -22 0 117 0 l -84 0 l -50 180 z "},"М":{"ha":836,"x_min":-39,"x_max":875,"o":"m 157 1013 l 396 1013 l 429 568 l 631 1013 l 875 1013 l 679 0 l 507 0 l 668 812 l 469 368 l 321 368 l 289 812 l 132 0 l -39 0 l 157 1013 z "},"Н":{"ha":836,"x_min":-5,"x_max":842,"o":"m 192 1013 l 392 1013 l 317 627 l 567 627 l 642 1013 l 842 1013 l 644 0 l 444 0 l 532 450 l 282 450 l 195 0 l -5 0 l 192 1013 z "},"О":{"ha":836,"x_min":41,"x_max":794,"o":"m 337 -20 q 117 66 193 -20 q 41 327 41 153 q 51 459 41 389 q 77 596 60 528 q 117 725 94 663 q 167 833 140 787 q 304 981 222 931 q 498 1031 387 1031 q 718 945 642 1031 q 794 686 794 860 q 786 561 794 628 q 761 425 777 493 q 723 294 745 357 q 671 179 700 230 q 532 31 615 81 q 337 -20 450 -20 m 358 158 q 432 182 401 158 q 488 253 463 206 q 520 327 505 284 q 549 427 535 370 q 565 497 557 461 q 577 567 572 532 q 586 635 583 602 q 589 694 589 667 q 478 854 589 854 q 404 830 434 854 q 349 759 373 806 q 317 687 333 730 q 286 584 302 645 q 269 503 276 543 q 257 427 261 463 q 250 361 252 391 q 248 311 248 331 q 275 198 248 238 q 358 158 302 158 z "},"П":{"ha":836,"x_min":5,"x_max":852,"o":"m 201 1013 l 852 1013 l 655 0 l 455 0 l 618 836 l 368 836 l 205 0 l 5 0 l 201 1013 z "},"Р":{"ha":836,"x_min":21,"x_max":831,"o":"m 218 1013 l 503 1013 q 747 951 663 1013 q 831 762 831 889 q 824 688 831 725 q 806 616 817 650 q 778 550 794 581 q 742 496 761 519 q 604 405 689 431 q 406 379 519 379 l 295 379 l 221 0 l 21 0 l 218 1013 m 425 547 q 574 593 525 547 q 623 725 623 639 q 615 780 623 758 q 589 817 607 803 q 541 838 570 831 q 467 844 511 844 l 385 844 l 328 547 l 425 547 z "},"С":{"ha":836,"x_min":75,"x_max":813,"o":"m 408 -20 q 161 73 246 -20 q 75 354 75 165 q 88 499 75 426 q 123 642 100 573 q 179 771 146 711 q 253 879 212 832 q 407 992 319 954 q 597 1031 494 1031 q 708 1019 655 1031 q 813 982 760 1006 l 770 760 q 732 800 753 782 q 687 829 711 817 q 637 846 663 840 q 585 852 611 852 q 470 820 521 852 q 382 729 420 787 q 340 649 359 694 q 308 556 321 604 q 286 458 294 507 q 278 363 278 408 q 321 208 278 260 q 446 157 363 157 q 553 179 498 157 q 671 252 608 202 l 628 29 q 521 -7 575 5 q 408 -20 467 -20 z "},"Т":{"ha":836,"x_min":129,"x_max":880,"o":"m 389 838 l 129 838 l 162 1013 l 880 1013 l 846 838 l 589 838 l 426 0 l 227 0 l 389 838 z "},"У":{"ha":836,"x_min":43,"x_max":931,"o":"m 77 176 l 131 176 q 189 182 169 176 q 236 209 212 188 q 281 269 260 230 l 338 367 l 133 1013 l 340 1013 l 473 592 l 724 1013 l 931 1013 l 450 205 q 323 51 388 102 q 178 0 258 0 l 43 0 l 77 176 z "},"Ў":{"ha":836,"x_min":43,"x_max":931,"o":"m 528 1078 q 382 1124 432 1078 q 333 1255 333 1169 l 333 1257 l 430 1257 q 462 1200 435 1221 q 542 1179 488 1179 q 630 1199 595 1179 q 682 1257 665 1219 l 786 1257 q 748 1179 772 1213 q 690 1123 723 1145 q 615 1089 656 1101 q 528 1078 574 1078 m 77 176 l 131 176 q 189 182 169 176 q 236 209 212 188 q 281 269 260 230 l 338 367 l 133 1013 l 340 1013 l 473 592 l 724 1013 l 931 1013 l 450 205 q 323 51 388 102 q 178 0 258 0 l 43 0 l 77 176 z "},"Ф":{"ha":836,"x_min":15,"x_max":832,"o":"m 254 90 q 172 110 208 94 q 110 151 136 126 q 65 206 83 175 q 36 271 47 237 q 20 340 24 305 q 15 409 15 376 q 18 461 15 434 q 26 515 20 488 q 79 673 42 599 q 167 806 115 748 q 283 900 218 863 q 420 943 347 937 l 433 1013 l 606 1013 l 593 943 q 674 923 639 939 q 737 882 710 907 q 782 827 764 858 q 811 761 800 795 q 827 691 822 727 q 832 623 832 656 q 829 571 832 597 q 821 515 827 544 q 768 360 805 435 q 680 228 732 286 q 564 133 628 170 q 427 90 499 96 l 410 0 l 237 0 l 254 90 m 387 770 q 269 695 317 758 q 198 515 220 632 q 191 468 193 488 q 188 429 189 448 q 189 377 186 404 q 202 327 192 351 q 233 286 212 304 q 288 262 253 269 l 387 770 m 460 262 q 533 294 502 271 q 586 349 564 317 q 622 418 608 381 q 644 492 636 456 q 650 523 647 507 q 654 554 652 538 q 657 583 656 569 q 659 606 659 596 q 657 656 659 631 q 646 705 655 682 q 616 745 637 728 q 559 770 596 762 l 460 262 z "},"Х":{"ha":836,"x_min":-87,"x_max":921,"o":"m 330 530 l 135 1013 l 332 1013 l 459 699 l 703 1013 l 921 1013 l 532 513 l 736 0 l 539 0 l 404 347 l 132 0 l -87 0 l 330 530 z "},"Ч":{"ha":836,"x_min":83,"x_max":860,"o":"m 559 519 q 467 439 528 467 q 305 412 406 412 q 205 422 247 412 q 136 454 163 432 q 96 511 109 476 q 83 595 83 546 q 86 643 83 618 q 94 696 89 669 l 164 1055 l 361 1055 l 301 743 q 297 716 298 728 q 296 692 296 704 q 305 640 296 660 q 331 609 315 621 q 368 594 347 598 q 414 590 390 590 q 492 601 460 590 q 548 635 525 612 q 585 692 570 658 q 608 770 599 726 l 663 1055 l 860 1055 l 655 0 l 458 0 l 559 519 z "},"Ц":{"ha":836,"x_min":-9,"x_max":838,"o":"m 535 0 l -9 0 l 187 1013 l 387 1013 l 225 176 l 475 176 l 637 1013 l 838 1013 l 675 176 l 768 176 l 692 -218 l 493 -218 l 535 0 z "},"Ш":{"ha":836,"x_min":-38,"x_max":888,"o":"m 159 1013 l 321 1013 l 159 176 l 279 176 l 442 1013 l 605 1013 l 442 176 l 563 176 l 726 1013 l 888 1013 l 692 0 l -38 0 l 159 1013 z "},"Щ":{"ha":836,"x_min":-38,"x_max":888,"o":"m 574 0 l -38 0 l 159 1013 l 321 1013 l 159 177 l 280 177 l 442 1012 l 605 1012 l 443 176 l 564 176 l 726 1012 l 888 1012 l 726 176 l 771 176 l 694 -218 l 532 -218 l 574 0 z "},"Џ":{"ha":836,"x_min":2,"x_max":849,"o":"m 239 0 l 2 0 l 199 1013 l 399 1013 l 237 176 l 487 176 l 649 1013 l 849 1013 l 652 0 l 415 0 l 373 -218 l 197 -218 l 239 0 z "},"Я":{"ha":836,"x_min":-76,"x_max":851,"o":"m 230 437 q 182 471 205 450 q 140 520 159 492 q 110 581 121 547 q 98 650 98 614 q 106 718 98 679 q 154 853 121 798 q 240 944 188 909 q 365 996 293 980 q 528 1013 437 1013 l 851 1013 l 654 0 l 454 0 l 532 400 l 422 400 l 142 0 l -76 0 l 230 437 m 565 568 l 618 844 l 490 844 q 424 837 454 844 q 371 813 394 829 q 332 770 348 796 q 310 707 317 744 q 306 667 306 684 q 437 568 306 568 l 565 568 z "},"Ь":{"ha":836,"x_min":14,"x_max":751,"o":"m 211 1013 l 411 1013 l 334 619 l 409 619 q 580 602 513 619 q 684 555 646 585 q 737 485 722 526 q 751 395 751 444 q 749 351 751 373 q 742 306 747 330 q 693 170 726 227 q 605 74 660 112 q 472 18 550 37 q 289 0 393 0 l 14 0 l 211 1013 m 328 160 q 414 168 378 160 q 476 192 450 175 q 516 237 501 209 q 539 306 532 265 q 544 337 543 322 q 545 363 545 351 q 539 402 545 385 q 518 433 532 420 q 472 453 503 446 q 386 460 441 460 l 304 460 l 245 160 l 328 160 z "},"Ъ":{"ha":836,"x_min":90,"x_max":773,"o":"m 259 871 l 90 871 l 117 1013 l 487 1013 l 410 619 l 431 619 q 602 602 535 619 q 706 555 668 585 q 759 485 744 526 q 773 395 773 444 q 771 351 773 373 q 764 306 768 330 q 715 170 748 227 q 627 74 682 112 q 493 18 572 37 q 311 0 415 0 l 90 0 l 259 871 m 349 160 q 436 168 399 160 q 497 192 472 175 q 538 237 523 209 q 561 306 553 265 q 566 337 564 322 q 567 363 567 351 q 561 402 567 385 q 540 433 554 420 q 494 453 524 446 q 408 460 463 460 l 380 460 l 321 160 l 349 160 z "},"Ы":{"ha":836,"x_min":-64,"x_max":914,"o":"m 132 1013 l 305 1013 l 229 619 l 235 619 q 385 602 325 619 q 481 555 445 585 q 533 484 517 526 q 548 393 548 442 q 546 351 548 372 q 538 306 543 330 q 402 75 508 151 q 115 0 296 0 l -64 0 l 132 1013 m 741 1013 l 914 1013 l 718 0 l 545 0 l 741 1013 m 154 160 q 240 168 204 160 q 302 192 277 175 q 343 237 328 209 q 366 306 358 265 q 370 337 369 322 q 372 363 372 351 q 365 402 372 385 q 345 433 359 420 q 298 453 329 446 q 212 460 268 460 l 198 460 l 140 160 l 154 160 z "},"Љ":{"ha":836,"x_min":-101,"x_max":807,"o":"m -68 170 l -62 170 q 0 178 -26 170 q 45 206 26 187 q 77 253 64 224 q 102 319 90 281 q 116 373 108 341 q 134 452 123 405 q 158 566 144 500 q 189 722 171 632 l 245 1013 l 663 1013 l 586 619 l 601 619 q 675 602 638 619 q 741 551 712 585 q 789 469 770 517 q 807 357 807 420 q 806 337 807 352 q 801 299 806 321 q 788 250 797 277 q 763 192 779 222 q 722 132 747 162 q 661 75 696 102 q 614 44 638 58 q 566 21 590 31 q 520 5 543 11 q 481 0 498 0 l 303 0 l 466 836 l 374 836 l 350 717 q 310 511 328 609 q 268 331 291 414 q 215 183 245 248 q 142 77 185 118 q -76 0 62 0 l -101 0 l -68 170 m 503 160 q 533 168 514 160 q 571 190 551 175 q 606 229 590 205 q 630 282 623 252 q 634 303 632 291 q 637 327 636 315 q 640 350 639 339 q 641 368 641 361 q 633 404 641 387 q 613 433 625 421 q 587 453 601 446 q 561 460 573 460 l 555 460 l 497 160 l 503 160 z "},"Њ":{"ha":836,"x_min":-54,"x_max":831,"o":"m 143 1013 l 306 1013 l 231 627 l 450 627 l 524 1013 l 687 1013 l 610 619 l 625 619 q 700 603 663 619 q 766 556 736 586 q 813 484 795 526 q 831 392 831 442 q 829 354 831 376 q 823 309 827 332 q 791 212 812 256 q 743 133 770 168 q 684 74 715 99 q 621 32 653 49 q 559 8 589 16 q 505 0 530 0 l 328 0 l 415 450 l 197 450 l 109 0 l -54 0 l 143 1013 m 527 160 q 559 168 539 160 q 598 194 578 176 q 635 240 618 212 q 660 310 652 269 q 664 340 663 323 q 665 366 665 356 q 656 407 665 389 q 635 436 648 425 q 609 454 623 448 q 585 460 595 460 l 580 460 l 522 160 l 527 160 z "},"Ѕ":{"ha":836,"x_min":3,"x_max":786,"o":"m 318 -20 q 164 -2 241 -20 q 3 52 87 16 l 43 258 q 180 175 109 203 q 326 146 252 146 q 406 156 370 146 q 466 186 441 167 q 505 232 491 205 q 518 292 518 258 q 494 366 518 336 q 424 416 471 397 l 343 450 q 238 502 279 477 q 172 554 197 526 q 138 613 148 581 q 129 686 129 645 q 158 828 129 764 q 239 937 186 892 q 364 1006 291 982 q 526 1031 437 1031 q 658 1017 591 1031 q 786 975 724 1004 l 747 782 q 696 819 724 803 q 638 846 669 835 q 575 862 607 857 q 511 867 543 867 q 421 853 458 867 q 363 821 385 840 q 332 779 341 802 q 322 738 322 757 q 351 675 322 705 q 447 617 380 646 l 452 615 l 530 581 q 616 533 580 559 q 675 474 652 507 q 710 404 699 442 q 721 319 721 366 q 692 180 721 243 q 612 74 664 118 q 485 5 559 29 q 318 -20 410 -20 z "},"Є":{"ha":836,"x_min":67,"x_max":809,"o":"m 401 -20 q 282 -6 334 -20 q 194 33 231 8 q 133 91 157 58 q 94 162 109 124 q 73 241 79 200 q 67 324 67 283 q 72 410 67 363 q 85 506 76 457 q 155 728 109 631 q 268 893 201 826 q 421 996 335 960 q 608 1031 507 1031 q 809 982 726 1031 l 766 760 q 581 851 683 851 q 488 830 530 851 q 413 773 446 809 q 356 691 380 738 q 316 593 332 644 l 704 593 l 670 417 l 282 417 q 280 376 280 397 q 288 299 280 338 q 314 230 295 260 q 366 179 334 199 q 448 160 398 160 q 667 252 549 160 l 623 29 q 516 -7 570 5 q 401 -20 463 -20 z "},"Э":{"ha":836,"x_min":34,"x_max":776,"o":"m 236 -20 q 127 -7 176 -20 q 34 29 77 5 l 77 252 q 266 160 159 160 q 527 417 450 160 l 159 417 l 193 593 l 561 593 q 563 621 562 608 q 564 646 564 634 q 522 801 564 750 q 399 851 481 851 q 290 828 345 851 q 176 760 235 806 l 220 982 q 441 1031 320 1031 q 560 1017 509 1031 q 648 978 611 1003 q 710 921 686 954 q 749 849 734 888 q 770 769 764 811 q 776 686 776 728 q 771 601 776 648 q 758 506 767 555 q 687 283 734 380 q 574 118 641 185 q 422 16 508 51 q 236 -20 337 -20 z "},"І":{"ha":836,"x_min":18,"x_max":818,"o":"m 53 176 l 254 176 l 382 836 l 180 836 l 215 1013 l 818 1013 l 783 836 l 582 836 l 454 176 l 656 176 l 621 0 l 18 0 l 53 176 z "},"Ї":{"ha":836,"x_min":18,"x_max":818,"o":"m 328 1090 q 313 1097 317 1090 q 311 1113 309 1103 l 336 1239 q 358 1257 340 1257 l 477 1257 q 492 1251 488 1257 q 494 1235 496 1245 l 469 1109 q 448 1090 466 1090 l 328 1090 m 597 1090 q 582 1097 586 1090 q 579 1113 577 1103 l 604 1239 q 626 1257 607 1257 l 745 1257 q 760 1251 755 1257 q 763 1235 765 1245 l 739 1109 q 717 1090 735 1090 l 597 1090 m 53 176 l 254 176 l 382 836 l 180 836 l 215 1013 l 818 1013 l 783 836 l 582 836 l 454 176 l 656 176 l 621 0 l 18 0 l 53 176 z "},"Ј":{"ha":836,"x_min":-1,"x_max":794,"o":"m 290 -20 q -1 53 140 -20 l 43 286 q 158 188 98 218 q 290 157 217 157 q 354 165 326 157 q 401 192 381 173 q 436 244 422 212 q 459 325 450 276 l 559 836 l 315 836 l 350 1013 l 794 1013 l 659 325 q 636 226 648 268 q 609 152 624 184 q 577 98 595 121 q 536 56 559 75 q 429 -1 490 18 q 290 -20 368 -20 z "},"Ћ":{"ha":836,"x_min":11,"x_max":793,"o":"m 189 913 l 60 913 l 87 1055 l 741 1055 l 713 913 l 386 913 l 318 565 q 368 617 336 599 l 404 638 q 461 659 427 652 q 549 671 496 666 q 589 673 570 673 q 666 664 629 673 q 732 637 703 656 q 755 618 748 627 q 768 601 763 610 q 793 491 793 558 q 790 443 793 469 q 782 388 787 416 l 707 0 l 509 0 l 576 342 q 584 412 584 382 q 575 459 584 442 q 501 492 564 484 l 473 494 q 373 475 426 494 l 348 464 q 326 446 333 456 q 291 389 305 422 q 269 314 277 355 l 208 0 l 11 0 l 189 913 z "},"Ю":{"ha":836,"x_min":-58,"x_max":861,"o":"m 457 -20 q 369 5 406 -20 q 307 72 331 29 q 270 175 282 115 q 258 304 258 234 q 269 441 258 370 l 191 441 l 105 0 l -58 0 l 139 1013 l 302 1013 l 225 618 l 305 618 q 338 715 319 665 q 383 810 358 764 q 439 896 408 856 q 506 966 469 937 q 583 1014 542 996 q 671 1031 625 1031 q 812 962 764 1031 q 861 761 861 892 q 853 641 861 707 q 831 505 845 574 q 766 281 806 378 q 678 116 727 183 q 573 15 629 50 q 457 -20 517 -20 m 490 160 q 529 183 507 160 q 570 248 550 206 q 597 314 584 277 q 622 392 610 351 q 643 476 633 433 q 659 562 652 520 q 670 643 666 604 q 673 713 673 682 q 673 742 673 730 q 671 763 672 754 q 653 829 665 807 q 625 851 642 851 q 545 753 591 851 q 522 701 532 728 q 502 645 511 675 q 485 580 493 614 q 468 505 476 546 q 441 293 441 372 q 443 266 441 277 q 445 243 444 254 q 462 181 450 203 q 490 160 474 160 z "},"Ђ":{"ha":836,"x_min":-7,"x_max":774,"o":"m 250 -135 l 342 -135 q 402 -125 377 -135 q 446 -96 428 -116 q 476 -45 464 -76 q 496 29 488 -14 l 557 342 q 566 412 566 382 q 557 459 566 442 q 483 492 546 484 l 455 494 q 355 475 408 494 l 330 464 q 307 446 315 456 q 273 389 287 422 q 251 314 259 355 l 190 0 l -7 0 l 170 913 l 41 913 l 68 1055 l 722 1055 l 695 913 l 368 913 l 300 565 q 350 617 317 599 l 386 638 q 443 659 408 652 q 530 671 477 666 q 571 673 551 673 q 648 664 611 673 q 714 637 684 656 q 737 618 730 627 q 750 601 745 610 q 774 491 774 558 q 772 443 774 469 q 764 388 769 416 l 694 29 q 651 -116 677 -56 q 585 -215 625 -176 q 493 -270 546 -253 q 369 -288 439 -288 l 221 -288 l 250 -135 z "},"Ѣ":{"ha":836,"x_min":63,"x_max":768,"o":"m 233 762 l 63 762 l 91 904 l 260 904 l 281 1013 l 481 1013 l 460 904 l 680 904 l 652 762 l 433 762 l 405 619 l 425 619 q 578 606 513 619 q 685 566 643 593 q 747 496 727 538 q 768 396 768 454 q 765 353 768 375 q 758 306 763 330 q 709 170 743 227 q 621 74 675 112 q 487 18 566 37 q 305 0 409 0 l 85 0 l 233 762 m 344 160 q 433 168 396 160 q 494 193 469 176 q 533 238 519 210 q 555 306 547 266 q 562 361 562 337 q 553 408 562 389 q 525 438 544 427 q 475 455 506 450 q 402 460 445 460 l 374 460 l 316 160 l 344 160 z "},"Ѳ":{"ha":836,"x_min":37,"x_max":796,"o":"m 315 -20 q 178 6 232 -20 q 93 73 124 31 q 49 169 61 115 q 37 281 37 223 q 39 336 37 307 q 44 394 41 366 q 53 451 48 423 q 62 505 57 479 q 111 689 81 606 q 183 838 142 773 q 278 947 225 903 q 397 1013 332 991 q 519 1031 454 1031 q 727 950 659 1031 q 796 715 796 869 q 791 617 796 671 q 774 505 785 563 q 723 315 755 401 q 647 165 691 230 q 548 57 603 100 q 428 -5 493 14 q 315 -20 376 -20 m 583 618 q 587 696 587 661 q 568 804 587 769 q 534 840 555 829 q 485 851 513 851 q 394 815 432 851 q 326 706 357 779 q 319 688 323 697 q 312 669 316 680 q 305 647 309 659 q 296 618 301 634 l 583 618 m 351 160 q 420 178 390 160 q 473 232 450 197 q 516 320 497 268 q 552 441 536 373 l 260 441 q 251 371 254 404 q 248 310 248 338 q 272 198 248 236 q 351 160 295 160 z "},"Ғ":{"ha":836,"x_min":55,"x_max":886,"o":"m 146 450 l 55 450 l 86 613 l 178 613 l 256 1013 l 886 1013 l 852 836 l 422 836 l 378 613 l 667 613 l 635 450 l 347 450 l 259 0 l 59 0 l 146 450 z "},"Ҕ":{"ha":836,"x_min":-2,"x_max":825,"o":"m 220 -135 l 312 -135 q 372 -125 347 -135 q 415 -96 397 -116 q 446 -45 433 -76 q 466 29 458 -14 l 522 315 q 528 354 526 336 q 530 387 530 371 q 510 447 530 429 q 447 465 490 465 l 288 465 l 198 0 l -2 0 l 195 1013 l 825 1013 l 791 836 l 361 836 l 323 646 l 533 646 q 615 636 578 646 q 680 610 652 626 q 702 593 692 602 q 717 574 711 585 q 741 464 741 531 q 739 415 741 441 q 730 361 736 389 l 666 29 q 623 -116 650 -56 q 557 -215 597 -176 q 464 -270 518 -253 q 338 -288 410 -288 l 191 -288 l 220 -135 z "},"Җ":{"ha":836,"x_min":-90,"x_max":926,"o":"m 567 0 l 560 0 l 525 364 l 448 241 l 401 0 l 239 0 l 286 241 l 258 364 l 80 0 l -90 0 l 202 601 l 107 1013 l 284 1013 l 367 658 l 435 1013 l 598 1013 l 530 658 l 749 1013 l 926 1013 l 671 601 l 713 176 l 764 176 l 688 -218 l 525 -218 l 567 0 z "},"Ҙ":{"ha":836,"x_min":-21,"x_max":760,"o":"m 518 546 q 656 463 614 520 q 699 318 699 406 q 675 191 699 249 q 608 90 652 134 q 500 20 564 47 q 357 -16 437 -7 q 395 -126 395 -72 q 381 -186 395 -159 q 343 -232 368 -213 q 281 -261 317 -251 q 198 -272 244 -272 q 133 -268 168 -272 q 66 -254 98 -263 l 85 -149 q 195 -172 144 -172 q 264 -154 239 -172 q 289 -102 289 -136 q 282 -67 289 -87 q 260 -19 276 -47 q 125 -4 196 -17 q -21 31 55 8 l 16 214 q 151 166 79 183 q 287 150 222 150 q 383 162 342 150 q 453 196 425 174 q 495 249 481 218 q 509 318 509 280 q 465 420 509 387 q 349 453 422 453 l 241 453 l 277 629 l 383 629 q 460 639 425 629 q 520 667 495 649 q 558 709 545 685 q 572 762 572 734 q 533 836 572 810 q 420 861 494 861 q 299 847 366 861 q 157 806 232 833 l 193 987 q 330 1020 264 1009 q 450 1031 395 1031 q 579 1014 522 1031 q 676 965 636 996 q 738 889 717 933 q 760 791 760 845 q 743 703 760 743 q 695 631 726 663 q 620 578 665 600 q 518 546 575 556 z "},"Қ":{"ha":836,"x_min":-19,"x_max":921,"o":"m 541 0 l 534 0 l 361 454 l 245 339 l 180 0 l -19 0 l 176 1013 l 376 1013 l 303 635 l 685 1013 l 921 1013 l 510 603 l 672 176 l 774 176 l 687 -269 l 488 -269 l 541 0 z "},"Ң":{"ha":836,"x_min":-29,"x_max":818,"o":"m 583 0 l 421 0 l 509 450 l 258 450 l 171 0 l -29 0 l 168 1013 l 368 1013 l 293 627 l 543 627 l 618 1013 l 818 1013 l 656 176 l 817 176 l 730 -269 l 531 -269 l 583 0 z "},"Ҫ":{"ha":836,"x_min":68,"x_max":806,"o":"m 591 1031 q 701 1019 648 1031 q 806 982 753 1006 l 763 760 q 726 800 747 782 q 681 829 705 817 q 630 846 656 840 q 578 852 604 852 q 464 820 514 852 q 376 729 413 787 q 334 649 353 694 q 301 556 315 604 q 279 458 287 507 q 271 363 271 408 q 314 208 271 260 q 439 157 357 157 q 546 179 492 157 q 665 252 601 202 l 621 29 q 539 -1 581 10 q 454 -17 498 -13 q 481 -72 472 -45 q 490 -126 490 -98 q 477 -186 490 -159 q 438 -232 464 -213 q 376 -261 413 -251 q 294 -272 340 -272 q 229 -268 263 -272 q 161 -254 194 -263 l 180 -149 q 290 -172 239 -172 q 360 -154 335 -172 q 385 -102 385 -136 q 378 -67 385 -87 q 355 -18 371 -47 q 142 87 216 -5 q 68 354 68 180 q 81 499 68 426 q 117 642 94 573 q 173 771 140 711 q 246 879 205 832 q 400 992 312 954 q 591 1031 488 1031 z "},"Ҭ":{"ha":836,"x_min":136,"x_max":884,"o":"m 430 0 l 230 0 l 393 838 l 136 838 l 170 1013 l 884 1013 l 850 838 l 593 838 l 465 176 l 663 176 l 576 -269 l 378 -269 l 430 0 z "},"Ү":{"ha":836,"x_min":114,"x_max":937,"o":"m 309 399 l 114 1013 l 313 1013 l 439 572 l 718 1013 l 937 1013 l 507 399 l 429 0 l 231 0 l 309 399 z "},"Ұ":{"ha":836,"x_min":102,"x_max":939,"o":"m 264 179 l 102 179 l 136 355 l 299 355 l 307 399 l 114 1013 l 330 1013 l 447 606 l 724 1013 l 939 1013 l 507 399 l 499 355 l 662 355 l 627 179 l 465 179 l 430 0 l 230 0 l 264 179 z "},"Ҳ":{"ha":836,"x_min":-83,"x_max":905,"o":"m 517 0 l 509 0 l 381 335 l 123 0 l -83 0 l 313 514 l 121 1013 l 328 1013 l 450 690 l 698 1013 l 905 1013 l 520 514 l 649 176 l 751 176 l 664 -269 l 465 -269 l 517 0 z "},"Һ":{"ha":836,"x_min":-20,"x_max":770,"o":"m 185 1055 l 382 1055 l 295 604 q 345 656 313 637 l 381 677 q 438 697 402 689 q 525 709 475 705 l 564 711 q 648 701 610 711 q 710 675 686 691 q 732 657 724 667 q 745 640 740 648 q 770 529 770 600 q 767 481 770 507 q 759 427 764 455 l 676 0 l 479 0 l 553 380 q 561 450 561 421 q 552 498 561 481 q 478 531 541 523 q 450 533 463 533 q 350 513 403 533 q 319 499 328 505 q 302 485 310 492 q 269 430 283 464 q 246 353 255 396 l 178 0 l -20 0 l 185 1055 z "},"Ӏ":{"ha":836,"x_min":18,"x_max":818,"o":"m 53 176 l 254 176 l 382 836 l 180 836 l 215 1013 l 818 1013 l 783 836 l 582 836 l 454 176 l 656 176 l 621 0 l 18 0 l 53 176 z "},"Ӂ":{"ha":836,"x_min":-90,"x_max":926,"o":"m 516 1078 q 374 1124 423 1078 q 324 1255 324 1169 l 324 1257 l 421 1257 q 456 1198 428 1217 q 537 1179 484 1179 q 622 1200 586 1179 q 673 1257 657 1221 l 777 1257 q 683 1124 750 1169 q 516 1078 616 1078 m 202 601 l 107 1013 l 284 1013 l 366 658 l 435 1013 l 598 1013 l 529 658 l 749 1013 l 926 1013 l 671 601 l 730 0 l 560 0 l 524 364 l 448 241 l 401 0 l 239 0 l 286 241 l 257 364 l 80 0 l -90 0 l 202 601 z "},"Ӄ":{"ha":836,"x_min":-12,"x_max":924,"o":"m 210 -135 l 302 -135 q 360 -126 335 -135 q 404 -98 385 -117 q 435 -46 422 -77 q 456 29 447 -15 l 511 315 q 519 385 519 356 q 511 432 519 416 q 437 465 484 465 l 378 465 l 254 343 l 188 0 l -12 0 l 184 1013 l 385 1013 l 307 612 l 698 1013 l 924 1013 l 559 646 q 669 610 617 646 q 692 592 684 600 q 707 574 701 583 q 725 526 718 555 q 731 460 731 496 q 728 413 731 438 q 720 361 726 389 l 656 29 q 613 -115 640 -55 q 548 -213 587 -175 q 454 -270 509 -252 q 328 -288 400 -288 l 180 -288 l 210 -135 z "},"Ӈ":{"ha":836,"x_min":-5,"x_max":842,"o":"m 204 -135 l 296 -135 q 356 -125 331 -135 q 400 -96 382 -116 q 430 -45 418 -76 q 450 29 442 -14 l 532 450 l 282 450 l 195 0 l -5 0 l 191 1013 l 391 1013 l 317 627 l 567 627 l 642 1013 l 842 1013 l 650 29 q 607 -116 634 -56 q 540 -215 580 -176 q 447 -270 500 -253 q 323 -288 393 -288 l 175 -288 l 204 -135 z "},"Ӌ":{"ha":836,"x_min":80,"x_max":856,"o":"m 290 176 l 488 176 l 555 519 q 505 467 537 486 l 469 446 q 408 425 448 434 q 325 414 369 416 l 286 412 q 202 422 240 412 q 140 448 163 432 q 118 466 126 456 q 104 484 110 475 q 80 594 80 524 q 83 642 80 616 q 91 696 85 668 l 160 1055 l 357 1055 l 297 743 q 289 673 289 702 q 298 625 289 642 q 372 592 309 600 q 400 590 387 590 q 500 610 447 590 q 531 624 522 618 q 547 638 540 631 q 581 693 566 659 q 604 770 595 727 l 659 1055 l 856 1055 l 651 0 l 454 0 l 401 -269 l 203 -269 l 290 176 z "},"Ӑ":{"ha":836,"x_min":-77,"x_max":784,"o":"m 526 1078 q 380 1124 430 1078 q 331 1255 331 1169 l 331 1257 l 428 1257 q 460 1200 433 1221 q 540 1179 486 1179 q 628 1199 593 1179 q 680 1257 663 1219 l 784 1257 q 746 1179 770 1213 q 688 1123 721 1145 q 613 1089 654 1101 q 526 1078 572 1078 m 395 1013 l 639 1013 l 715 0 l 517 0 l 507 250 l 236 250 l 126 0 l -77 0 l 395 1013 m 500 415 l 486 827 l 307 415 l 500 415 z "},"Ӓ":{"ha":836,"x_min":-77,"x_max":767,"o":"m 330 1090 q 315 1097 319 1090 q 313 1113 311 1103 l 338 1239 q 360 1257 342 1257 l 479 1257 q 494 1251 490 1257 q 496 1235 498 1245 l 471 1109 q 450 1090 468 1090 l 330 1090 m 599 1090 q 584 1097 588 1090 q 581 1113 579 1103 l 606 1239 q 628 1257 609 1257 l 747 1257 q 762 1251 757 1257 q 765 1235 767 1245 l 741 1109 q 719 1090 737 1090 l 599 1090 m 395 1013 l 639 1013 l 715 0 l 517 0 l 507 250 l 236 250 l 126 0 l -77 0 l 395 1013 m 500 415 l 486 827 l 307 415 l 500 415 z "},"Ӗ":{"ha":836,"x_min":20,"x_max":847,"o":"m 538 1072 q 393 1117 442 1072 q 343 1248 343 1162 l 343 1251 l 440 1251 q 472 1193 446 1214 q 552 1173 498 1173 q 640 1193 605 1173 q 692 1251 675 1213 l 796 1251 q 758 1172 783 1206 q 700 1116 733 1139 q 626 1083 667 1094 q 538 1072 585 1072 m 215 1013 l 847 1013 l 812 836 l 382 836 l 339 618 l 729 618 l 696 441 l 306 441 l 254 176 l 685 176 l 650 0 l 20 0 l 215 1013 z "},"Ә":{"ha":836,"x_min":40,"x_max":796,"o":"m 315 -20 q 40 303 40 -20 q 46 400 40 351 q 62 505 52 449 l 75 570 l 577 570 q 586 639 583 607 q 589 701 589 671 q 563 813 589 774 q 473 851 537 851 q 371 829 424 851 q 258 760 317 806 l 301 982 q 408 1019 354 1006 q 517 1031 463 1031 q 727 951 659 1031 q 796 710 796 871 q 774 505 796 620 q 708 280 749 378 q 609 115 667 182 q 478 15 552 49 q 315 -20 405 -20 m 351 160 q 419 178 389 160 q 471 228 448 196 q 510 302 493 259 q 540 393 526 345 l 253 393 q 249 351 250 372 q 248 310 248 330 q 253 249 248 277 q 270 202 258 222 q 301 171 281 182 q 351 160 321 160 z "},"Ӛ":{"ha":836,"x_min":40,"x_max":796,"o":"m 330 1090 q 315 1097 319 1090 q 313 1113 311 1103 l 338 1239 q 360 1257 342 1257 l 479 1257 q 494 1251 490 1257 q 496 1235 498 1245 l 471 1109 q 450 1090 468 1090 l 330 1090 m 599 1090 q 584 1097 588 1090 q 581 1113 579 1103 l 606 1239 q 628 1257 609 1257 l 747 1257 q 762 1251 757 1257 q 765 1235 767 1245 l 741 1109 q 719 1090 737 1090 l 599 1090 m 315 -20 q 40 303 40 -20 q 46 400 40 351 q 62 505 52 449 l 75 570 l 577 570 q 586 639 583 607 q 589 701 589 671 q 563 813 589 774 q 473 851 537 851 q 371 829 424 851 q 258 760 317 806 l 301 982 q 408 1019 354 1006 q 517 1031 463 1031 q 727 951 659 1031 q 796 710 796 871 q 774 505 796 620 q 708 280 749 378 q 609 115 667 182 q 478 15 552 49 q 315 -20 405 -20 m 351 160 q 419 178 389 160 q 471 228 448 196 q 510 302 493 259 q 540 393 526 345 l 253 393 q 249 351 250 372 q 248 310 248 330 q 253 249 248 277 q 270 202 258 222 q 301 171 281 182 q 351 160 321 160 z "},"Ӝ":{"ha":836,"x_min":-90,"x_max":926,"o":"m 335 1090 q 320 1097 324 1090 q 317 1113 315 1103 l 343 1239 q 365 1257 347 1257 l 484 1257 q 499 1251 494 1257 q 501 1235 503 1245 l 476 1109 q 454 1090 473 1090 l 335 1090 m 604 1090 q 588 1097 593 1090 q 586 1113 584 1103 l 611 1239 q 633 1257 614 1257 l 751 1257 q 767 1251 762 1257 q 770 1235 772 1245 l 745 1109 q 724 1090 742 1090 l 604 1090 m 202 601 l 107 1013 l 284 1013 l 366 658 l 435 1013 l 598 1013 l 529 658 l 749 1013 l 926 1013 l 671 601 l 730 0 l 560 0 l 524 364 l 448 241 l 401 0 l 239 0 l 286 241 l 257 364 l 80 0 l -90 0 l 202 601 z "},"Ӟ":{"ha":836,"x_min":-6,"x_max":774,"o":"m 310 1090 q 295 1097 299 1090 q 292 1113 290 1103 l 318 1239 q 340 1257 322 1257 l 458 1257 q 474 1251 469 1257 q 476 1235 478 1245 l 451 1109 q 429 1090 448 1090 l 310 1090 m 578 1090 q 563 1097 568 1090 q 561 1113 559 1103 l 586 1239 q 608 1257 589 1257 l 726 1257 q 742 1251 736 1257 q 745 1235 747 1245 l 720 1109 q 699 1090 717 1090 l 578 1090 m 301 -20 q 154 -7 231 -20 q -6 31 77 6 l 31 214 q 165 166 94 183 q 302 150 237 150 q 398 162 357 150 q 468 196 439 174 q 510 249 496 218 q 524 318 524 280 q 480 420 524 387 q 363 453 437 453 l 256 453 l 292 629 l 398 629 q 475 639 440 629 q 535 667 510 649 q 573 709 559 685 q 587 762 587 734 q 548 836 587 810 q 435 861 509 861 q 314 847 380 861 q 172 806 247 833 l 208 987 q 345 1020 279 1009 q 465 1031 410 1031 q 594 1014 536 1031 q 691 965 651 996 q 753 889 732 933 q 774 791 774 845 q 758 703 774 743 q 710 631 741 663 q 635 578 680 600 q 533 546 590 556 q 671 463 629 520 q 713 318 713 406 q 685 179 713 241 q 603 73 656 117 q 473 4 549 28 q 301 -20 397 -20 z "},"Ӡ":{"ha":836,"x_min":-40,"x_max":874,"o":"m 317 -19 q 153 -3 221 -19 q 43 42 85 12 q -20 116 0 73 q -40 214 -40 159 q -38 255 -40 234 q -31 298 -35 276 l 184 298 q 182 272 182 285 q 194 221 182 242 q 228 185 206 199 q 280 165 250 172 q 345 159 310 159 q 466 183 412 159 q 543 258 519 207 q 551 278 549 269 q 556 298 554 288 q 558 314 557 306 q 559 330 559 321 q 528 402 559 376 q 431 435 496 427 q 407 437 419 437 q 382 438 395 438 l 209 438 l 238 586 l 538 836 l 155 836 l 189 1013 l 874 1013 l 842 847 l 517 575 q 599 568 560 572 q 670 551 637 563 q 727 519 702 540 q 770 465 752 498 q 789 410 783 439 q 795 351 795 381 q 789 288 795 321 q 753 178 778 225 q 692 97 728 131 q 613 40 657 62 q 520 5 569 18 q 420 -14 472 -8 q 317 -19 368 -19 z "},"Ӣ":{"ha":836,"x_min":-18,"x_max":852,"o":"m 359 1255 l 787 1255 l 762 1127 l 334 1127 l 359 1255 m 179 1013 l 355 1013 l 212 277 l 637 1013 l 852 1013 l 656 0 l 479 0 l 623 736 l 196 0 l -18 0 l 179 1013 z "},"Ӥ":{"ha":836,"x_min":-18,"x_max":852,"o":"m 336 1090 q 321 1097 326 1090 q 319 1113 317 1103 l 345 1239 q 366 1257 349 1257 l 485 1257 q 500 1251 496 1257 q 503 1235 505 1245 l 477 1109 q 456 1090 474 1090 l 336 1090 m 605 1090 q 590 1097 594 1090 q 587 1113 585 1103 l 612 1239 q 634 1257 615 1257 l 753 1257 q 768 1251 763 1257 q 771 1235 773 1245 l 747 1109 q 725 1090 743 1090 l 605 1090 m 179 1013 l 355 1013 l 212 277 l 637 1013 l 852 1013 l 656 0 l 479 0 l 623 736 l 196 0 l -18 0 l 179 1013 z "},"Ӧ":{"ha":836,"x_min":41,"x_max":794,"o":"m 317 1090 q 301 1097 306 1090 q 299 1113 297 1103 l 325 1239 q 347 1257 329 1257 l 465 1257 q 480 1251 476 1257 q 483 1235 485 1245 l 458 1109 q 436 1090 454 1090 l 317 1090 m 585 1090 q 570 1097 574 1090 q 568 1113 566 1103 l 593 1239 q 614 1257 595 1257 l 733 1257 q 748 1251 743 1257 q 751 1235 753 1245 l 727 1109 q 705 1090 724 1090 l 585 1090 m 337 -20 q 117 66 193 -20 q 41 327 41 153 q 51 459 41 389 q 77 596 60 528 q 117 725 94 663 q 167 833 140 787 q 304 981 222 931 q 498 1031 387 1031 q 718 945 642 1031 q 794 686 794 860 q 786 561 794 628 q 761 425 777 493 q 723 294 745 357 q 671 179 700 230 q 532 31 615 81 q 337 -20 450 -20 m 358 158 q 432 182 401 158 q 488 253 463 206 q 520 327 505 284 q 549 427 535 370 q 565 497 557 461 q 577 567 572 532 q 586 635 583 602 q 589 694 589 667 q 478 854 589 854 q 404 830 434 854 q 349 759 373 806 q 317 687 333 730 q 286 584 302 645 q 269 503 276 543 q 257 427 261 463 q 250 361 252 391 q 248 311 248 331 q 275 198 248 238 q 358 158 302 158 z "},"Ө":{"ha":836,"x_min":40,"x_max":796,"o":"m 315 -20 q 109 62 178 -20 q 40 296 40 143 q 45 394 40 340 q 62 506 51 448 q 127 731 85 633 q 227 895 169 829 q 360 996 286 962 q 522 1031 434 1031 q 728 950 659 1031 q 796 715 796 869 q 791 617 796 671 q 774 505 785 563 q 710 282 751 380 q 610 118 669 185 q 478 16 552 51 q 315 -20 404 -20 m 583 618 q 587 661 585 640 q 588 702 588 682 q 583 763 588 735 q 567 810 578 790 q 535 840 555 829 q 485 851 515 851 q 418 834 446 851 q 367 786 389 817 q 328 712 345 755 q 296 618 311 669 l 583 618 m 351 160 q 420 178 390 160 q 473 232 450 197 q 516 320 497 268 q 552 441 536 373 l 260 441 q 251 371 254 404 q 248 310 248 338 q 272 198 248 236 q 351 160 295 160 z "},"Ӫ":{"ha":836,"x_min":40,"x_max":796,"o":"m 330 1090 q 315 1097 319 1090 q 313 1113 311 1103 l 338 1239 q 360 1257 342 1257 l 479 1257 q 494 1251 490 1257 q 496 1235 498 1245 l 471 1109 q 450 1090 468 1090 l 330 1090 m 599 1090 q 584 1097 588 1090 q 581 1113 579 1103 l 606 1239 q 628 1257 609 1257 l 747 1257 q 762 1251 757 1257 q 765 1235 767 1245 l 741 1109 q 719 1090 737 1090 l 599 1090 m 315 -20 q 109 62 178 -20 q 40 296 40 143 q 45 394 40 340 q 62 506 51 448 q 127 731 85 633 q 227 895 169 829 q 360 996 286 962 q 522 1031 434 1031 q 728 950 659 1031 q 796 715 796 869 q 791 617 796 671 q 774 505 785 563 q 710 282 751 380 q 610 118 669 185 q 478 16 552 51 q 315 -20 404 -20 m 583 618 q 587 661 585 640 q 588 702 588 682 q 583 763 588 735 q 567 810 578 790 q 535 840 555 829 q 485 851 515 851 q 418 834 446 851 q 367 786 389 817 q 328 712 345 755 q 296 618 311 669 l 583 618 m 351 160 q 420 178 390 160 q 473 232 450 197 q 516 320 497 268 q 552 441 536 373 l 260 441 q 251 371 254 404 q 248 310 248 338 q 272 198 248 236 q 351 160 295 160 z "},"Ӭ":{"ha":836,"x_min":31,"x_max":772,"o":"m 294 1090 q 279 1097 283 1090 q 277 1113 275 1103 l 302 1239 q 324 1257 307 1257 l 443 1257 q 458 1251 454 1257 q 460 1235 463 1245 l 435 1109 q 414 1090 432 1090 l 294 1090 m 563 1090 q 548 1097 552 1090 q 545 1113 543 1103 l 570 1239 q 592 1257 573 1257 l 711 1257 q 726 1251 721 1257 q 729 1235 731 1245 l 705 1109 q 683 1090 701 1090 l 563 1090 m 233 -20 q 123 -7 173 -20 q 31 29 74 5 l 74 252 q 262 160 155 160 q 524 417 446 160 l 156 417 l 190 593 l 557 593 q 559 621 559 608 q 560 646 560 634 q 519 801 560 750 q 396 851 477 851 q 287 828 341 851 q 173 760 232 806 l 216 982 q 438 1031 317 1031 q 557 1017 506 1031 q 645 978 608 1003 q 707 921 682 954 q 746 849 731 888 q 766 769 760 811 q 772 686 772 728 q 768 601 772 648 q 754 506 764 555 q 684 283 730 380 q 571 118 637 185 q 419 16 505 51 q 233 -20 334 -20 z "},"Ӯ":{"ha":836,"x_min":34,"x_max":922,"o":"m 359 1268 l 787 1268 l 762 1141 l 334 1141 l 359 1268 m 68 176 l 122 176 q 180 182 160 176 q 227 209 203 188 q 273 269 251 230 l 329 367 l 124 1013 l 331 1013 l 464 592 l 715 1013 l 922 1013 l 441 205 q 314 51 379 102 q 170 0 249 0 l 34 0 l 68 176 z "},"Ӱ":{"ha":836,"x_min":34,"x_max":922,"o":"m 341 1090 q 326 1097 330 1090 q 323 1113 321 1103 l 349 1239 q 371 1257 353 1257 l 490 1257 q 505 1251 500 1257 q 507 1235 509 1245 l 482 1109 q 460 1090 479 1090 l 341 1090 m 610 1090 q 594 1097 599 1090 q 592 1113 590 1103 l 617 1239 q 639 1257 620 1257 l 758 1257 q 773 1251 768 1257 q 776 1235 778 1245 l 751 1109 q 730 1090 748 1090 l 610 1090 m 68 176 l 122 176 q 180 182 160 176 q 227 209 203 188 q 273 269 251 230 l 329 367 l 124 1013 l 331 1013 l 464 592 l 715 1013 l 922 1013 l 441 205 q 314 51 379 102 q 170 0 249 0 l 34 0 l 68 176 z "},"Ӳ":{"ha":836,"x_min":34,"x_max":922,"o":"m 473 1257 l 665 1257 l 437 1078 l 303 1078 l 473 1257 m 727 1257 l 920 1257 l 691 1078 l 557 1078 l 727 1257 m 68 176 l 122 176 q 180 182 160 176 q 227 209 203 188 q 273 269 251 230 l 329 367 l 124 1013 l 331 1013 l 464 592 l 715 1013 l 922 1013 l 441 205 q 314 51 379 102 q 170 0 249 0 l 34 0 l 68 176 z "},"Ӵ":{"ha":836,"x_min":90,"x_max":866,"o":"m 340 1104 q 325 1110 330 1104 q 323 1126 321 1116 l 349 1253 q 370 1271 353 1271 l 489 1271 q 504 1265 500 1271 q 507 1249 509 1259 l 481 1122 q 460 1104 478 1104 l 340 1104 m 609 1104 q 594 1110 598 1104 q 591 1126 589 1116 l 616 1253 q 638 1271 619 1271 l 757 1271 q 772 1265 767 1271 q 775 1249 777 1259 l 751 1122 q 729 1104 747 1104 l 609 1104 m 565 519 q 473 439 534 467 q 311 412 412 412 q 211 422 253 412 q 142 454 170 432 q 102 511 115 476 q 90 595 90 546 q 92 643 90 618 q 100 696 95 669 l 170 1055 l 368 1055 l 307 743 q 303 716 304 728 q 302 692 302 704 q 311 640 302 660 q 337 609 321 621 q 374 594 353 598 q 420 590 396 590 q 498 601 466 590 q 554 635 531 612 q 591 692 576 658 q 614 770 605 726 l 669 1055 l 866 1055 l 661 0 l 464 0 l 565 519 z "},"Ӷ":{"ha":836,"x_min":42,"x_max":869,"o":"m 242 0 l 42 0 l 239 1013 l 869 1013 l 836 836 l 405 836 l 277 176 l 475 176 l 389 -269 l 190 -269 l 242 0 z "},"Ӹ":{"ha":836,"x_min":-69,"x_max":909,"o":"m 336 1090 q 321 1097 326 1090 q 319 1113 317 1103 l 345 1239 q 366 1257 349 1257 l 485 1257 q 500 1251 496 1257 q 503 1235 505 1245 l 477 1109 q 456 1090 474 1090 l 336 1090 m 605 1090 q 590 1097 594 1090 q 587 1113 585 1103 l 612 1239 q 634 1257 615 1257 l 753 1257 q 768 1251 763 1257 q 771 1235 773 1245 l 747 1109 q 725 1090 743 1090 l 605 1090 m 127 1013 l 300 1013 l 224 619 l 231 619 q 380 602 320 619 q 476 555 440 585 q 528 484 513 526 q 543 393 543 442 q 541 351 543 372 q 534 306 538 330 q 397 75 503 151 q 111 0 292 0 l -69 0 l 127 1013 m 736 1013 l 909 1013 l 713 0 l 540 0 l 736 1013 m 149 160 q 236 168 199 160 q 297 192 272 175 q 338 237 323 209 q 361 306 353 265 q 366 337 364 322 q 367 363 367 351 q 360 402 367 385 q 340 433 354 420 q 294 453 324 446 q 208 460 263 460 l 193 460 l 135 160 l 149 160 z "},"Ԑ":{"ha":836,"x_min":34,"x_max":809,"o":"m 353 -20 q 114 39 195 -20 q 34 210 34 97 q 36 245 34 228 q 41 282 38 262 q 132 459 62 391 q 315 546 201 527 q 193 608 232 562 q 154 718 154 654 q 155 743 154 730 q 159 768 157 755 q 202 876 171 827 q 284 959 234 924 q 400 1012 334 994 q 549 1031 467 1031 q 678 1020 613 1031 q 809 987 743 1008 l 774 806 q 647 847 709 833 q 532 861 585 861 q 404 829 450 861 q 348 742 359 797 q 346 728 347 734 q 345 717 345 722 q 380 653 345 676 q 482 629 416 629 l 589 629 l 555 453 l 448 453 q 304 409 359 453 q 235 290 249 366 q 233 275 233 283 q 232 262 232 268 q 271 181 232 210 q 397 151 310 151 q 465 155 429 151 q 540 168 502 159 q 617 188 578 176 q 690 216 655 200 l 654 31 q 504 -7 581 6 q 353 -20 427 -20 z "},"Ԛ":{"ha":836,"x_min":41,"x_max":794,"o":"m 363 -20 l 345 -20 q 119 64 197 -20 q 41 324 41 148 q 50 450 41 382 q 74 586 58 518 q 113 718 90 654 q 165 832 136 781 q 499 1031 279 1031 q 624 1010 569 1031 q 716 947 678 989 q 774 841 754 905 q 794 688 794 777 q 786 562 794 630 q 761 426 777 494 q 722 293 745 357 q 671 178 699 229 q 643 134 657 154 q 611 96 629 114 q 573 60 594 77 q 526 26 553 43 l 627 -100 l 484 -191 l 363 -20 m 358 158 q 432 182 401 158 q 488 253 463 206 q 520 327 505 284 q 549 427 535 370 q 565 497 557 461 q 577 567 572 532 q 586 635 583 602 q 589 694 589 667 q 478 854 589 854 q 404 830 434 854 q 349 759 373 806 q 317 687 333 730 q 286 584 302 645 q 269 503 276 543 q 257 427 261 463 q 250 361 252 391 q 248 311 248 331 q 275 198 248 238 q 358 158 302 158 z "},"Ԝ":{"ha":836,"x_min":41,"x_max":943,"o":"m 111 1013 l 283 1013 l 210 269 l 394 750 l 555 750 l 564 269 l 765 1013 l 943 1013 l 630 0 l 447 0 l 439 532 l 223 0 l 41 0 l 111 1013 z "},"а":{"ha":836,"x_min":32,"x_max":774,"o":"m 258 -20 q 164 -5 205 -20 q 93 39 122 10 q 47 109 63 67 q 32 205 32 151 q 59 330 32 275 q 137 422 85 385 q 266 480 189 460 q 441 500 342 500 l 572 500 l 578 533 q 579 541 578 537 q 579 550 579 545 q 545 611 579 591 q 448 632 511 632 q 320 613 389 632 q 168 555 251 595 l 200 725 q 280 749 243 739 q 351 766 317 760 q 417 775 385 772 q 481 778 449 778 q 698 726 623 778 q 774 573 774 675 q 769 511 774 546 q 755 433 764 475 l 672 0 l 475 0 l 492 85 q 387 6 446 32 q 258 -20 328 -20 m 342 117 q 411 133 378 117 q 471 180 444 149 q 516 257 497 212 q 545 359 535 302 l 468 359 q 296 325 354 359 q 239 220 239 290 q 266 144 239 172 q 342 117 293 117 z "},"б":{"ha":836,"x_min":55,"x_max":815,"o":"m 338 -20 q 204 5 258 -20 q 117 71 151 30 q 70 163 84 111 q 55 271 55 216 q 57 318 55 294 q 64 367 60 342 q 70 397 67 382 q 74 421 73 412 l 84 534 q 93 614 87 574 q 109 694 99 654 q 134 772 119 734 q 171 847 149 810 q 239 933 201 897 q 318 994 276 969 q 407 1034 360 1019 q 502 1058 453 1048 q 603 1072 551 1067 q 708 1080 655 1076 q 729 1082 721 1081 q 743 1084 737 1083 q 754 1087 749 1085 q 768 1093 760 1089 l 815 949 q 786 941 802 944 q 755 937 770 938 l 555 920 q 482 909 510 917 q 433 890 454 901 q 382 856 408 876 q 334 812 357 836 q 293 761 311 787 q 266 709 275 734 q 495 778 366 778 q 630 753 576 778 q 719 688 685 728 q 767 596 752 648 q 781 491 781 545 q 778 434 781 463 q 770 379 775 406 q 713 214 752 288 q 618 88 674 140 q 491 8 562 36 q 338 -20 420 -20 m 372 142 q 440 159 408 142 q 498 207 473 176 q 542 281 524 237 q 571 379 561 325 q 578 427 576 403 q 581 469 581 450 q 576 519 581 493 q 558 566 571 545 q 524 602 546 588 q 467 616 501 616 q 398 601 430 616 q 342 556 367 585 q 299 491 317 528 q 271 411 281 454 q 265 380 268 397 q 260 345 262 363 q 257 311 258 328 q 256 283 256 295 q 260 238 256 262 q 278 192 265 213 q 313 156 291 170 q 372 142 336 142 z "},"в":{"ha":836,"x_min":24,"x_max":778,"o":"m 172 760 l 489 760 q 632 749 578 760 q 719 718 687 739 q 763 669 747 699 q 778 597 778 640 q 743 481 778 532 q 635 406 708 430 q 689 381 667 397 q 723 348 710 366 q 741 308 735 329 q 746 265 746 287 q 745 243 746 256 q 741 218 744 231 q 628 54 721 109 q 374 0 536 0 l 24 0 l 172 760 m 420 473 q 495 478 465 473 q 545 491 526 482 q 572 514 564 500 q 581 547 581 528 q 575 576 581 565 q 560 594 569 588 q 548 601 555 597 q 528 606 541 604 q 496 610 515 608 q 446 611 476 611 l 340 611 l 314 473 l 420 473 m 364 149 q 438 154 405 149 q 496 171 472 159 q 534 203 521 183 q 548 251 548 222 q 539 286 548 273 q 515 307 531 299 q 398 325 481 325 l 285 325 l 251 149 l 364 149 z "},"г":{"ha":836,"x_min":94,"x_max":783,"o":"m 241 760 l 783 760 l 754 611 l 410 611 l 291 0 l 94 0 l 241 760 z "},"ѓ":{"ha":836,"x_min":94,"x_max":836,"o":"m 618 1118 l 836 1118 l 536 863 l 403 863 l 618 1118 m 241 760 l 783 760 l 754 611 l 410 611 l 291 0 l 94 0 l 241 760 z "},"ґ":{"ha":836,"x_min":107,"x_max":838,"o":"m 254 760 l 654 760 l 696 972 l 838 972 l 768 611 l 423 611 l 304 0 l 107 0 l 254 760 z "},"д":{"ha":836,"x_min":-67,"x_max":793,"o":"m 0 149 l 52 149 q 70 157 59 149 q 88 178 80 166 q 99 196 94 186 q 109 219 104 205 q 119 252 114 233 q 128 295 123 271 l 219 760 l 793 760 l 675 149 l 758 149 l 691 -194 l 543 -194 l 581 0 l 119 0 l 81 -194 l -67 -194 l 0 149 m 477 149 l 567 611 l 387 611 l 329 311 q 307 221 319 262 q 277 149 294 181 l 477 149 z "},"е":{"ha":836,"x_min":52,"x_max":783,"o":"m 397 -20 q 139 60 226 -20 q 52 298 52 139 q 59 390 52 345 q 81 479 66 436 q 116 563 95 523 q 165 636 138 602 q 301 743 223 706 q 472 779 379 779 q 600 758 543 779 q 698 697 657 736 q 761 603 739 659 q 783 480 783 548 q 779 412 783 452 q 765 315 774 372 l 250 315 q 247 294 248 304 q 245 273 246 283 q 427 138 245 138 q 572 158 499 138 q 708 220 644 179 l 673 37 q 539 -5 608 9 q 397 -20 469 -20 m 594 464 q 599 501 599 482 q 564 591 599 558 q 467 624 530 624 q 353 584 401 624 q 278 464 305 544 l 594 464 z "},"ѐ":{"ha":836,"x_min":52,"x_max":783,"o":"m 278 1136 l 471 1136 l 612 881 l 478 881 l 278 1136 m 397 -20 q 139 60 226 -20 q 52 298 52 139 q 59 390 52 345 q 81 479 66 436 q 116 563 95 523 q 165 636 138 602 q 301 743 223 706 q 472 779 379 779 q 600 758 543 779 q 698 697 657 736 q 761 603 739 659 q 783 480 783 548 q 779 412 783 452 q 765 315 774 372 l 250 315 q 247 294 248 304 q 245 273 246 283 q 427 138 245 138 q 572 158 499 138 q 708 220 644 179 l 673 37 q 539 -5 608 9 q 397 -20 469 -20 m 594 464 q 599 501 599 482 q 564 591 599 558 q 467 624 530 624 q 353 584 401 624 q 278 464 305 544 l 594 464 z "},"ё":{"ha":836,"x_min":52,"x_max":783,"o":"m 324 915 q 309 921 314 915 q 306 937 304 927 l 330 1063 q 352 1082 333 1082 l 472 1082 q 487 1076 483 1082 q 490 1059 492 1069 l 465 933 q 443 915 461 915 l 324 915 m 592 915 q 577 921 582 915 q 574 937 572 927 l 598 1063 q 620 1082 601 1082 l 741 1082 q 756 1076 751 1082 q 758 1059 760 1069 l 733 933 q 711 915 730 915 l 592 915 m 397 -20 q 139 60 226 -20 q 52 298 52 139 q 59 390 52 345 q 81 479 66 436 q 116 563 95 523 q 165 636 138 602 q 301 743 223 706 q 472 779 379 779 q 600 758 543 779 q 698 697 657 736 q 761 603 739 659 q 783 480 783 548 q 779 412 783 452 q 765 315 774 372 l 250 315 q 247 294 248 304 q 245 273 246 283 q 427 138 245 138 q 572 158 499 138 q 708 220 644 179 l 673 37 q 539 -5 608 9 q 397 -20 469 -20 m 594 464 q 599 501 599 482 q 564 591 599 558 q 467 624 530 624 q 353 584 401 624 q 278 464 305 544 l 594 464 z "},"ж":{"ha":836,"x_min":-64,"x_max":899,"o":"m 199 471 l 86 760 l 274 760 l 366 527 l 411 760 l 574 760 l 528 527 l 711 760 l 899 760 l 673 471 l 753 0 l 581 0 l 531 290 l 466 207 l 426 0 l 263 0 l 303 207 l 271 290 l 109 0 l -64 0 l 199 471 z "},"з":{"ha":836,"x_min":35,"x_max":747,"o":"m 264 -15 q 211 -13 237 -15 q 157 -7 184 -12 q 99 7 130 -2 q 35 30 69 16 l 66 190 q 124 163 97 174 q 180 146 151 153 q 241 138 208 140 q 317 136 274 136 q 386 139 354 136 q 441 150 417 141 q 481 175 465 158 q 502 220 496 192 q 504 239 504 231 q 491 274 504 260 q 457 297 477 288 q 412 310 437 306 q 363 313 387 313 l 253 313 l 282 462 l 375 462 q 434 467 404 462 q 490 482 465 471 q 532 511 515 493 q 548 555 548 529 q 510 611 548 593 q 391 629 471 629 q 170 594 280 629 l 199 745 q 318 769 254 760 q 448 778 382 778 q 580 765 524 778 q 673 730 636 753 q 729 675 711 707 q 747 606 747 644 q 746 587 747 597 q 743 567 745 576 q 719 495 734 525 q 682 445 703 466 q 635 411 661 425 q 583 389 610 397 q 629 366 608 380 q 666 332 650 352 q 690 285 682 311 q 699 227 699 259 q 665 118 699 164 q 571 43 630 73 q 432 -1 511 14 q 264 -15 353 -15 z "},"и":{"ha":836,"x_min":29,"x_max":814,"o":"m 177 760 l 374 760 l 280 275 l 616 760 l 814 760 l 666 0 l 469 0 l 563 485 l 227 0 l 29 0 l 177 760 z "},"й":{"ha":836,"x_min":29,"x_max":814,"o":"m 499 861 q 352 905 402 861 q 302 1040 302 949 l 302 1063 l 400 1063 l 400 1054 q 430 988 400 1013 q 513 964 460 964 q 606 990 566 964 q 663 1063 646 1016 l 760 1063 q 674 915 740 968 q 499 861 609 861 m 177 760 l 374 760 l 280 275 l 616 760 l 814 760 l 666 0 l 469 0 l 563 485 l 227 0 l 29 0 l 177 760 z "},"ѝ":{"ha":836,"x_min":29,"x_max":814,"o":"m 292 1118 l 485 1118 l 627 863 l 492 863 l 292 1118 m 177 760 l 374 760 l 280 275 l 616 760 l 814 760 l 666 0 l 469 0 l 563 485 l 227 0 l 29 0 l 177 760 z "},"к":{"ha":836,"x_min":39,"x_max":865,"o":"m 187 760 l 386 760 l 336 501 l 625 760 l 865 760 l 523 476 l 734 0 l 514 0 l 375 355 l 294 290 l 238 0 l 39 0 l 187 760 z "},"ќ":{"ha":836,"x_min":39,"x_max":865,"o":"m 597 1118 l 814 1118 l 515 863 l 381 863 l 597 1118 m 187 760 l 386 760 l 336 501 l 625 760 l 865 760 l 523 476 l 734 0 l 514 0 l 375 355 l 294 290 l 238 0 l 39 0 l 187 760 z "},"л":{"ha":836,"x_min":-51,"x_max":816,"o":"m -19 163 l -12 163 q 47 168 23 163 q 89 188 71 174 q 118 229 106 203 q 143 298 131 256 q 154 337 148 315 q 165 383 159 359 q 175 430 170 406 q 184 475 180 454 l 240 760 l 816 760 l 668 0 l 471 0 l 589 611 l 408 611 l 382 477 q 375 438 380 465 q 361 374 370 410 q 340 297 352 338 q 312 216 328 256 q 276 139 296 176 q 232 77 256 103 q 141 19 195 37 q 14 0 87 0 l -51 0 l -19 163 z "},"м":{"ha":836,"x_min":-20,"x_max":846,"o":"m 127 760 l 366 760 l 401 315 l 608 760 l 846 760 l 699 0 l 536 0 l 643 558 l 440 115 l 283 115 l 251 558 l 142 0 l -20 0 l 127 760 z "},"н":{"ha":836,"x_min":37,"x_max":795,"o":"m 185 760 l 382 760 l 332 501 l 547 501 l 597 760 l 795 760 l 647 0 l 450 0 l 518 353 l 303 353 l 235 0 l 37 0 l 185 760 z "},"о":{"ha":836,"x_min":60,"x_max":777,"o":"m 361 -20 q 236 1 292 -20 q 141 63 180 22 q 81 165 102 104 q 60 308 60 227 q 72 429 60 370 q 108 540 84 488 q 168 636 132 592 q 249 712 203 680 q 352 762 295 744 q 475 779 408 779 q 601 759 545 779 q 695 697 656 738 q 755 594 734 656 q 777 451 777 533 q 749 273 777 358 q 669 123 722 188 q 538 19 616 58 q 361 -20 461 -20 m 378 140 q 460 168 423 140 q 523 238 497 195 q 563 338 549 282 q 576 450 576 393 q 545 577 576 537 q 460 618 514 618 q 375 590 412 618 q 312 518 337 562 q 273 418 286 473 q 260 309 260 363 q 292 181 260 222 q 378 140 324 140 z "},"п":{"ha":836,"x_min":43,"x_max":800,"o":"m 191 760 l 800 760 l 652 0 l 455 0 l 574 611 l 359 611 l 240 0 l 43 0 l 191 760 z "},"р":{"ha":836,"x_min":-27,"x_max":791,"o":"m 177 760 l 356 760 l 353 646 q 457 746 402 713 q 576 778 513 778 q 666 759 626 778 q 733 704 705 740 q 776 615 761 667 q 791 496 791 563 q 785 412 791 456 q 770 326 780 369 q 745 242 760 283 q 711 165 730 201 q 591 28 662 75 q 441 -20 521 -20 q 316 23 364 -20 q 255 140 269 66 l 172 -289 l -27 -289 l 177 760 m 402 142 q 479 170 445 142 q 539 243 514 198 q 577 345 564 288 q 591 458 591 401 q 563 577 591 539 q 488 615 536 615 q 410 588 446 615 q 348 517 374 561 q 308 417 322 473 q 294 306 294 362 q 324 182 294 222 q 402 142 354 142 z "},"с":{"ha":836,"x_min":83,"x_max":766,"o":"m 411 -20 q 274 1 334 -20 q 171 63 213 22 q 106 166 128 104 q 83 310 83 228 q 116 495 83 410 q 208 643 149 581 q 352 742 268 706 q 538 778 435 778 q 657 764 600 778 q 766 721 715 750 l 730 539 q 545 616 649 616 q 438 594 486 616 q 356 532 391 572 q 303 438 322 492 q 284 320 284 384 q 325 185 284 228 q 447 142 365 142 q 550 158 497 142 q 668 212 602 175 l 630 25 q 411 -20 525 -20 z "},"т":{"ha":836,"x_min":152,"x_max":796,"o":"m 361 611 l 152 611 l 181 760 l 796 760 l 767 611 l 558 611 l 439 0 l 242 0 l 361 611 z "},"у":{"ha":836,"x_min":-44,"x_max":869,"o":"m -14 -136 l 66 -136 q 116 -133 94 -136 q 157 -117 138 -129 q 195 -81 176 -104 q 233 -20 213 -58 l 260 31 l 113 760 l 314 760 l 400 285 l 660 760 l 869 760 l 391 -82 q 321 -190 353 -149 q 259 -252 290 -231 q 195 -281 229 -274 q 119 -288 161 -288 l -44 -288 l -14 -136 z "},"ў":{"ha":836,"x_min":-44,"x_max":869,"o":"m 503 861 q 356 905 406 861 q 306 1040 306 949 l 306 1063 l 404 1063 l 404 1054 q 433 988 404 1013 q 516 964 463 964 q 609 990 570 964 q 666 1063 649 1016 l 763 1063 q 678 915 743 968 q 503 861 612 861 m -14 -136 l 66 -136 q 116 -133 94 -136 q 157 -117 138 -129 q 195 -81 176 -104 q 233 -20 213 -58 l 260 31 l 113 760 l 314 760 l 400 285 l 660 760 l 869 760 l 391 -82 q 321 -190 353 -149 q 259 -252 290 -231 q 195 -281 229 -274 q 119 -288 161 -288 l -44 -288 l -14 -136 z "},"ф":{"ha":836,"x_min":41,"x_max":793,"o":"m 258 -20 q 169 11 209 -15 q 100 76 129 37 q 57 165 72 115 q 41 267 41 214 q 44 320 41 290 q 53 379 47 349 q 86 492 64 439 q 137 588 108 545 q 200 665 165 631 q 270 723 234 699 q 343 761 307 747 q 414 778 380 774 l 467 1055 l 630 1055 l 576 778 q 665 748 625 772 q 734 684 705 723 q 778 595 762 645 q 793 491 793 545 q 790 439 793 467 q 781 379 787 410 q 724 214 763 286 q 634 92 684 142 q 529 14 585 42 q 421 -20 473 -14 l 369 -289 l 206 -289 l 258 -20 m 382 616 q 331 594 356 610 q 284 548 306 577 q 244 477 262 519 q 216 379 227 435 q 208 328 210 352 q 205 285 205 303 q 211 236 205 259 q 226 193 216 212 q 252 161 237 174 q 290 142 268 147 l 382 616 m 452 142 q 504 164 479 148 q 550 209 528 180 q 589 279 572 237 q 618 379 607 321 q 629 473 629 433 q 625 522 629 498 q 609 564 620 545 q 583 597 599 583 q 545 616 567 610 l 452 142 z "},"х":{"ha":836,"x_min":-31,"x_max":852,"o":"m 316 403 l 141 760 l 345 760 l 446 545 l 627 760 l 852 760 l 529 385 l 718 0 l 515 0 l 399 241 l 194 0 l -31 0 l 316 403 z "},"ч":{"ha":836,"x_min":96,"x_max":768,"o":"m 479 282 l 406 282 q 159 351 250 282 l 156 353 q 111 409 127 375 q 96 486 96 442 q 97 518 96 502 q 102 551 99 535 l 143 760 l 346 760 l 301 531 q 299 509 299 519 q 313 467 299 483 q 318 462 315 465 q 325 456 321 459 q 435 429 357 429 l 507 429 l 572 760 l 768 760 l 621 0 l 424 0 l 479 282 z "},"ц":{"ha":836,"x_min":24,"x_max":782,"o":"m 591 0 l 24 0 l 172 760 l 370 760 l 251 149 l 466 149 l 585 760 l 782 760 l 663 149 l 769 149 l 702 -194 l 553 -194 l 591 0 z "},"ш":{"ha":836,"x_min":-21,"x_max":857,"o":"m 127 760 l 290 760 l 171 149 l 292 149 l 410 760 l 573 760 l 454 149 l 575 149 l 694 760 l 857 760 l 709 0 l -21 0 l 127 760 z "},"щ":{"ha":836,"x_min":-29,"x_max":848,"o":"m 610 0 l -29 0 l 119 760 l 281 760 l 163 149 l 283 149 l 402 760 l 565 760 l 446 149 l 567 149 l 686 760 l 848 760 l 730 149 l 788 149 l 721 -194 l 572 -194 l 610 0 z "},"џ":{"ha":836,"x_min":39,"x_max":798,"o":"m 270 0 l 39 0 l 187 760 l 385 760 l 266 149 l 481 149 l 600 760 l 798 760 l 650 0 l 419 0 l 381 -194 l 232 -194 l 270 0 z "},"я":{"ha":836,"x_min":-34,"x_max":800,"o":"m 232 331 q 197 354 216 340 q 160 388 177 368 q 130 434 142 408 q 118 492 118 460 q 119 517 118 503 q 124 548 121 532 q 162 642 134 602 q 236 708 189 682 q 351 747 283 734 q 513 760 420 760 l 800 760 l 652 0 l 455 0 l 512 291 l 430 291 l 196 0 l -34 0 l 232 331 m 541 439 l 575 616 l 458 616 q 402 610 429 616 q 355 592 375 604 q 322 560 334 579 q 310 515 310 541 q 339 457 310 475 q 423 439 369 439 l 541 439 z "},"ь":{"ha":836,"x_min":54,"x_max":732,"o":"m 202 760 l 399 760 l 344 473 l 464 473 q 587 460 536 473 q 670 422 637 446 q 717 364 702 397 q 732 291 732 330 q 730 265 732 278 q 726 237 729 252 q 688 137 716 181 q 615 62 660 93 q 509 16 570 32 q 372 0 448 0 l 54 0 l 202 760 m 364 149 q 430 154 399 149 q 482 171 460 159 q 517 203 505 183 q 530 253 530 223 q 523 285 530 272 q 501 307 517 298 q 398 325 471 325 l 315 325 l 281 149 l 364 149 z "}}}
